<mxfile host="app.diagrams.net" modified="2023-09-29T09:43:02.752Z" agent="Mozilla/5.0 (Windows NT 10.0; Win64; x64) AppleWebKit/537.36 (KHTML, like Gecko) Chrome/117.0.0.0 Safari/537.36" etag="aSaD22HzRXjz2kxbp_yD" version="21.8.2" type="device">
  <diagram name="Side-1" id="zKyTgCQQ7_BbAGMuM4B5">
    <mxGraphModel dx="1783" dy="553" grid="1" gridSize="10" guides="1" tooltips="1" connect="1" arrows="1" fold="1" page="1" pageScale="1" pageWidth="827" pageHeight="1169" math="0" shadow="0">
      <root>
        <mxCell id="0" />
        <mxCell id="1" parent="0" />
        <mxCell id="4WRHdrwynsCK47pERMq_-1" value="User" style="swimlane;fontStyle=1;align=center;verticalAlign=top;childLayout=stackLayout;horizontal=1;startSize=26;horizontalStack=0;resizeParent=1;resizeParentMax=0;resizeLast=0;collapsible=1;marginBottom=0;whiteSpace=wrap;html=1;" parent="1" vertex="1">
          <mxGeometry x="110" y="90" width="160" height="158" as="geometry" />
        </mxCell>
        <mxCell id="4WRHdrwynsCK47pERMq_-2" value="+ licenseId: long&lt;br&gt;+ username: String&lt;br&gt;+ email: String&lt;br&gt;+ passwordHash: String&lt;br&gt;+ consentsToToS: bool&lt;br&gt;+ recievesNewsletter: bool&lt;br&gt;+ id: long&lt;br&gt;+ homeAddr: String" style="text;strokeColor=none;fillColor=none;align=left;verticalAlign=top;spacingLeft=4;spacingRight=4;overflow=hidden;rotatable=0;points=[[0,0.5],[1,0.5]];portConstraint=eastwest;whiteSpace=wrap;html=1;" parent="4WRHdrwynsCK47pERMq_-1" vertex="1">
          <mxGeometry y="26" width="160" height="124" as="geometry" />
        </mxCell>
        <mxCell id="4WRHdrwynsCK47pERMq_-3" value="" style="line;strokeWidth=1;fillColor=none;align=left;verticalAlign=middle;spacingTop=-1;spacingLeft=3;spacingRight=3;rotatable=0;labelPosition=right;points=[];portConstraint=eastwest;strokeColor=inherit;" parent="4WRHdrwynsCK47pERMq_-1" vertex="1">
          <mxGeometry y="150" width="160" height="8" as="geometry" />
        </mxCell>
        <mxCell id="4WRHdrwynsCK47pERMq_-40" style="edgeStyle=orthogonalEdgeStyle;rounded=0;orthogonalLoop=1;jettySize=auto;html=1;endArrow=ERzeroToMany;endFill=0;startArrow=ERone;startFill=0;" parent="1" source="4WRHdrwynsCK47pERMq_-5" target="4WRHdrwynsCK47pERMq_-30" edge="1">
          <mxGeometry relative="1" as="geometry" />
        </mxCell>
        <mxCell id="4WRHdrwynsCK47pERMq_-5" value="Car" style="swimlane;fontStyle=1;align=center;verticalAlign=top;childLayout=stackLayout;horizontal=1;startSize=26;horizontalStack=0;resizeParent=1;resizeParentMax=0;resizeLast=0;collapsible=1;marginBottom=0;whiteSpace=wrap;html=1;" parent="1" vertex="1">
          <mxGeometry x="-150" y="320" width="160" height="188" as="geometry" />
        </mxCell>
        <mxCell id="4WRHdrwynsCK47pERMq_-6" value="+ model: String&lt;br&gt;+ manufacturer: String&lt;br&gt;+ year: int&lt;br&gt;+ weightKg: float&lt;br&gt;+ dkkPrKm: float&lt;br&gt;+ dimensions: int[]&lt;br&gt;+ lat: float&lt;br&gt;+ lon: float&lt;br&gt;+ available: bool&lt;br&gt;+ id: long" style="text;strokeColor=none;fillColor=none;align=left;verticalAlign=top;spacingLeft=4;spacingRight=4;overflow=hidden;rotatable=0;points=[[0,0.5],[1,0.5]];portConstraint=eastwest;whiteSpace=wrap;html=1;" parent="4WRHdrwynsCK47pERMq_-5" vertex="1">
          <mxGeometry y="26" width="160" height="154" as="geometry" />
        </mxCell>
        <mxCell id="4WRHdrwynsCK47pERMq_-7" value="" style="line;strokeWidth=1;fillColor=none;align=left;verticalAlign=middle;spacingTop=-1;spacingLeft=3;spacingRight=3;rotatable=0;labelPosition=right;points=[];portConstraint=eastwest;strokeColor=inherit;" parent="4WRHdrwynsCK47pERMq_-5" vertex="1">
          <mxGeometry y="180" width="160" height="8" as="geometry" />
        </mxCell>
        <mxCell id="4WRHdrwynsCK47pERMq_-38" style="edgeStyle=orthogonalEdgeStyle;rounded=0;orthogonalLoop=1;jettySize=auto;html=1;endArrow=ERone;endFill=0;startArrow=ERzeroToOne;startFill=0;" parent="1" source="4WRHdrwynsCK47pERMq_-9" target="4WRHdrwynsCK47pERMq_-1" edge="1">
          <mxGeometry relative="1" as="geometry" />
        </mxCell>
        <mxCell id="4WRHdrwynsCK47pERMq_-9" value="License" style="swimlane;fontStyle=1;align=center;verticalAlign=top;childLayout=stackLayout;horizontal=1;startSize=26;horizontalStack=0;resizeParent=1;resizeParentMax=0;resizeLast=0;collapsible=1;marginBottom=0;whiteSpace=wrap;html=1;" parent="1" vertex="1">
          <mxGeometry x="-160" y="55" width="170" height="228" as="geometry" />
        </mxCell>
        <mxCell id="4WRHdrwynsCK47pERMq_-10" value="GDPR Sensitive:&lt;br&gt;+ expirationDate: Date&lt;br&gt;+ creationDate: Date&lt;br&gt;+ surname: String&lt;br&gt;+ name: String&lt;br&gt;+ nationality: String&lt;br&gt;+ socialSecurityNumber: long&amp;nbsp;&lt;br&gt;+ licenseId: int&lt;br&gt;+ userId: long&lt;br&gt;+ pictureUrl: String&lt;br&gt;&lt;br&gt;Non-GDPR:&lt;br style=&quot;border-color: var(--border-color);&quot;&gt;+ internalId: long" style="text;strokeColor=none;fillColor=none;align=left;verticalAlign=top;spacingLeft=4;spacingRight=4;overflow=hidden;rotatable=0;points=[[0,0.5],[1,0.5]];portConstraint=eastwest;whiteSpace=wrap;html=1;" parent="4WRHdrwynsCK47pERMq_-9" vertex="1">
          <mxGeometry y="26" width="170" height="194" as="geometry" />
        </mxCell>
        <mxCell id="4WRHdrwynsCK47pERMq_-11" value="" style="line;strokeWidth=1;fillColor=none;align=left;verticalAlign=middle;spacingTop=-1;spacingLeft=3;spacingRight=3;rotatable=0;labelPosition=right;points=[];portConstraint=eastwest;strokeColor=inherit;" parent="4WRHdrwynsCK47pERMq_-9" vertex="1">
          <mxGeometry y="220" width="170" height="8" as="geometry" />
        </mxCell>
        <mxCell id="4WRHdrwynsCK47pERMq_-41" style="edgeStyle=orthogonalEdgeStyle;rounded=0;orthogonalLoop=1;jettySize=auto;html=1;startArrow=ERzeroToMany;startFill=0;endArrow=ERone;endFill=0;" parent="1" source="4WRHdrwynsCK47pERMq_-30" target="4WRHdrwynsCK47pERMq_-1" edge="1">
          <mxGeometry relative="1" as="geometry" />
        </mxCell>
        <mxCell id="4WRHdrwynsCK47pERMq_-30" value="Invoice" style="swimlane;fontStyle=1;align=center;verticalAlign=top;childLayout=stackLayout;horizontal=1;startSize=26;horizontalStack=0;resizeParent=1;resizeParentMax=0;resizeLast=0;collapsible=1;marginBottom=0;whiteSpace=wrap;html=1;" parent="1" vertex="1">
          <mxGeometry x="110" y="320" width="160" height="188" as="geometry" />
        </mxCell>
        <mxCell id="4WRHdrwynsCK47pERMq_-31" value="+ orderNr: long&lt;br&gt;+ carId: long&lt;br&gt;+ userId: long&lt;br&gt;+ kmTraveled: long&lt;br&gt;+ destinationAddr: String&lt;br&gt;+ originAddr: String&lt;br&gt;+ date: Date&lt;br&gt;+ total: float&lt;br&gt;+ paymentMethod: String&lt;br&gt;+ methodIdentifier: String" style="text;strokeColor=none;fillColor=none;align=left;verticalAlign=top;spacingLeft=4;spacingRight=4;overflow=hidden;rotatable=0;points=[[0,0.5],[1,0.5]];portConstraint=eastwest;whiteSpace=wrap;html=1;" parent="4WRHdrwynsCK47pERMq_-30" vertex="1">
          <mxGeometry y="26" width="160" height="154" as="geometry" />
        </mxCell>
        <mxCell id="4WRHdrwynsCK47pERMq_-32" value="" style="line;strokeWidth=1;fillColor=none;align=left;verticalAlign=middle;spacingTop=-1;spacingLeft=3;spacingRight=3;rotatable=0;labelPosition=right;points=[];portConstraint=eastwest;strokeColor=inherit;" parent="4WRHdrwynsCK47pERMq_-30" vertex="1">
          <mxGeometry y="180" width="160" height="8" as="geometry" />
        </mxCell>
        <mxCell id="4WRHdrwynsCK47pERMq_-39" value="" style="shape=image;verticalLabelPosition=bottom;labelBackgroundColor=default;verticalAlign=top;aspect=fixed;imageAspect=0;image=data:image/png,iVBORw0KGgoAAAANSUhEUgAAAZkAAAILCAYAAAA64+EbAAAAAXNSR0IArs4c6QAAAARnQU1BAACxjwv8YQUAAAAJcEhZcwAAFiUAABYlAUlSJPAAAP+lSURBVHhe7J0FYB3Zdf6/x0/MjBZLlplhTYte9FKym2TD2UCTJmlTSNt/0zZtkjZpm4axSbObzTIY18wgsyyLyWJmevz+59yZkZ61ki3vSru2dX/SfXPn8sybOd+coacD4KUgkdyS6HQ6eL1jm7DvvBIXMTGvbOq3yOau7pm+I5+cqZWSSD4IdN/61rfklim5LWBRYXxFhvHRIGLc5v5B2WetX1+0Mfjk6XzGNfkQJ6jwfi+PRDIJOtoh5eYouWXhzVcTE1/GpyvzHHtn2Q8abQecysgmW16J5GZFioxklsCbOQc20B+8kX6HCIoPKSCS2w8pMpJZgu9mfvMbcm20UnIktzp6dSqR3OawudbCzY086pPcTkiRkdz2TOyrc6Jv+ODwqn8irg721pBDieT6SJGR3KJMJA4TpanG+h3Jmgl/Z/n3h7F+fUeg478PakgSyQwgRUZyS6Id+Y/B81oYx6R6MrG/8P5dppxsvGq6GMcE+RLJLYS88C+5RfFQUESCN2EhFaMugHLs5LthUyk1xlw9p8S9VOudgjNzcK+KVLL3og6CZrQxaAlKiTGUsYtc+uA5eUea5GZGiozkFkXdbL2qgfW64fG4YXc64XZzngFGk4mCAQbSHB3lu1wuuJwUSJ90ej0MRhNMFHSqPz/m1nP9mTXcyuhJILw0GAo8LgcFD41CbzDCYDLCTAPncXvcLtgdlMe7Kg3WaDLT2I3Q64U8zfBIJZL3hhQZyTvwkrFmg+12e4RhU/wEMmhsmDmQ8dN/oEfPvMmqQiC2Xpq6hjA82I3a+mb0D9rh0VkRGj8HMZEhiAgwUP4AOltb0NragT4beS3+YQgKj0FybAQCrGTUqQllibTdYWaXj/0wIWoeJ+DsR2tDC5qbuzDkNcNC4wqLobGF+8HkpLTeNlTX92LQ5gLMVoTFpyMmgpYr0Eyj9NL35KLA3xmNXWcQImUU3xF3IJF8sEiRmbWoRnoUZTPwkmfgtA1gZKgXA73DGOYjbPYWDBZY/PzhHxiAsOAAWI1kxESNsTa8dESuU92CsZNZCpOZbt/0d2yIlKDT+ZwWU2NK64ySLugtQ0PxYfz3r17AudI2DPslY8FTf4cnNizEfZlGyi/Cvtdfwuuv7cTpVmorfRNy1z2Crz++CjlxwQigIqIt6kTI6gQiKhyJ0WRRUCQo4+JPRokpc8IvGZejxEZxDsLdfQFbf/sKXv7DfpR7QxC1/lGseuRxPLs2EWG9+1Bx8iX8+68uo6x5ELqYFCx4+h/w5IYF2JwTTF04MNjfjb5eEqERWi/WEFiDwxEd7EffER0YiK7G9cuzFPU5Wackql6h5hyOpgu05WTGYhLJ9Rg7QyCZVWimQ0Q4uG2wD7SgvvgUTux9Ha8+/yv89Kc/xv/8z4/xo//5EX78w//Gj3/2W/zqua3YdugsCmva0D3iFaeeRBOiQTI86jELm9YxozoZmo+kwOVH69CE09kQKsbQB2EFedPVahI0ftdIN9qb6nCluhJV1bVo6hnGoMMtsr10hG8wm2D2o6N8owFmClYTH/VTJjWj9ezVKWPilDHGxiAWTwsCZWZ0lmJcX1kWpSVtlFdXVT9JmL2eIQx2tqKpogqVNO7a1k60DznhIk9Sx56J0QyrnwEWixEmAy2DkT0vWn4PeTaOTtQVHcTul36CX/zsR/jlizvw5ulatAzZ4BA9MMqIRpk4Om5GZWzBfLInKiiRTIzhnwg1Lpl1qGaQDJ2ttxFt1Rdx4tABHNy3C3v27sX+E5dwsagE5WVlKCu+hOKyapTXNKG9bwDwD0NwTBJC/fQwi0MVxRop5oc+R+0Qm9txeVehzXMZ1aLRRDPQyoTn1NqiCLXpm83Y2tDbVoWjxy+ivq0fI8ZQpKzYjMVZSciLsQhjbnO4oDP7Iyg2HZm5CzEvLwd5qZEItppBB/3ULXsexDgvRh0VJXO6Jh4U1HJKqoKSoky1uBbT5IfhT67j9djhHWlE8YmLuHC6HK2GAARnL0T6/EVYmx6MYJMDbo8edkMYIuPnIDVzLuYvWoycBPJWAqgBZysuHn4T21/8PV7ZfRpFPRaMhKZjeV4cIoMsME+wLCJFjYhloTivT6WkElHijBrjiVpotA2JZApIT2aWohhKMv9eJ3kBvai/cBB7fv8T/OTXf8KfdhXicoseYXkrseqe+/HII/fjoQc3YnWOHyIGTuH0tt9h79FTONPiwpDwFBTDy/aM7RAbIcUMKd6ByBudV3LFRCtMQZmw/6NXjbmCjudFXbUQI7J5hk+bqYE8Ep16Ck/0xGqk3W2ms0LnH4+0hffh/qf/Al/88l/i808/gkeWZSA+0AoLVeA6Sm2lhTFBuHrsYmxalhiDNqOWE8skMgkeG8PlaMloogWtvFKHBk919OQmGSgovfN3o4MxOAvRc7fg4We+hM9/5av40ueewYNLkjEn0kTVqJR/MMxBoQgICoSB5i0WM4ICAxBqNMFvdD0q/XMQKRQVQxC9UJwStZKMWG1aYEQ7Y4V8y0ok10N6MrMUxdjTsbu9D31XDuPg7l14bcdJnK8fgC48C1nL78ODj27GxrXLsGLBfMzLz0d2SgwSI/zgctgRnLoYkRlLMS/KAKtnEIM9LWiorUVNeTl5PSUoLStHeUUNamqb0Nw1QGJExslohtlExpSMljCu9G/rrUHblTM4fYHKVzegrbsflsBgOPqb0V5bhHMXaNrvhsfiB3+zAXq9Aw5bN1pqylBRWoKi4gqU1/egu7MFXR0NOHW6UPFkTCFIWk6eTGYieTIkMl47+jqb0VJXjeorLegYdMOmsyAowAyTkeSA1kNHzQmUlVzGxdIraO4ZgtPjgcHjQFvVZZSXFKOwpBJ1rf0Y8hih9w8ADQcGNsB8Ds1jw3BvBzqar6C2phJlZaUoLi6ldVCJytp61LV0onfIBY/eAIufeexGA/JkMNREnsx5nD9diha9H4IyF2JO/mKsSQtFqMkG20AHqquqUN/QhLbOftgt4bCavTA52tFYegKnj59AwXkaW7sNHmsorOSZBdm70NLYgMaWVrhNVvS2VqKx5AQuFFejprUPPfR9+AVYadlVYaZlGOysQmNVAc4U0ndY24xWWgeGgGCYaAWZfA5HecsRY5dIpoAUmVmKOCqnI21Hfxvqjz+Ht94+hjdPtcJmiUT26vtx9+Mfw4cfWoOV83OQk56OtPRsZKbNQVpyHAKtRoQmzUVobCbyovTw9DWgqeICTh0vwOkT5OmcoumFiygsLEZJaRVqVAPr9lpg9bOQYTPAyBelaRz9jcdQdfZ1vLLzHBm3SjS0dcISHIzOKxfJ8B7AzgNX0OGywj82DjFBXriHWtFSexnnjx7C8SMncOTkBVysaEdrGwlHRysuF5ejpXsQDnMIUkZFxgQ4elBbdBynDmzH7sPnUNzqQI8xDCkJoQiy6uEebEHNqT/g4OFjePtEBWrb+mAbsdH66cTl47tx/Cj1VVCE8rpu9HssMARFIDTACDMth97rgo6MelPNZRSePYGTp0/h5KkzOFlwDhcLL6GorAoVZLTbeodhJ5Nu8PeD1WRS7tIjcWKRuUzLce50GZpVkUmbRyKTHoIQTyt66s5h29ZdOHq0AIWVzRiKyEV4oA6h9lqc3/MSDh07h1OlXegZdMHpcsJGY+6orxanOeubWxAQl4p+aqP6xOvYdbQIRQ0D6HL5IS4hGoEkeBa9BzoaR1PxYZw/+AreOkjjriHBtBkRl5KCkAA/+PG1K7HdKEiRkUwVKTKzFjYTdgy21+Lsi3/E8bNklPrNCIhZjI0P3oeHH7sDWaFWBKhiwB96kz/8gqORmDoHyalpSIgIQHSgA53FJ3Bu5xt47pVdOFRwHkXlfPROXk1tFapqylFaUoqSyzWoqu2CLTgWwcGBiAs2i0Z7q3aj7MQL+OOuUpy7WIFq8oSu1Fbi6P5D2LenAOdK2qCLTEZsdiYyIrpRc2wXdv3u93hp2wEcOVOEy+UVqKrg60VFuFhSjcb6LgwMOWHyJwFZSiKTkYTcaBaZLpSe2YPDu9/AvgLqx0YeWXgyluYmIyrIBFd/A0r2/wZ7SYB2n6hBOXljly+S8T5xDHsOHMWZiyXCM6sgw11bN4DOPhMSsuIREmiFHwvFQDVOHdqBV15+CdvJSJ+7VIaq6hrU1pI3V1WByvIS8mzKUNrQhcYhHaJjExDkb4WVvgMMsydzERdOlaNJ74+QjIXIIJFZzSLjbEBHRQGee3E7jp+5jJrOESBjPdJJOOOc1Tj81ks4cb4GJS3k4blJhB3k+fSSyDTX40pNDbr6hpCyYhOsfdXoubQPbx0txYWaEbQNByA5NxPRoYEIMzrhttWjcMdW7P7dG9hbWItmTyQscfOxesEcxIb4kRDxRqCcblO3CIlkSvg4wZLZhLhk4RqCa4iMXm0vujodtDX4IyAwDfERcZgTSd6DSTd6jUDUMRhh8gtBeBwJTEwU4oP15JHYMeJ0YcTtj+CERVi0/gFs+ejH8FEKH/vQw3jkzgXICiZxaaWj43OHcbygEBWNHRikVvmKhdfjgss+hMG+XvQNDGHYY4A1Kg0Zi9fjzocfx4effhh3r83BnMAhtJ99G8f378b2I+QlkWA5Q1ORs+4hPPr4Fjxxz1psmJeCqBC++0oxhJo4enUeCm646SjfPjKCvv4+DA4Ow+FwizNdItA4PA6+dbsHfX196Kc8S2Q80havwYb7t+CuDQuxNN1AHk8zrpSewYUzx8gj6EfbEFemdmwDcLqpz5AkZK24B/c8/CE88zFaBx/7KJ64dw3uSA+GqY0Eh7y8U3tP42J5O3k2DjFKcQmHvhC+s027/jFmxvlZJQds1P7gAK0jGpvN7oQLFviFJWLuyo1YuGAuMmPYO9LDPzqVxPUu3Pf4h/EU9f/4locwPzWWPNAEJKbMQTgccLXWoqmsGOVVHWjrtsPltMPWUo7KmloU1PWj3WZGUHQyMnLJYwqwqgKjMTYyiWQqSJGZtZBBcw/DZetFd7cLg8NkPHQWWM3kaZiDEGL0wCieUVGKKpJAgW2M0R8WixWBFgP0ZBgNgeEITsnH4vUP4r4tT+LJj1B48jE8+sDduGf1fOTFG+DnbUVHq3IdpaGtAwPUjLi5WM+3EVtoQ9TDZCWhik1G7up78cBHPoUvfO2r+Iu/+Cw+fP9C5Ib0of7Ybpw8VoCTJIo93mikLLoTD37iS/jyn38NX//c0/jUA8uRmRCEAPVKPl+kZ8PNRtxDQW/kNwBYKZ36Muhh4afmKc6LxMHAp75ojzCYTAiMTkDe6o146JnP4tmvfA3PPvMgtqxLQnSwFyP9dWhquISSJhKZAV4vXNuE0Og5yF6yAXc9/Bgef/JDePqJx/HEY49g84YVWJEVhwjdMEbq6tFwoQIV1Z3o6rVTTUVQaBWPjlWIjuo18BP+LO5mWtdG9fqJkb4HvSkA/lEZWLH5May9YxkWJNO8WY+g+Gxkrn8SH/viV/DVv/xLfPFzn8Gq7ERkZ2YgY/4y5MQGIwrdGGmrQFl5PZra+zBiH0ZvTSGqmxpRQgLjDc1AVt48rFyag8hgv7HrMWJwalwimSJSZGYrwl544PYKf4JmhZIIo+Yh46yliiNr9eha2VzGjDIbax2CEZc+F4s3rsHKuYEw9hThxPY/4Pk//AI//uHP8JMfv4RdZ7tQ10U1vS7xdLvHPUJH54q98nJf3Ce3TEbfPygQyXNiMWcOHXknxCA2PgphQVTP1oSqwjY0NQ7DYwpDWOSdWLJwHe7bkIe0tBQkJMYiLiEMwf4mEhBum5ZOFUl2EPRe5S41ZYMn74BL8KIJi654E8KToHR+Yj4wJBpJKcnIySXPIDkJOWlpyE9PE9cnSJ9gd7nQ0DOMniE7vEY/6KLykbNgBe5elo0EzxXUF+zAG7/7FX794//AD3/9PH654yxK+oZJXKlfj4c8Khec5AGyl8VP5vMoxAP77FaR/NI3Izws8Lgp6MXtc164ySPjZWOp0RsD4BcaQ2MNgr+Vb0KgYLYiIDQMcbExiI+NRVR4BImPkdKiEJ6SiYyMCESGkec53IwLZSWobG5Cd38XKi8cR3NDDZymIITHLkMmeT1z43XkzVJXhLImCR6o6F8imRpSZGYzZByNfsEICzXB349Mh8cOu6Mdg85BDNKhv/IYo2ZShHURho5fheJ0uWFzkDF09KKr7gKKjr6F7dtex7Zd+3HgSCEKi5UL/u1DDjjIQikGU5hSMaP8aWkMTemf38dltlhgsVphpamZjs6NBjLGLj7N5cCIjerrTFQmDuHB0YgLC4Q/eVVmftDSzO8pU9oR3XGz9KF4C0o/3Ov4ef4U+qLCefxeM7PZTMbbBD8LBT8rBT8SIDL6bOy9bvQ5HBh2u+ChsQ21VaHizBHsf+stbH1jF3YfOomTl8tQfqVJ3DE3zCuBh067HN+mTTqjrBMegTrlnZFFj8uI8ami5zM0boDmubI6ThJpschcluI64RnyA6dmmGidGHmdULrBEorAiFTMzcrGnOhwWO2D6CirRE1pEYorS3DmdCMam90wh8QgdekipKYlIspMmwi3Td2K2645Qqg+lkQyJaTIzFKEoTAEwhIQiYTkEISF0SGrZwTDQ7Vo62pFQ5cNNhcf73uopGqKPS64bf0Y6GhAR1cvWsnoOwYbcOX8fux76Xd4/oVXsPtEOWq6LfALjkNSdh6yF81DRqI/wgLYMFFgr4j/VcvJbStH79Q+Tbg/ftORmqTms4GmHErjoDTAp+rIgIpSKmodpZYPQsg4RTPYwoQLeAn5Xxh4NVckiTFQLnXIY+UcN1VSxsijJG+ElMJFZVz2fnSWncLxHW/g+f97CS9vO4PzdYMYIYMdlZyFnJxsLMxOQqzVDKvoRRERHgN/qr2q64Q74dFwGUrg60mihFJKqcPfnqpSJHJe8Y45pQSXplllXdE8p4llJa/HGpRAnlk+MpP41J0DzroK1Fw8jVMFp3GisA9NPYEIjEpB3opcpKZEI5Aqi/XLjQi0FiWSqSNFZhajgx/8AmKQtTIDsWkRgHME/R2luHSxCIeOk9gM2cGXptlIC0M70ov+xmIU7HoF+05ewMmGEQw2VaC5sgbF5b2w2fVIzl+HzZ/6O3z7376L//7B9/Htf/grfPqueMxL5B4VARnzXthkkcEmQ8rmi+ETQ3x6iEuwORNiqDOTh2OGxeQlr4bNqBMuVyd5EQPi9JOLh8gehpGFR/MVqJroh0wyTbh90YdYkDGzzSU4xsMScS7LZXhGKcqjVma4HOXxHwujcrrQDfvgAGrPlaGsogW1I2Y4QhZi+SOfx9e/+yN8599/gP/8p6/j7z9zP1ZGhiCS61KLQmp4YCwoPOEUak+0riMfkk/1iXweCOcrZZR5UVtMlYdDlSXmfIfLixGnm0sKD0epyehh8g9C3MK5SMtLRGqUC36OElQVHMSu1w7hRGs/2vxiEZE4D6uyo5EWxXKoIrrkkSl9jKZLJFNAisyshg1PKBIXb8LiBYuwLMEfFjLeNeePYP9LL+CNrfvx9v5jOHniGE4cP4i9O17Bay/8Hs+9thXHLlehk6y7i4ytw+nEsM0uXn+i3C3Wh56uDrQ21KKxphJXWmzoHRRmVDgybPbYzGoIGyYiooTI10yjQOcnPK6MzEhER/vD4xrCYO8FFBUew9u7j+LYoSM4dPAkDp24jLq2fgzZ2chSi6rXJJpQg2LEfVtn486B45RO/4oZvWoESn0qpP1x23ztioWBy7o9Q3C47bCTu+M16uB0DGOgpwOdLc2oq61H1ZVGtDscGFFb4/74ZgQxp3VFXpEQIM4k8VHGxPlcgNYMCxuPT5TnCPVt9IfZaIXVYBI783BnMxqLz+LEiZM4dvwkzhcWoaGHDgacNGqTH6wx2UhJz0J+WhSCjTb0tDWiuqoW3TYX/BPSkbZoJXJighBpVTtXx8bfixaTSG4EKTKzFDYZ4tjUGoDwzA1YvmI9HlyVi8xYf7jbSlG8/2W89qdX8NJLr+P1Nyi8/iJefOkl/On17dh7oRqNPYMwW8mwkfEPCI9AREQA/C16MnJXUH3hIN7euRVvvPEatu3cjeOX+9DUrfTn9vCpHY4pCMNJaWI8Hn7hJl/yVnwHhswxbaVkHANjkLs0D1nZSYgMIHEbuITCgj149Y+v442X38KbWw9gz+FLqGnpw6BNad/N/VCE22a9Af+EgVt5DQ6PgaMsMELcaMLXSURFmlF+5kAZh/AWuB0an0cIAHsZbnGqzENiYDBaEBQXioioIIT7G2Byd6Kp/LQ4fbbt9dfx2rZ92Hn0EioHR4TnxfX58r2bvQPyWIRo0HjYn9N5XRSlPBYZHjkvAK8zGg+vH1GOx0VTIXDGQAQFRyIuIkrcbuzpaUDDuYPYufUtvP7aW9i95xBKWwbQY6c+DOQRBqYgMSUbC3LnICLQQgcEw+jp74dH74/4jCzMW7kYCSH+4F9H4GH5wt+F+D54+SWSKSJFZrYiLAgdN+vN8FpjkLP2XjzxZ1/G5z+6BQ+vzUBqaB+unHsbu994Ac8//wKee+EN7DrbjFpdNuZtegprlyzCgkgLAqPykLNkDe65ewVy4gxwthbh3IHX8fJLf8TLe07gYEUX+vkuKjJabJQH7XS073KqBovsp8sBt2OE7JYbDsobHhwUPy4mfhtFHSNZUliDY5Cy/knced/9eGxlJpItLvSVn0PBztfw8ut7cfR8DVoGPBhx6pVrElTf5nTDyT9gxu1Q3y6ng/qwCaGzOz3k8ZDXReksJVzeReLkdin3dg3ZyOug+uwTsZ0XAuWi8Tl4nDZ47AOw2WxwurywBIZhzvKNWLVmOTbkhCFipBZ1JIC7XnyeRHorDp+rQOMQtcvP0cBBrQ/CSX17qC41TO07aBzULo3b7bLB7qB+qG/xI2UkOryOhof4h8tofFRjhG/So7J8us5rDEBS+jysXXcn7shLpPUygL7aMzi+81XyOl/AK6/vwsUrPegcYeFl0fJHbFIq8pfMRXJcIIL9DNCRN6QLW4js3FxsWByFIH8L9UJledWzAtK/IoRq4HSJZIrIJ/5nKz6Ggl8nz8+oBIRGIDQyDnHx8UhMSkR8YjLmzEnDnPQMpGflIX/hCixfvQ6bNqzB0nlZmBMdgiCrGRaLP0LCoxEaEYmElDQkp2YgIz0bcxctx6JlS7AsLx7pmblIy1mExUv4XWg5yEyMAZ+R8dr6yHCa4A7OQ0buQspfjJUrliMpPAiB4jdeeHxknGmMRr8g+AcEIzomBuHRCUgW48pC9vxlWLZ8IZYunovUlFRk5dBYFyzGklVrsXhOFBJD+T5cEqAROpw3BSIsaS7mLl6FJQvmY3lmLHkfRhjcTjhtg9AFpSE6ZREWLV6ClUvmIyslDoF6HfSuETjJixnSRyKVlmXBoqVYtHINlqVGIS3MSmMLhB+NLSoqBlFxiZiTlo60zExkzV2IJctpLIsXIDs+BVm585C3eBGWk8eQmxaBmBC+4cKFARIhQ0AEUhYsxIJVq7F4Xi7mJwSQR0FCSEI54A5AXEoW8hYsoeVag4XUb2IIvzWBfwHUioDgcISEhSEmIRnJyanI5OdisnKRk0/rhdbnnOgghFrEiT7oR1ow0FmDE2cvo6mTxNIQjpjFD+CuO1fhnmXJCDV6R+8qE59KhOAIz48mSCTXRUduNx+bSGYZygGp9tX7GA06sh8Z6MZATyc6egYwTEfcTg+VNJIhCwxFWGgYIiMCYDGTYabioiYdbTttQ+hqrUdX7zD6h/no3IzAyEiERPjD31aP7l47uodMsAaFITo6ElERITDpvXAOtqK/qxl1HU443EZhqONSkhHsr7wvS2ydbNe4G4rrPMNwDPejqaEVPYM22MhFMgfHISrUghCzE50dHegfHIHDa0JwXBpiwgIR4U8Ou9eJvq52dHW0obOfPCn/CPHLmIlRJFxmat05iL72KrR1jaBnyAhLUAgiY6IQGRlOYkj59j4M93egprGLPCAPdOZAWONSERfqjxh/g1iTbns/Rvo60dJM3tsILQ/f/UZeTgSVYS0Zqm9Dr508LEsgIuPjEBkWgBA/MvyOIXQ0t6C1pQPDOjPMoTEIJbGKDyUBp+W1DXajvqkd/UN2uA1WBCeQEIYG0XIZRx0Lr9OGkV5ats5udPYO0XqhVLM/rNR/fFwsQgKs8BOi7cZwzWGUHH0N//az11BQ2otB/0ws/sQ/4TOPrsZTK2PJb9ROi3HLtO54MtqTRHJjSJGZtfgaDZ842xaPkw6u6cier0vwqScyNPwcBj+DYeBnMEz8pLxSQz0JQ4U8cLjICFIdPi3Exkn8Vj2/DNNjo6NxwOXhNJ340TBO5zY9JFD8uheXQ2mJ+zCazcrPPI8NSf3kBLc4teZ08E8OUx1KNhjUl02SaLldDnHkL36T0mQRT/bzw5m8FB71N/6dfM6JxsYPf/Lv6It+SFz5VJWDxs/j5P55OY1G9oJoZLR8XvJ2bNQ+rxOdzggdeRAmqsxPxIu1oP4eP7+uhk+/KTbaBCMvMy+rg+vyKUr2Pvh3+rkfHppHvNjS6XQq60CsNxI6kcmn8mjMduUaELdpoPVj0tPYWPy4D143PH7q20Ur2u2iuMjidaKuTxoDP/KqQx+q9r+Kwy8+jx/vuICK9hAEp6zCJ/7177BlXQ5WJvAbq5U2lW9EiozkvSFFZtaiGA3NdGgbgTAw4kML6m2rooBqOHmeJ76o9URZJUWkiWRtRjvNom1yNMvleY7NqZY+vg81lYKSMjpqMVFyRepYkdFkkaQ1JPApRIi50fEoLYsop6kVx9cYW8px7ShRMaO1w4ljpTSublFDqcNtaygx39Kj7RJj5TiVR6Xc+j0Rop5nBBisxtE3XsSbf3wZWy+SZ+e/AClLH8Bf/81HcUdeHJLU55lG+6GIaFOs0Mlal0gmR+zbktnKqCkRiDnVjiimTjE2o+lkdDUzM1pztACj5IpZ/lCaoKj25xqXQe3RLAdRR0A9c7pIUVKVVseZ9bEKPiXH4twbw+1oGqIxblZplIejzL2jj9F5gVJ4fJtXl3nn/ERwE6KZq9rSZsZa4Ji2BkWqWkSrz6k8VT4ng/LIA/QOD8EJAzzhcZiTl4+F61Zi2V3LMS8pGJH81gf6I0fNpyWlh6ktkUTyTqQnM0sZMxsUY9eB/pUNgW+jVY89fOyKr5nRNhhh1BS3Q8kXR7ucJpIEfIJGuQWYTSGfZ+K2Rzsba5QSVBPKZ34UJ4KCSBGNc4QQ9dQE+vfpajTORTmIW365mGhsLHesDptTZVm5xNUtjKGMjNI4m5aRJyKqlhurq5URCSLK966J01ZK0iicp32K52LUOtdEFKcPsT5FinjWhqsq3wXncZaSMrqknCXmCdcg+vmN1739sLnISzUHwhwYgpgwP1hM7AlxA2pZXlZuQpkRE7VFJUkimQJSZGYpo7ZDWCCK0T+bXCEEJDIiz8eSKOXHm5ixVC0mdIbhIhQXs5oHpFms0XbVecFYXNskFXEglNmri/KE5tnkayeJFPPPxcbaETGtHR+UkmMiwyhLMr6s1jkhomrbarF3tszF1H5FXGGsnFpffPIcxa7VmIBLq5m0TOLrUscyVpW/N87g0kqi8qmsFeXtBxyhINav1qaWPrb2lAh9iCw1n5h4/Ugk12b8AZZklvAOU6FYGEqnP2FwOEELPKGpGh1L9jVAhDBkFIRR56kaHUWd0ZpU/66CZ7V6bFA5bbQNtQbPi7TRhsTHaLKKECkOV3WhzChlNTnSuHqOS46WpohvM1eX9C3L07E5rY+xk1BautYGfY7NTMBYqyJoK/SqibqefBpSswk1bSyB4jzP19pURB6Nk1es1gV9jEmlWkQwWksimRLSk5FI3hd4Nxsz1RLJbEF6MhLJ+4IUGMnsRIqMRCKRSGYMKTISiUQimTGkyEgkEolkxpAiI5FIJJIZQ4qMRCKRSGYMKTISiUQimTGkyEgkEolkxpAiI5FIJJIZQ4qMRCKRSGYMKTISiUQimTGkyEhmHfJ1fRLJ+4cUGcmsg9/OLIVGInl/kCIjmZVMJDQ8L8VHIplepMhIZi3jhUb7kTQpNBLJ9CF/T0YyK3E6nXA4HCJYLBZYrVbo9fKYSyKZbuReJZmVDA0NobW1FXV1deju7obH45EejEQyA0iRkcwKxgtIU1MTCgoKcPToUVy5ckUKjEQyQ0iRkcwKtOsvWuDTZAMDA+jt7cXIyIgUGYlkhpAiI5k1aBf2GY6PFx6JRDL9SJGRzCo0ceHAF/rltRiJZGaRIiOZlWhCw0iRkUhmDikyklkHi4rmyWjIU2YSycwgRUZyy3Oj4jDei+FTZu8GKUoSyfWRIiO55dEE40bgOgaD4T0JxbvpVyKZbUiRkdxWsGhMJhya16Jd7Oepy+UST/9z8M3TmKwtiUQyNaTISG4rfE+DjYcFhMWEn4vhJ/6152Q6OztFGBwchN1uF2W0+r7eymSCI4VIIpkc+e4yyW0Hb9KaOGii0tXVhZaWFjQ3NwtBaWxsFE/99/T0IC4uDikpKfDz80NoaCiioqKQmJgopjzP7zbzFRt5mkwimTpSZCS3FZrA8JSf6mdxYTGpra0V7ylraGhAR0eHyOO7y1hAuKzb7RYhKCgIMTExQnTmzJmD5ORkxMbGIjAwECaT6SoBk0gk10eKjOSWZjKjz6e92Gs5fvw4Tp06JbyX1NRUzJs3D5mZmQgODhaiod3GzAJjs9mEh1NZWYnS0lIhRNHR0di0aRPmzp0rPB6JRHJjSJGR3HbwKTD2WvgFmG1tbeJaDAsEiwyH+Ph4+Pv7i7vLNHg34FNrLEZ8Wq2+vl54P/ymZj6NxuK0ePFiJCQkCO9HIpFMDSkyktsGFhP2PtgLOXPmDM6dOyeuraxcuRIrVqwQ3stU4F2CvaPi4mKcPHlSiFVkZCSWLFmCNWvWiDh7QRKJ5PpIkZHcNvDpLr7msmfPHly8eBHLli3DokWLkJ2djYCAgKs8l/FowuILt8eeDYvWiRMnhIfz2GOPYf78+eI6jcZEdSUSiYK8hVlyW8Cnuvgi/5EjR4QwZGRkiNNbPGUP5loCw0wkEvxrmXwTAJ8q4xAWFobDhw+jqKho9DZnKTASybWRnozkloc3YX7epaysDP/3f/+HpKQkbNiwAQsWLBB3hU0HfH2GT5u99NJLWLduHT7ykY8gPDz8fT1t5rb1wTbci64BN1wuEjg1XYOlzisETyfilsBg+AWGINhqhFEeTr473MNw2gbR3TsMm4PWu3gDEa1dnR56kxmW0Ahav2YEmuSBxmRIkZHcFhQWFopTWnwdha+bbN68WdyOfD0PZqrw3Wr8C5q//OUvhWfE13lWrVqFkJAQtcTU4V3uhr0f2kt7qnag7Mxb+NPBfrT2OMH2zitORvAuTDHelfUkegZFVFJW3IcF6x/EvVkhCPNXVEbpVdvlac5379cpwqWNjEY5Gmc8aq5vmm9cYawFpWluRWMspnUrUrQZZrSI0o74HP0Ya00rpkktj0qJERQZy6f4aCdqqohqpfl2dzVHLL/apxo8PRfRWnkML711HqX1A+ge4Vw9vGZ/WGPnIOvBZ3D33CSsjjGJeozaC80ro9OrbTJat14qxOV4VinDjJZSJtqshtawgL99qkVlvMoKUrOVZdAQMbGAV1V+XzH8E6HGJZJbDjbYfMGfRYavw2int9LT08XtydN1KstoNIr2tAc7+a61/Px8IWQ3wrsSGIaquMiT4RsbRrzhCI2IQUxcHOJi48WdcxwS4mIR4O7ESFMxLhV3wxidhTkLFiEr0owAE5s6DTUmjBjFeVYkKRHVZnGMIuqMmOiEMVRKTSweCqpRVeuMLyfyiLF0NUXtWPlUckfLUEQpNWZMlfhY+75lhVFV/hVoXqnBHxzjQGIh5kW2msaz5LEMd6O18CiOHzyG3cfK0eSKQGBEHFKTEmidxyIq1AR/bz+aS6vR1dKLfocFIWH+sFhoO1Gb4u+Z/zQh5JaV/sU/wetQTeMio2NU64hySknBaJTlfrTmWDm1jTG070gU+MB4X0XmXe9gEskk8DbFhv/8+fMoLy8XF/qzsrLEHWDvZVubaFvleb6BgJ+j4VNz7MnwGwG0Z22uB7fJvJtxcU29JQgB4XOQmp6HvPz5JKbzMZ/D/Hk0zcO87FQE2uvQV3cZFZ2xSJ6/HCvWLERqiAFW7XwZNeT18IOnTjhdTuUhVI8Xbq/i8RloaMI0iTGSqXO7aNwcJTNGxtnD5Z1cjz0pMSqxPKK010P5Lrg4uNzwumieinh0ehhUK8dH8NwuB82kijRqW5lnlLJaUR6vaJOCmwKPgdvVU7vKqlTK80B1NAYvv39O/PHoPHDTOJwUXG4aD6dS8avqqXD/IsXVh4HWCpx/60/Ytr8CR64EImfdfVh7x2psWrUY+XQQkzcnAvHmITQdOoCKijZU9ZoQmxyLkCA/IejCU3FTX2LdcuPcL43FqawbFy0TDVOMw1csfObEEnj4u3Ipy+0S35WyTvU6WqNckNpU6oy1IZaDuxNiKgopkw+I91Vk3stOf6NMRdC0nV7j/RyfZHrg01j8LEtFRYV4FxmLDD/L8l6vxUy0LXAaX4OpqakRD3qyJ8OnyyZ7bma8qPi2eaPbGpfWG4wwmf3hFxAiPCgOwcGBCKZpoEUHc/8lHDtxAvsvdyP1gWdx7713YGNeJEKEF6P154Z9pB/9fV3o7u1HX/8ABobtGPFYqH09LKQ12tjcHhfsQ/2wOzxwePQwGlwYGOxDR2cX+geGMezWw2mwUB3ycMigud0ODPX2oLevFz19fRgaGMIIlXHprTAbvFRGaVcxiWRChbBwmhLG4mOfLDDOQRpvby+6e3ow2D+IwWEP7E4DrXcTDHqlJA2aAo/BBRttB3Y3+SM6I8weO/r7e9He1Y0hWk4HW3+jGVYuzn9iqtkBWk+Ub+8qw5VLB/Di74+iM2Aecu//CJ66dx4WpMUgPDQEASHBCAmPRXRsErLSzRhsvoLS4xfRakwXBx0Zcf7CyLudw7DbBjFkM1LbHkqzoa+9C7283oeGMeCk/g10AGBWBYPQCRlUBJLF1DHcS99RL7p6ejFA39XgEC27wwg/q4GWXZRSvi91EYS48YxoUPU71bY/KKb1mgzv8MPDw/Sl9ou3205k6Keyc01XGWaq5Zh3M1aN9zrm91pf43pl3q9+mPda5nr1OZ9fdMm3GPPpsj4ybHyLMZ8qm+ozMdfDVyi053DefPNNcZfZ2rVrhdfEbwXgctr2zqLDAsBej1Z32vDdW0WzdCRrJ6PeVIaDbz6PbZc6UelOwEee+TTWLUhHXow/hC2CEy4bCUpzDYrLKlBcWY+eETo6pupeoz8QmY55OTlYmj0H0aEmmIwODPe2oGr/HpR2GdFpjcPC3CB0NNWjuuIKnF4/hGQvQcqCxVgTr4epvxEttRUouFiN1t5BjDjdykF2SApCknKxYWE2kqJJFP2103YsMrQIilUUi6Wkj2Ef7kRP6xWUn7qImtZuNA87lMX3BiMwJB5z1y1BdmoMkkL8qC7XHsRAZx3Ov7kbdd5w2GPTMC/ajca6epRXtwIBUUjKX4gcvlswjAy1SZMXVez4uyYhuHLuLZzc+xb+9+1BpN/xMB54+kmsTQ9EmB+JBRcRA6Xxu4bh7C3F28+/gK1vncSV9A/j0UfvxMc25yOIxK+nYj+qik7g6JVsxCWFYk6MG80XytA+OIxuEkCbLhyZC+Zj0dK5yAz3g7+JvUkekQsjA+3oaKlDIZWvo2XvHrQp36M7mkRuDhbflY/MlDDEBSkHOMJpIZTVycuijVPBJ/q+M60iw09a8xEeH+nxzs87pXYqQdsBJ9rhxqfdaJmJymtMR72Jyl0vbbK2p9LWjdRlfNMni2vcaBsa49PerzLXyucpb2cXLlxAe3u78F6eeuopcXeZ2WyesO6Nou0e3BbH+dblt99+G/v27RNvAuB3m7HnpL37jG804FN1/GYBfhB0Oq8LCXg4HESTXpIYJ+zNRag8fRA/+PFruBK+BPGbnsRfP7oEOdGB8KPdj0+buEY60d9WjZIjx3DiUg3O13bSkT6fdqI2DCaM+Idgbu46rF26DquWxiAi2I7BhmIc+sF38FaJHZctmbj//nw4uxrRVF4JOwIRtfxeMvQb8FBiLwbLzuDCyQLsL6IjdRIDHSmM1+PEkD4c1shsbF6/GcuXpCEzLYTGpB588r9qfTzKrLpYZMCdNjReuYDSiydwfE8hGnuG0Ue5bqrgGQIJeTiS79qAdauWYlVOOsKs5GnpO9BefRp/+ot/wZH+cHSmr8DdyyLR39iI2oomeEiYcu64Cys3UL0YC4LJPiurksbDFtnrJiPejlNv/gbb33gTO0fW45EPPYIvPL0eYVTOLMbGHzQRA3dRGML5rb/D26+/hhc783Hv44/is0/fjRSLHk0Hv4fDr/0U/314OTLmz8W6RaEYKipEy9Agmlxe9La7Eb9yA5Y9cD8eX0bbUZAfjORpel3daKg4g0vnTmPfyRa09AzC4baDnEFa9kCYLUnIuHct1qzNx/K8BIRQhoHWp1h3GlTWK1Se0YT9g2FaRYZv8+SLr0ePHhUXR13kzWgiM35Hm2jHm0oZX3zzr1V2sryJ6vsalfFMVH4849MnK6dxvX58mUr6VNubahozlfTJyvgy1fLj8yYryxfj2bPg6yPsNfDpq4997GPC6I9/ZcxUxufLRHU4jYVk79692LZtG6qqqoTHwm9rZvHhwOLGD3+yl8NvCODTazfa98Qo26WHzIV6dYVS6Mje1YvSt17BkZd34Y+1CVj4yH147GN3YUlsAILMymksPgHTV12AkmP78fPfnIMlbwMW3f8AVqeTo+Gng6O/Ge1nfo4dR8woG1iBL/7rE1iU7Q9LeymO/M9/4LVTV3B8JAppWz6Gx1bm4r60ULh05L3QOjfph+EofxlvbT2PQ5e8WPjkF8jwJSI3ij0VJ2qOb8eFA0dw+MpiLHvibjz88ZXIIo/A30AGUBjqq+/+E2vKQUa1swxbX3sDWw+cx3DeI7hrxTzcPTdWHJ3b6gtw5eJB/G5fGaIXP4GND38Kd+cGICygCx3VZ/Dy33wXu6oGUBE5F4uffAb356dgTYwfvHzLcVAgAikEGw20bkSX1CcbYz1pDInjcAX2//FnePO1vSiM+HM89qG78anHckhS1ZH6WEvaGmgRHKjb/yccfuM1fOdkABY/9iQ++dnHsCLSgK7j/47Dr/4X/mNHEiJyHsQ999+HLWvCEBJiwnBXCzp2/AYv1wSgMGgl/uFr92HJnEiEefrhaDqCXa+8ht2Hy+FZ8VWsXZaDtdnKDSaetnOoLyzAj57vQvx99+Oezz6CDZEmhKq3UF/tm7GbKmYpQ9tq3n+mVWS6u7vFG299PRltB7vRHe1Gyt9o21NZ5GuVea/1mcny30u/M1VXY7Iy76Vf5kbb1dJZZPipfH44ktP4rcn8/AqLDOcxnP5ujfz4ujzPB07sxXDgvrW3Nft6Mnz6LC0tTXhU0+3JkOkWU27RNdyF7spd2PanA9hzsBV+d3wcd29eiXvvmENGh9YPF/I66ei8DyUnduLo/sN4szQFy9ZvxBOPrEZGjA7+ZJzcti70V7+Ol547hd2n3Fj81/+Ae5bGIcdejgP/9S/YWeFEedACbP7oE7hncQaWJIQIs6zzDmOgtRLHXvopdlwYQTXm4ktf/gSW5cQhTthED7pK9+HS/u34+e9rYdnwEFZ+6sN4Mo28IHKxlLUyft144O5vR3vBG3hx62nsLrdj0ee/jPtX5OGOxFCx9K6eSjReJpH5+S9QrV+P8CWfxp9/JAOpMQPoESLzbzg+EIXeuffg4cfuxfqcBORFkMioXSmG2LdfZd7rtkE3VIo9z/0Cb756BNVJ/4Ann7gDH384iTwMpYbweEYRo0HHsddw6o1X8Y9vjiDz0Sfw4T97CpsS/NBz4vs48vov8MODq7Fw04P4yDMbsTIvDMEBJlrGVgyd/C1+9HoLXq+OxZf+5RNYPy8Gie5WNBx9GTt2l+FcgxX3fO4LWLkkHVlxfkqPA9VoLDqGn//z71GfdRfiHvsUvro0EolBws+6GrGpiA8a+Pj1/P4xI8/JvJcde6bhsfku8kSL71tm/JSZrM746VTKMePTrldvsnzf9IniN5LPXK/MtdIY3zhzrfLXSpsoj+FtjK8B8p1lfHDD10KefPJJYdz5aX0u+163Q982OM7eyu7du8UzOTk5OeLVNXl5eSJ/JuGlVkYh7o8i7SAD31KBc9u+j5cPduJ8XxY++82/woaFycgKU+5uYnQeGzBSh4Pb/oTte0+hJOYzuHd5Nh5bFKyaHy5IHpG+FYdfegEHDxRi+Mkf48k1mbjXUoW93/87HOpOQE/WQ/jbz61DZkIY+CoAbW3QuTrRVl2I5773U5y1Z8K44CH888cXY05coGKQufnhK2gqPoKf/L//QmnCZoQ/9CX844ZopIaq56p8ERVcGGm/grKX/hOvnejFBXc2PvOvn8OyjHgkaa4Hjbe/uQRHf/V3ePViNGoCHsT3vr0J89JcGK4+jRe/8W0Uh66F9e7P4S/uS0VyuFU0Ldahb59ac4RI9oxAN1hOIvMrvPn6UdQn/yOefHwVnnkgXthoWmIqpJyWGqvqRvfJN3HmzVfxTy90I2XL43j0zz+Ce5L8SWT+C0fefB6/OPMxPPLM3fjyl+bDn1oRd9rZe4DmHfjpzy7gT/vdeODbX8E9y6KR4b6C08/9HLsvWdBgWICvfn4pHTRp1xd5lG70NVei4JffxAHTGvQtfRY/fCwDWZEsQtSuNjAqKpaX42OD/UCYER/Kd8f2NQo3Azw2Prq8VuCjUT4S5sCnOzjwaZBrBTZwHNi4ceDz9fym38kCn97RAl9L4DB2x1DwaNw3jQPfzcR3sIwP/MoTfgKdg2+cQ0REhAh8rUALfIpHC3zkPVHgZ060wO/q4qA9k8GB32asTbXAXoQW+JqEb2DjPz7wNQ0O7BFoQXtbMnsI4wN7CFrQ5vk0GS8n38rMd5jxDSjad/1u0bbb8W1wuvarmrzu3s3DmO8WZUTsAegx0lmN6ksH8fu3r6A1JAcbPv5hrMuLQHIwH6ezhVH3O75VdrgXwx2N6KopRGvBn7DzhR/hu9/9HoV/x3e/8z187zvfx/f+9Wd48e0CnO2yo25wBH1OB1xskclCeDwuOBw2DLrcsPN9t9S+WCuOQbgG2zDQNwCj1x+RAbEwGpQ7qZRA6K0w+gUhKtYL/5FBOCv74LTxbbic71bKiMZ4zDxsNxxk7JsHe9Fn8MIUHogIsx6BPBa+PVldLr3JguCoRBgDbBh2F6PXPUJj46aU78tN43fah+Hy8OlC0fQEAsMJ6t1cFNXxhSE+bUben9s1BDstn408V4cwk2Qb1La5nnIztLKMdrsDg+TVDgRY4A70g8liho4E0UPbjoc69ZLQO2gdjoia/EHtcFUHLT8tq1tP69HhgsfhgMfei86ectQ1F+Bc4U787Of8XX0X36Hw3e9w+A/898/+Fy9fbkBZ+xA8A9QqtS360YZHiLgWlF4/MGb8RN172dHfD3h8NxomEqapBhawqQRN5N5N0ITxRsNE4nm9oInrjQRNiKcaWLAnCpzH4swCxmLNdzXytUD2bt4r/D2PP0Di02EsLnyDC/9UM4vMdN3FNhUUe+GE19GK2nOncXzHaVQa8hCfvxqbV89FQpgVltHzOqKwMC8i8AUFMtbmIL79lg44oqMQGUUHG9F8wEEHElGpyF+0AXfduwWbc2KQGUoNaVaZ1oNXPO/BBpgboqnogN8yQHM6/l0eExlWgzDESvdKXR6BMMf8nA4FPRlfUYbXrwiimDpeZSpGTXlGvqWa6hipjtaqKMbjoSKKT8APP9KYqLxAs67cvXhARRmHNh6Bmi0iAlU0+bqFKRB+wWEICvUj4WhEv6MbI5SpyIlSg0ehLCen2tA70o/W4UEgKgThMcGIC6b9iYckth8eqyJkfD2Ne+KbBoRAkWCzqPJteNySsrlRq7SedcYAmAMiEBpBB4V8ICi+q2gR4pMzsOCOJ3D3HWtxX34kQqy0/qme6Ev9U1q6OZhRkbnZvBjJ7QUbKhZk9szYO+RrJPzMDIvNdGx744WGT5Vx+/yeND5gYI+R+30/UIykm47QB9DXdBGXT15EwYkuBGZvwKJlK7EmLQKBQmEYxbwIg8gPLNJRv9GPjGdoJILicpE1fyXWb9yIjZso0JR/lG3jpnvxyKNP46NPPo2nFiYiP5JEg/pUDKUCrW01xlDrejP9B8DP349mnRix98PFRpOrqNU8bsWjGBwywW3xgznSCoN4MJRHx2I1WlRJog8WrCA/apeFw2bHkMNLXgrFeZ4D9eFx2TE82E/tm+FnjoGVxsJ3WGnNqHJECLM+1glXVyYqigkUZeg79ZpDEBKTiPjEWLiHatDZ1YTWfjecQrCoHE9EoBb4QUl7N9r7OlE/NILAFPbeI5EcpGM9FwX54VCWKKU2pWiqKoRmrE0RY5HW04GYNQx+gbEIj03HolVrsG7jhtHvauPGTbjrrvuw5YnP4ekH7saWpXEI8+dTj7zE3Db356YYe4lK+6qEfmDMqMjwTiqRzASjp03IMLBHw6cD2ejz+8VYCNjrmExobkSAfLdh9pD47kkWG74ew94T9//+YcNQzxWcfv15nCoaRHfsQ3jmobXYMD8B2vsZhamhxVMMDgWdETprKAL8IhFmjAYcwXQ0nIqFS5di6ZIVWLZ0OZZQfDGFBfPnIjcjEalhZoSYqBE2kCxSoiVuVDQsEBNzEPTB1G40mTRPI1raitHhtGFYEwPCMzIAW0cXOmqNcOmDEJwaDINFyeNPLSifbA6NsBgCkRAeDbPLg9amNpR3ONAh3hmm4rXDNUJttlSTgOnIm0ynZbOAr0pwqVFPQfEPKKi98PhFH2qyOmG/RBkvrSt9KJLS5mLhonzEtZej4XQJDp7sRP8g364sCquBPDvXCOxNRaivb0T1oB/SF69GdvocROg94s410TtNldudKSidiQ/lT4kpUKaORZvWUXgIjAG0DH5OxOfmIZ++o6X8fS1Tw9LFWLggF9lz4hBHHpdRfcOAaF6IGPtYypQR3X+AvJ97iEQybWjGn6ds6Pn6Dht+fqcYCw2/7t/lUg3DON7NwQ+fHuPfqjl79qzwnviCP5+qe38OpNhKeDDSUoH6M/ux7dAlNBqsSFu3EGlRJvi7htDT3YOenm6adqO3h+I8PzCEAfICPIYwJM7JxYJ56YjoPIv6S+dw5GILugaGYXfx62XI23AMo6e5AldKz+JC0wiah1hWlCfoXfx6GHZQSJxZn0dtls4P/sGxdLSdh6zIIaDmEI6dvIwLZU3o6O5Cd2c9Si+eRcGxQnRYFiIlNR/r0gMRZDGQ4dOO47k9jnHgdamH0T8IUQtWIjUnFpGmRpw6egJnLpSgobMbXbR8jaWFKD59DKdajDCnpNKRfiaigizgV1TybcUe+t7dbg8JH49ZyKPStODqeXVOoIiBHkEx6UibvxobF0TD1F2Bw9u24sDZCpRcaRPrld880NFUhdqLx7HthZ04X2aDPn411i3OQl5iGCy8TXIHJNL8mh03vzGb3wVDcH+iT56ldSDuSuRX8PBBEeVYAsKQsXA58pOtiB6+gJMnz+JiRSP6nW76rvi7cMA+3IfOhss4XVWLPXWD6OOLUaJt7ZN7v3lMu3xBpuS2gK/1sPFnT4ONId8swRfl+brRe/E2uC02BCww/FaB06dPCzG7++67319PxutEd9ExXN67Dc8fuwJdEhm0FXMR5u7CYGebENe2tla0tSrT1vZWdNjcGNT7I8yP1kWAAQFm8ghKzqC5cxA1vV6YdYPo7+lER2sL2lqaUFtajKrKBrQG5SI4yIxwdwdqTh5F/UgwbBFZWLEkDdEhfrCIayQ0JPKSjHy6MtwLe3czumurcKXfDzbbCODsRkdzDS6eJtEqaoE35UGsXb8Y9yyJQrBanxkTaTaxqpmkI3MreaYORw+GyXMrremDx26DUedEb3sbagvPoPhCIS45E5C7Zj3uv28ZEoNIcPRD5Ok1o2T/cXRakmCcsxircqIQGsCn/hTzq/oxKppXQ2afBIZNNZ/AM1j9YfELRqiOjHl7CyqqazBoMMPBNy4MdqOV1m/zlWJUkFjv3l+Gfr9MZKy8Fw/ekYk5UQG0XpUl6blSgPqKIlxsnoeshVlYtjwe/tQPbzFeN62j3gqcvdCCkkYvstatREZiBJLCLAgND4R3oAWDzWUorBvGoN1B7TnRQ99pJ3npzQ31qCwpxPkeHa7oo7Agyg8hyvk5XqFUdmz9Cq6aef+ZkVuYJZL3GxYCvuh/4MABlJSUiFNaTzzxhPjRMt87wHhz1wzbZHFGm2dviC/281P+/JAxe0z8ezL8c84salxmfN3phzwybzdKX30NR154Fa819KLf5E9eRDAsJn4nGBkYcZqEHw6kCQUPJVkX3I2MOx7En69KRkKAF86hTnQ3Xcaxo8dx+GQhGkhoHE4aOxtbqm8NmIekjDX40OfuQE4SiXZnJQp+9xOc6opAd8Id+MSHVyEzNgQBfC6I/oXh4IvazkEMtpWipvgMXt9VgKrGXvTZ2I0AjImLkDB3LT6+YRGyUsIREmoST66PncPRGlKiApFvx1B/B1qqy3F66w6cIfGr6BkWZQw68nDicrHxmTuxOCcVaWGhsBrIsOrI02kowq7v/wIV1vkwLd+CT96ZioRQP8WwU5/C/FL7vLpEd2rfihfDaZxKguMmj4Hf71ZHy3P5GLYdqUZ9ux3DTr1YtyDRMYXFIWrlw+TxZGN9RjQiQ60wG5XTi0zD6d/j3P638GLhfVj38Do89dE88G0i4sqWvQf6pgN44dXL2HHWjbWf+wTWLkhGfrQROpcNg/2taLhSggO796KwvAkNHSP0PXvEatPrA2C0ZmPFg3diw0OrkB9iou+EB8U9K1LJKMukjEYb0weBFBnJbQPfusweB/8uP/+uDN9yza/9nzt3rrhmw3fQ+eK76U8kEvwuNH7+hr2j6upq8XaBO++8U3gyvj+/PPPwRdxhtBWV4EphKapsLgzzKRY+HUMGkU2ngrI8qiklA5+DyPR8rJ8TinDx3i0SK/IwaivLUFZWhaYeF4mMcvaezZDFPxVRMeSxrEpERLAe7qFuNF06j6YRK0aCkjA/NwHhARbl+o+oJE78KHrh7MVgTyPOX7iMxtZ+9A3zmPWwxGYhOi0Pd2RFIMTfqI6QoZgmzlriVd8Bi5Qb9sF+NF86i4qGVlwhkXFTEaMpGmGRqVh4RzbiwwIQwIMRVUcwQsJUXXAe3YZo6OKzsSA1BEFWPj3H3opajFBO0dF6GhvQWKaAM6jUUAP626pw5mI9WrrJ+DsolcsZaT0ERyJ23krkJoQjI0S76UJpm9vtb76ElrpylLSnIzkzBblzI8WraVhkdOzJDNShpKwTlS0eJC2ch8SYYET7U64YkxMjwz2ovnwB1XXkvXQNiWT+ZvnmAJM1GVkLMpA7LwkhJDDKg7eigPZBs/zdkuCMpn8wSJGR3HZcvnxZCA2LA3se/HoX9mj4eSK+9dn3FJq2+Wsiwx4QixXfqcbXdritU6dOiTvYuB3+xU1uZ2Y9l4lRDKNiM/TC0hFszbQ9mJI4yiKjLJ02z1mcSi2IGa47Nn6O+TThM8MSprXEeUoGt6EsvtqGug7Fp9asKKPNMML0qjHlk1+tJV5HP1pO64Fi4q4s5YK2EueITz4Fjo+KhNaEmiiSqbLS9DsLaSlKeR+xGS3vm0DBZ1bLFevUV7kI31rCyxMN8xxXVMqKPLWFMXxqjsvi0Sprb8xLYnitsJDoRbpSX1vHSiM8PvX78634PiNFRnLbwQ9ltrS0jP5SJt8EwA+HskfDD27yg54sNhq+QsN3prHXwm925neidXR0iPL8a5t8sZ+fi9EESjOiXP/9FJ0xc6KYHv4TiWKiGBeeGU1neHgUV2ooCYpOKfNaKqPElHY0kRFGjI29yOS0sfJaWU7jY2fO4cApgnHrRylJCO2gPtQ8ZXkI+lBa4SjXVUbt27bIVRtS+tGWQDG3ynhFglpGa9EXbldpW/kbg6tqOWMoDY6l8QIwfCVnDM7leUW4qBVaPlFDnRcl6F+NjUZ4wkFZ49rIOKZ+B5w5GhE1RXlGa0c8T0pTXv6xVc6llDY+CKTISG5L2BOpq6sTIsM/ZsbXVfiZFr7NWbshgB9c5Slfz2EPht+1x+X4ORg+VcZiwl7L/PnzxSv9+aHPDw7eTUetBsHzbIbUo9vRbI6w8RsvBEoOoxkrRWTGt6oZVqX9MeNEcZ4VhX1qqGlcT42MFlHSKComlCAylHTRB6XzGJRSikHV0sWMQMtllMTRLBXlkj3XU425b12looJqdUUSfSg/6jW2xAJqQ1svY5U54apSAs4lAzra3ztLMNqa0XLUsVLwbZ3R5pWWxETJnOiLmggqPzZ2ntXWKXO9yjOHFBnJLc31vAj2RPjt4Cw2jY2Nwqvh511YWBjt5yg074RFh29N5qf5WVhyc3PFa2/4WZwPFh+TJIyPMj9q2ESaFuGgLI9iaLTPMVPH1dkgafOUOdqmkjpZXOPqNJ7joPx2DUHJWq+K5VPr+oxbQ0lRjK+QTK2KSNHwaVhlrCXqST0tNJo7VoyKcIMU+AYJSud6HMRYR5eZoKgyp1TWREgkcl1GxLVyBEX4Zw2UFC4z1jEvvxrR9E1N4+9hTGSYsVpKGTHvqxgEvzpGqTkOrSGf749jfMVOnEpTuvzAkCIjuW2YSHBcLpe4xsKn0Fhg+HQYT1l86uvrcfz4cfEONL7eor3zjQWG38nGt0GzuIy/hvN+nhrTuMpOjB24E8ruO95oaSivPuEcGj9V8LVb4ihciakTn/lxWYz42V81LvAtzxV4VpRX6mvjGy2mNaZOmNEqFFOuAPE4lcTRasRYFS3VpxFRl8emVhJZPuXeUYUSRlcEZ2pmndbiO4pzHufyko/lKKmihhrT5hTeKQVqGZ5wntiGlJqjpZUZkT2Kem1qFDVPuahPM7wcamW1B5HOSZzyznG8/0iRkdwWTMX4swfDD1Vy4FNi/Hswzz33nPjJ5gcffFBcb/F9WSnfojwRH4TQKMZDjYk9VhEMRVreOZaxnZoNDc+pxpuh4hPXYtRCmhH2LTTWqILI8zVlV7c6akLFQCfqcXz58Ybz6hJK3PdTgeP8qdSl6ER9UdLYIl2dr9XntHG1VMbKa0ur1fGNj9WfYJ34mNnRa1CcxlnKnFr+apR1qOapTSlR3+UdS7u6HZ/MDxApMpJbnomM/rWEgPPYu2GR+eEPf4hVq1aJX9TkmwE0j+V6XKv9mcV3d52g/6uMjsJoqdEExRxNVF9JoVzNIjMiqjWsNjIqBIq5Y3xyKa689FHzTMY3p5SjmmOWnxirfXVcgVPG51xdSplTPpUUX0HRyjKc7ltOQR2Pb5IGFeYsrqVeBXsnWgeinE+v6jKK7NE8rS+lkrIOlbhSmtEETE1TKgp8opNw9ffyQTK1PUoiuYmZyNhfSwA4j6/FuMTrR9xiyhf+b+R464MRGIb71cIE+CS/o9RoAh/tKke844MCxd6RqEXURJ90NUUwFmd5Uc0LJWjpSp4W98kQ+M5clSGYKOfqUsqc77K9M3cs3becEuhTyXwnatakAsNwlpo9VopiajpvMhzltTLWF39o41D+tDRmLEaMRq6KTsJYSx80UmQksxZNVHh6IwIjkUimjhQZyaxlvDcihUYimX6kyEhmJdptyxN5MVJsJJLpQ4qMZFbCXgyLDF+T4eszmrDw9IO73iKR3H5IkZFIfJACI5FML1JkJLMK31NhLCj8OzT8ehmJRDIzSJGRzDpYaPhUGT/hv379evHqGH6yf6rPyEgkkqkjH8aUzDp4k+fAvw/DP3TGD2HySzNZZOTpMolkepEiI5m18KbPD2GyuGivkJEiI5FML1JkJBKJRDJjyJPQEgkhj7UkkplBioxEQsjTZBLJzCBFRiKRSCQzhhQZiUQikcwYUmQkEolEMmNIkZFIJBLJjCFFRiKRSCQzhhQZiUQikcwYUmQkEolEMmNIkZFIJBLJjCFFRiKRSCQzhhQZiUQikcwYUmQkEolEMmNIkZFIJBLJjCFFRiKRSCQzhhQZiUQikcwYUmQkEolEMmNIkZFIJBLJjCFFRiKRSCQzhhQZiUQikcwYUmQkEolEMmNIkZFIJBLJjCFFRiKRSCQzhhQZiUQikcwYUmQkEolEMmNIkZFIJBLJjCFFRiKRSCQzhhQZiUQikcwYUmQkEolEMmNIkZFIJBLJjCFFRiKRSCQzhhQZiUQikcwYUmQkEolEMmNIkZFIJBLJjCFFRiKRSCQzhhQZiUQikcwYUmQkEolEMmNIkZFI3gVer1eNSSSSayFFRiJ5l0ihkUiujxQZieQa+AqJb1yn06kxiURyLXS048jDMYnkGvAuoomKFBqJ5MaQnoxEcg00UdGmmrBIgZFIpoYUGYlkiowXGolEcn2kyEgkE+ArKFJUJJJ3j7wmI5FMAu8aUmAkkveG9GQkkklggdGOwXjq8Xhgs9ngcrlEmkQiuT5SZCSSa6B5Miwww8PDqK+vR3d3t0iTSCTXR54uk0gmgT2WwcFBISzt7e1CXHh+wYIFWLx4sTyVJpFMASkyEokPLCx2ux1DQ0MYGBgQ4lJUVISGhgb09fUhKCgId955JzZu3ChFRiKZAlJkJLcVvDm/W+PPdbu6ulBTU4NTp07hypUr6O/vh7+/P6KiohAfH4/09HRkZGQgMTFRrXVzol5JAq8J5ZN2do57PTRVzpJ7KUFbU15RQzduXkvRTISWOz5/bF4ro6WKTzVLlKV/nhX5FPHqtHpq/nUZ61nBd+kkNyNSZCS3HTcqNJ2dnWhqakJdXR06OjrEaTEWF24jMDAQSUlJiI2NFULDITg4GH5+fmrtmx02yr5meNTEq8ZamVNKTbDORouP1bsa3/TxrfgKwiTtX1VnfB8T9TnVNMnNwrSLzI3u4BLJe2Gy7W2idG1Td7vd4pQYX8jn02LssZSXl6O0tFTMs4CwtzJnzhykpqYiISFBnCYzmUyi/q2C1zEM+8ggWrsH4NZZYfULQnhEICxG/egdP6M7v9cFW18Phkhc+9wGmAPDEBgUgiAzYFAL6zRj7msxhCeipdGHts4pKiRm9DtQyilzojCh5WkoZZRPnlUFiGZGa/hWHS0ouZmZNpG51k4tRUdyM8DbIwsMX2thUbl48SJOnz4t0iIiIpCWloaUlBQhKtHR0QgICIDVahXiYjAYbqnt2EN/9uaLqL5wBP/z4nEM6NORuXAjnvzIaqTFBCGQyozaaK8DcPXg8p7XcGzX2zjUG4+YNQ9g1T334J5EM8IsynKzyddzDR9DP2bnOeZR55Sg+THivJyKIhhK+phno8yzoGiMxVSELaGauqtviFVEhz6kjblpmdHTZb5NS6GRfBA4nc7RC/nNzc3ilBhP+XSYw0HGlYiMjBTCwqfF+HRYaGio8GZYWJhbddsdrjmCwsNv4Gv/vQ1N9gSkLr4HT3/lo9g4NxF5IUZh2nnJvPY+2JpO4aU/voDnXtqHClcKsrd8Cps/+hF8LMOKGD9lPQhjLqBaamWtDY7xnyIcSopHzFMQ1XzEQclWGWthjLGWRlFtiYcSOZ3DaJmJmpDcNFx9WDDNaDunFBjJdMAHLdqBi+8BjG86w3eIjYyMiLvBWlpaUFlZicLCQpw4cQKHDh0SU05ncbn//vvxxBNPiOmiRYuE0PCpMaPRqLY2xvg+b2p4eG4PXA7ltGBfXxuaW6pxvLAelc39cKpFWApcI/1oLy1AUXUdTnV5MdAzADufSnSRTPByckFyUjwOGxwjwxgmwR4eGhS3c7N4D43YYHe5qYhOBC4u2vaSP+V00RgccHLc7SKnicYzNEJ1qf1hG2xON6gbpYLoxw2vywG7zS7adFOaWNVsQ4QdIWGhtuB2wmUfhp3adnj4+6csyU3JjHsyUmAk04W2qU60Tfluxj09PWhtbRXXWioqKlBdXS0u7vPF+5ycHMybNw8xMTFCTPjCvnY6TK+f0WOu9xX2BQYqD6Dw0Ov4298cJiMfjbiE+eixpuCRJ+7A048tRSStRjNIjJtKcOgX/4odzcMo6A9C6Ll6RD7wEeR9+nP4sywrYv11cJPADLW1oLO3H10jdtIv9lNoneuNMPiHIYrWZ3R0CKyUppxSYw/GhoGufgwMOOCNjoafux+6vnbUtg/D5vLCaPFHWHwqokICEGpVvlOPbQC2gX60djlgJI8yOCoMQfS1GNSvXHzLXgcJ4yB6GjsxbA0GwiIR72+AWSskuamYMZGRAiN5P+DtjD0XviNMuzOMvRQWGRYbFg6+BZnvCONbkJOTk0VgcfH1VrTd4HbZZoXIVOzHxSNv4m+fO4foqDnIS8lBwdlm5N9/LzZ/7CGsjDYg2FGBlorT+M1PDmKAjL0hIgCVzx2B8c4nkfXZZ/GlLD/EB9gx0NqAS7/bhiJav1csepj05FGIVaWHCxZEZi5A+vwlWJ4RgXA/I0ywQ2dvQuGu4zhzvBwdC1YiLsSNSHsbSqo7hCfkNZrgiV2AZYvmY3V+GsKsenh7atFSWYRtO4vhnLMIKWvXYUOyP0It7MHQUlGn7oFGtFeXYvsr52DLWojETeuxKcaCUPPtc5BwO2H4J0KNv2d4R+XA58H5NRx8QXWqgcu/28B9TpR+I0Eb+7sNvst/o+HdMJsFnNcZCwu/R4wv4vOzLeytFBcXizvEamtrxUOU/L3yHWKrVq0SD1DOnTtXeDB8MZ/Fh9vR1uP4qYZvmfFcK++Dhkdl76pBS1053i7uQUpGFpbOTUP3pYuwWyPhis5AbowRxs7zaCwpwM7qZKTNScLaVBMuHyuHMzkX0UuWYWmkEcGmYQy21OHsT0hkahtRQx7KCJ8u6x9Ab0832hsqcaXDgeZhf/KWohEcYIa/YQSwXUHBi6/ird+8in02C/ocIyQ8fWisa0Z3ewPa2upxpqwebkswohLIo/Enj3K4CW1V5/HmH97CpS4jekLTMD8lACFW8jRJOHU6L0ZaS1B19hB+8dsTaAmIRuTi+cgJNiHAeHN+F7OdafVktB2fz9XyRVVtJxy/I060Y2ppvnlTiTPvpdy1yjPvptz4/Bupq3GtNMY3rjFRndsFX4POBzHspfDpMBYUfsaFr7/wwUp4eLi4/ZgfmmRvhb0YDnwhf6LTYZMJhW/6RGUmq3czMVC+B+cPv4mv/18Zlt3/EB67bw0af/0zlNmS4Jp7F/784/PhOPsazh/cjT3ZnyCPwYulg8X4j2/txMDaRzH388/i8zl+SPAbxnBbB4r/WAFdUgiCl8TCTItOzgy8jn54207i1a3l2HdJj7Vf+BzuWZ6C5XFOYKQUO7/7a7z48504teRerHjoQWzZtAJ5fi7464bQ0ViK1379AzRG3oGY9Z/B19anIom8pu76Ehz45U9wpD4E3XF34Mt/eTdyE8MRLG4lcKHh5Gs4tmcnvn86DZsfuQtf/vhaRJMXY5KOzE3JtIqMdh6cA194nWxHnMrOOR1lrpU/WZ6Wfi0jMhP9+jJRmXdb71q8l6/+vW42Wn3fMU/Wpm9ZjvPdYnyHGL9TjAWG7xTj6yvspfCtxzzlW5Kvddvx+HRtfrLyvlgsFtH+woULhZDdrLDInOO7y/63BMueeArPfOR+BO77LQ6eduBifywe/XAc2i+Xoqq0A7Gf+CJWRvYisvIovvePO9A/KjL+JDJuuIdt6K4cht7QBKehGRfKR9A/4obXTWmDFTi0rx7nK8xY+cUv45FN2diUSRZ/qBQ7vv97vPyHYyh95IvY/OBGfHRVNpL9AKvBid4mEpOffRXb+zPRkv40/uPpZciJ8YenpwF1e3+LN/bU43RbNB78qy9h9fxkZIe44XG04/Qrv8O+nQdRMOeL2HLPSnxifRL4/rfrf3OSD4JpFRm+yHrhwgWUlJSIO1oYrXmeajvwZF3eaLov1yszU/nj099LP9ery0xHmcnyx6dfq52J8nzT+Lueaj/jy04W18qxyPB1Fw58QZ8PaPiusKysLMTFxYkL+ezVcDk+ZTYR3Ja2PTJaXEvX+vUtw2kcWNDYW3rqqaeEqN2s9FeoIvObQix54hl85vMfxtzm3Xj75VJsPdCMmIX9aBqMgN2Yjy//xYeRZ61H35nd+PdvbVc8mWefxRdyApDgD3icdgyS99hZeQBVlw9i+0U3uof4XjIXDN5B1Fc40DsQjZWf+jweu3cu7pprAcgr2vZfz+O1Vy+h9avfx1Ob8vHxDOvoLa3D7ZWofPkb+FVFOAoC7sWP/uweLCCPxc/WBUfNTrzyhz3YcbQLKR//Fu5bn4/16R44u89g629fxp595Yj70n/irpVzcUeiRQrMTcy0igzv8OzN8MVXPnWmca0ufPMmKzc+fSrlrldnKm0w12qTmWoac72yk9Vjrlfu3bQ9Pm2q7TI32rbG9eoxU2mbT5nxSyv5gKagoEBsb/ysy7p168SpMj5txmna9b7xjO9DE5OJ+mM4XcvjazrsLa1ZswYhISEi7Wakv2Ivzh96HX/+v+ex5KFP4LNffBbzLc0ofW0Xdj/3FvbUF8I57z7kbf4E/vKhxUh2lqPh1B58759JZNaQyHzu8/giezL+Q+hvq8HJF7fi6PEqVHS7kXL3EsSGByHEY4fX3oCzR5tQVm3C/I8+i0fuziORMZHIXMa2/3wOr7xyEU1f/Fd89K6F+HQery9lPQ61VaP4hb/E/5UF47z/Pfj3r23GouRIBHlt8I5U4cBzz2PPmyfQM/cTuOeBdbh3qR96z/0Qz+/rwbHmNPz5X30SizPiEcXn7iQ3LdMqMnw9hgNfj5nsCJK5XpdTGdJ7LXMji/1e2nmv4/TlvfQ1HeN4r+1rTMdYmN7eXnG67PLly+Lghq8F8qks9i7Ys+GL/nxai5/cn4iJ+pisX990Pg3H13n4bjXu72ZloJxF5g189XfnsejBj+PTX/giFoXa0Xf8dZza+if84HA9Itc8gXs+/Ck8MT8KYf1FqD6xB//xLzvQv+YxITJfyPFDtO0i6i4dwm/++zzaEI/w+Yuw4d4sxIf5w887QiJTgT2vnsfhI71IevxTeOjOPNyTTyIzVEQiQ57MS4Vo/MK/4CN3L8Kn54aOeh1DbVUoeuEb+L/SIFwMuBvf+/oDWJwUgSC4KXcA1Ydewuk9O7GtIxtL7tqATUui0PPiv+DkUCaaUx/DVx5fgLSoIJiV5iQ3KdMqMhLJ+wkfyPABDYsNP8lfVlaG8+fPCw+GH7Tk52FYaPj5GBYaFoSpvCKGd4mJ8idLv1kZKCOROfwmvva7C1jw4DP4JInM0lAvTI17UHVhN/7zsBOpi+7BffdsxtxIPYwd51B5fC9+8M98TeZx5D3LImNFUMMruLT/JfzjT4GUOx/Fls8/jvVp/gj108HrGYLXdgmv/vog3nqzHmEPPYMHN+Xivnlk+ofZkyGRefEiGj//bXz0nkX41DiRuUQi84eyIFwIuAf/QSKzKCmcREYxSfb6fSg/vxPfeaMTUfPmY2F2PLp++Tt4Ft6PqCeexcPZfohU30Zw63wrsw95P4bkloXvFjObzcJb4duTN2/ejC996Ut4+OGHxethDh48iF/96lf46U9/igMHDojbnNnb4VNoLBi+x1e+8cmEZHy6b52bDTEyGq8YsZc+KYHT+CqKKX45Ujf8Gf7mz7+KT2xejbwoA6zi3Z9cfmwZeXF5ztY3jN7uIfTFRCI4IwLpqX6wiveZUYsuJ1w9vbAPDImn90mGoePbzriml8wLd6qnDx3lsEh7OMEXnudaHppQXPwr9c1RaQhOXYFobwB6zhXiyFuHsK0pH31BeZg7xx/+JjpYECUlNzNSZCS3NCw07J2wp8LeC3su8+fPF8/GbNq0ScT51BafUtu1axdee+01HD16VLwgk5+v8T21e6OiwaJzMwuNx+uGy+2A02GnKZ+CYsiEm4PhH5aM9JRUJEaGIcCoGAIvGXqPxwW70wG72wWnWDQv/ENiEBWXjgSrA46eZpRXVKG2pgZ1VypRVVWEMyeP4VJJGRp7B6lPD/QsKCwa3J7LDafdCQdNXdyer1DTuvOySDldcDi5b+5tTDR0liiERmdi44JAhNnbUX2pFt6cXMRkpSA1kA4wtFeqiVqSm5UZF5mbeSeU3D6wwdc8G77DbMmSJXjssceEV7Ns2TIhJHz347Fjx3D48GFxswA/vMk3D/CNKnw3JJ9mG38t8Xrb700tNDQ2ndEAi8UMM00NLDA0VsVfMcJoMMLAZcTwybTzG46NlO5nhclMU2EddAiKSUNy7gqsTDTD0FmLgqMncPrUaZw5dx7ni4pQVFGL5u5+OPUG6oe+A+HJcFU99HQAYDJblP65PcrS1haPQm80i4MEi8lI4sQpGlRKz6/9icXahUGI9vOit8uNOasykZETgxgSGIMY+E267iWjTOsT/xMx2akHiWS6YCM/0XbGafwQJosOX5/Jy8sTp9G06zfs3bDI8IOdfAqN7xpjkdLevsxoIjK+fd+0ifr+oOEReUd6MTI0hIYhP2TNXYj5uTmItpC88DJRCfGrlFSQx89/Xvsg7IPDaGv3IDxvHubkZyE/xAR/vyBYQyKRlaTDUG8TLhScRjmtv7KGXnS5gpG/aiOSo9ORHBKBuLn5SEsKQ0KoCTq3DZ3NvRh0mRG0bDUWpEQiM8SsrC/q2uO0YbirFr2mBJijc7BufjKi/C00PkU6xBidI9C1Xsa5SiOqbFl44Mn1WJQVRaJjIHEUg1eXVnKzIi/8S255tE34esae3xjMt9nzqbK2tjbhwfBNA1yPT6nxbcla4LvT+EFLFp3xTLW/DxQaomugFT0djThf24PQ+FTMSc9EhEl52aRymYbNuOo9UHnPSDcGulpRXtwCR1QigvmnpoMM8KcKXhIM3UAdisuvoKiyFXZ+PbI1FEERMcjPTYG3bwhDnUNATDLiogMRF0KtugfQROUbGnowkj4PKTGhSCPRUtDBRaLWV3cBtf1m9BhjsSgzDqH+5lGRAWwYaqnC5f/7CV4qseCS/1J842v3YmlaJKL48X4xcIZLj85IbjJmRGS4yZt6B5TcVryb7Y1vAOCHOc+dO4eqqirxrjNuh5974edt8vPzxV1p/Nsymtiwh+O7u9zM27gYJw2PR8hiooyaf91/bMzakogUtTynKSXY27masZpjdRkuKbwOiivn35UeNU9jrE2tfeUGAQ48Hq2tq8uQRg01ornkFJ7/x1/iUvB8mO58HN94dB6yIgNh5Xpqhat7kNxsSE9GMuvgTZ6vvfA1GPZu+L1n7NnwNRt+JRLH+YaAsLAwcSPB6tWrxS9msuD4wu3crEKj7NRsxhnfMaoGmSb8A2CMMlHSRVwt4hO5CpEqzAbl0T/HGK2kImlK3/zif0a57qOi4+teSjq5SPTBJXXqD5KNjaHv0k5c2PsG/v65esRufAQPfvJpPJgVgkg/RSp9f8BMcvPyvomM1o30cCQ3G/z2ABYbfqBTe10NX6vhNzzzdsviwg948rUdFh2O38xP+l8N7XfCoxAxMS/MuEjWdn1tn6S8MfeA4HwfT0OZpXkuJ1LUcgpqtkDxbbS6HKcYtc0x9V+pIO5CG0vXYBHrLzuJ6nOn8KdiIGXpCqzbuBIZwQb4qb/QoLR9VTXJTYgUGYnEB/ZuWFz47c4c+NkaDuz58C3S/OuZHPjdZTf1tsy7Gw1PM/ZaEn9qIqMqBUfUKc3zfipmtTRVKK5K5hQtn1Bnx6X6wELCueJl/SJF6Zo+1NNpzJiIKXf42Tva0N/RiUaXH8KiIxEXE6q8/VnkaozWVqeSmw15ukwi8YF3BxYUfrmm9rMV/OoaPo3GUxYgfj/axo0bJ/zpAMlkqApyA3hcTvHzzQ6SFYPRCJOJf1NGcqshRUYimQTeNfjWZhYavitN++VNfgFndna29MolkikgRUYimSLs4fANAXyXGT9AKJFIro8UGYnkBmChYQ+GA+860puRSK6NFBmJRCKRzBjyOppE8i6Qx2YSydSQIiORvAvkaTKJZGpIkZFIJBLJjCFFRiKRSCQzhhQZieRd4HtNRl6fkUgmR4qMRHKDsKj4XpOR12ckksmRIiOR3ADjBUYikVwbKTISyQ0gBUYiuTGkyEgkEolkxpAiI5FIJJIZQ4qMRCKRSGYMKTISiUQimTGkyEgkEolkxpAiI5FIJJIZQ4qMRCKRSGYMKTISiUQimTGkyEgkEolkxpAiI5FIJJIZQ4qMRCKRSGYMKTKSWY18Tb9EMrNIkZHMSjRxkS+8lEhmFikyklmHJjDSi5FIZh4pMpJZga+gsPeihYmERoqPRDJ96GiHknuUZFbAm7o8PSaRvL9IT0YyaxjvucjjK4lk5pGejEQikUhmDOnJSCQSiWTGkCIjmXVM5LxLh14imRnk6TKJRCKRzBjSk5HMWtxuN4aGhmC326UnI5HMEFJkJLMSFhWbzYaqqiq0trbC6XRKoZFIZgApMpJZicfjQVtbG37729/iwIEDGBwcFJ6NRCKZXqTISGYtLpdLCE1vb68QHYlEMv1IkZHMSvR6vQgGg2E0LpFIph+5Z0lmLb6vmOHrMfKajEQy/UiRkcxqNHHhIN9rJpFMP1JkJLMSFhQOfC1GejASycwhRUYyq9G8GIlEMjNIkZHMWjSBkSIjkcwcUmQksxopNBLJzCJFRjIrmExEfNOl0Egk048UGcmsYLI7x6QXI5HMLFJkJLMaX5GRtzBLJNOPFBmJhLg9vRlepvHLNZZG8qrE1SLKnDozEaNZV5fySVbhyGjrY8mjcN47exqdp4hvPQ/9eSn4lLi6gG+65KZDioxk1qJ5MbejwExkxMfQPDZtqpRU5vhzkppqcSVXLeNbVGtORMZaE7GrivtWmgCd16cFnnKMTZWaIr6vsTau05rkA0aKjGRW4ys0t5PYjC0JGWYfm+xrn9lkOwcHMNDaiOaGK6ivq6NQj7r6ejS2tqGjbxAunzdTj1XVzP8YSvrYJ4fRUrxuxZ/KaIRQC4+VZ49F81qUwCIz1pY61engpURtVnLz8r7+MiZ3Jc97Sz5otO2Qf0vmG9/4BlauXIlPfvKTiIiIgMlkUkvd4owaYwqjezhFrtr/vOg4cRBlh/Zhb2svupwuMu9k0N1GhCZnI33BYjywbgGiQ4Kg5zZ8jPrVrSgoaTxHgRTAS32JNGWWHRSKkNiMNqbkcx7LinLEq9anOWpBpIgCDDcgGlJKqKmSm5z31ZORAiO5GdC2Q55qb19m4Xkfj7dmHs0+i4gW1P3P0YPB1ks4vvM5vLzvMN6o7IPTLwRhEdGIioxAVHQgXH21KDm2A8+/tAd7z1SiedgNJzk13MLVe7HvqS21HyEKPqUoKgSDRUIkq3lXFeF2NK/FR2AoNoZoSORoQXLzI0+XSWYFk4mIJjja78ncNkIjjLFiisUS8XKKRXXD3lOPpsuHsfWNl7C1qBZFAenIXLYW6zZswsYNG7Fh0yrkJgdA11GCPW/sxI79Z3HmSjd6bS64tdUjmlbX6Wic3wPHUVUJRN/jLtjzOMSsGIwSF+vcA89oW5yhIGa5KAeR7ZMpuSWYEZHx3VFvm51Wckujicn47ZE9Gc67nbdTnThPxbDBH0DTpTM48eY+7KkLQei8TfjUZ57C3evXYOXypViyfDkWL92AzY88iac//DA2hjWj6dwR/Pa1YyhuG0CfSxMO5cWi2mrj+7/cHi9c5O7wT1k7XHzqjcvyumVhUfwUTlO8FUUwPG4SLpdTqeeiQGKvyJJSnj6uQkft8OLolVyCC4wrJLmpeF+vyUgkNxM1NTX45je/icWLF+MjH/kIYmJiYDab1dxbG2WnHtu1hVl3DsDddx57nn8L294qRFXOFty9eT2e2JSPBD89zAbNTyAxcAxgsLUMxdt/hheODOD0YA4+91efxfr5icgMcsHVdwXF56pRXtML/0X5CHD3wttRh8rGPoyM2GHwC0BY3hrMz0hGfkIo9NS9IgqExwVHbyPaG6twsrAG7b1DsPP9BToDrDEZiJ2Ti9XZ8YgIssBkoKUgVVFkyRcaKYsX/StSNj5fcrNg+CdCjUsks4qenh7x+/5xcXGYO3cugoKCxC9l3g6wWLDZVYwvf5IptvVgqGof9u29jCOlBizc8jQ2LsvGojgLDD7nNNhb0BstJLgGRAU2o7q0HiWF7QiduwSJsRFI8nfA0XYBh17ZgVdf2IdS/wB0tdejq6IQJ89eQmnxRVTXVKC4xwy/4DAkx0fDaiRjw0pDXou9rxnNJedQeOIIth87h4vFZeImjOqaalS39aJ1wIswvzAE+lkQGGBSPbExEeFlUSJaTErMzcyMny6TSG42fLdP39Not9N2q+3YfPJJWUIdHDYXOotb0drsQa85GpExwQgJ5rvptOUmY83eAc/Tv95ghSU0F0FhZlhM1ahtakBbdy88Ojfbd+ht/bC11uLCyUK0GFOR/qG/xd9/5z/xo+//P/z1p+6EX9UbOHvqMN6utaHPwSfB3LANt+NKwZ/w8ou78L+7RpB5z5fxlW/9F370Ywr/8y18do0/Yst+j9/95iB2n2jAkMdLtXg4Y9d2lJgS59Eqyye5WZlWkeGdlC+gulzkDjvoaGeCwOdrJwpcZ6LgdrsnDdzXREEzGJMFyexGExaeGo1GcdsynybT0m8HtK1cLJE64yWD7Ryi/VCnhyckCAEhJCLsYlCp0b2CKnhFoBS9EfrgaJjZwzM50dbTj94hG9y8H3lccFJht384ovKWITtvHhakpSInIwOZeYuQkzcfSyKHYB9oQkF1G4ZI4ODqxVBPDU6dr0WDOxJhSzZh2eK5WDQ3C5kZ2cjKyMey/FwszQiDva0A1Q1VKO0DbC72VNTvTAT+nJHjY8kMMK3XZOx2O4aHhzEwMCCEg5v23aE1JtqZJ8u/kbLMROWZ67V5u3G9ZfT9bmaa99LPex2jb31tU9fS6uvr8f3vfx8LFizAli1bEBoaKkRHY7K+OZ2FKSAg4KY9vcZLOiYdynLY2xtQ98p/4ZeHWrB3OBVf+H9fwab8BOQEKuUZLkkSIj7hGYHOUY3nf/kr/O7FQ+hf+lV8cssGfGZNBDxX9uGPP38brx7oRMw//geeWJONh+O09eVEX0spTvz6K3i1Lx9X5jyDn394PjL9G1BfdgL/+cMd6I1ejbR1W/DoPAuiA/iWZapL6uZtO4f6S4fwX38sQMCap7H26WfxSJIeEVZul8bECshoXV01csnNyLSKDO+0ZWVlKC4uxuDgoPAqpmokfMtNtc6NML7NmejjZmK6lk9rx3cz8W1bi0+UxvjGGZ4fn8Zoadeqy0xUTmOqbWjPxnR1dWH79u1ISEjAkiVLEBIS8g6R4TB+F7FarYiOjsaqVasQHByspt68sGiwEbe3NeLKiz/Ar/Y2Yc9AMj797a/grkXJyA9iIz9mrkWMjLnOPQzv4GU896tf4A+vH4Vz7Tfx8Yc34JnloXDXHcALP92JV/a3Ifyb/4oP3ZGHLckWtb4dvc3FOPzzr+GNjmw0pTyFn31qOebgMqrO78C//2IXmvUpCE5djNwII/xNNEL1uot3oBHdrTV4u6gFsZs+iTuf+gI+nWlBTIAimVd9myJBG/U7v2fJzcG0Xvjv7+8XF1N7e3vFjslHe1rgnfdagY8IJwpsEK4X2BD4xicL14PHPFmY7DSc72k633Ct03laGH/6TwuTnSbk9InCRKcbfU9FcpjoVKXvaczxgb1SbarFffPGB5vNJoJvfKJ5DiMjIxOG8XnsFY8Pk6X7hqGhodEwfp4DHwBxO319faioqBDbmZ+fn1hvWr4W2Cv3jXMdXiY+vZaWlibq3ewoWz4ZaccAHC3nUVjRgao2HbJIJOfEhiGePAkNNtl8e7Co5BoG+gpx9vhFXCweRMLKB7B07hzkRhrh6r2CojOVKKkdgHXNRsxNiURuGAk0G32dGyMDHag9uwflQ+EYDMrDA4sSEeppQVdjMY6dr0Cvxx8G/3AE6p1wO2n7stO24uBbnwG3MRgB0enIWbgM87IzkBVsgNXA+7CqK+KTIzxInqM8JUVyEzKtnkx3dzdaW1vR1tYmjJEvk3WjpfvmT5Q2nonKM5PFGW1+snRfrldmsraYa+UxE+VPFtcYn/Zu605XOxoTpU3GZGWv18aN9HEttHZ4ygc+LBhvvvmm8Er4lFlYWJg44BmPb/98cMCeTHx8PNatWydOsd3UaEMnK+weasNg0Qv43f8exxsnXFj4lb/FQxvzsTEzENpJPy6u0/GlddaYNtgr/oDf/PYUXj3qwYa/+n+4f20eVkQ7MHKFPJmfb8er+5sR/tf/iic35OHRFKsqAE70NJXi8C++jjfbM9CS9GH8+DMrhCdTw57Mr99GqyUb4VmrsSjGjECxypWzHl69CXpzAPxCYxBPIp6SloQkK2DmO9MI5XZmjVG5kSJzEzOtIqMdQfPUd4eeCaaj3ekc23S1dbO0M53r5r0yE2Nhg9bY2Igf/OAHyMzMxObNm4VwWCzaKR8F7lsYP58xsMfMIhUYGDihKN0M8GiF4R2NsEAOwTNwGXt/9yLeevU0LuV9DE88ugGfvjcHAXoSXi7oVQt7PRjuqEHl69/Gy8dtOGtbgM/99cexLC8eCcYB2Gv344WfbcdrJDKh3ySRWZ+Hx5L9qAU2/Hb0NBfhyE+/jrc6stGc8hH86NPLkOl3BfXFB/H9/9yK3vhNSN/0FD60yB/RpDKjIkERXt96gwUGqwUmixHsKyr5ailtiMqEZn0WUnLTIR/GlMxa6urq8O1vfxvZ2dl4+OGHkZKSIryU6+G7y0zlNOwHwcQ7NR38efpw5fA2nNi1C7+5DEQt2YCN992Dh/LjERNogVHUtKO1thilZ45j3xv70Bk4FxHLNuMjDy9GWmww/Jy9sNXuI5HZgVf2tSDsm/+GD7HIkCfDxl4HG3qbinDoZ+TJkMg0pjxNnsxyZIeNoKe+CDuefw5nGwMxELoEDz+xCYuyYpAUpoq7cxD24R40t7XDbo2BJYw8mUAvLAZaz6MLRfGrVjtnSJG5WZm2+wClVkluRTQvha953eg2fLMKDMMjU47wtZe08Dx5DPoIJOctwqq7VmBBeBc6K89h++6TuHCpFKXlFSgvL0NZRRHOnj6EI0ePoKAzHNa0hVh350IkR/ojwMBtsXfHy8/XQQ1kROjPq94hJvAKw8L5wiuhZI/OC68lEkHRuVi7ej4yAnoweHEnjp88i4ILxdRvOSo4lFxGaeF5nD5zDsU1zWgd0sHpUdvl74om7/yWtH4lNyMz7slw8zfzziiZvbAn853vfEdcwH/ggQeQnp4uLuRru8T47faW3JZ5WbQh86kwjjuHyFvoQGNzLS5sO4Kze0+jwuDCMGWJ6/Y6D4xBUYhMzsKau+/BgpwM8mAiEGTRw8iG3kaeTP0RvPbbfdh6uB2hX/s7bFmdjQeSLUIAdBhBf0sJjv3vP2JnZwZaEh/Dv35sMTJjgqB3u+AcaCNxO42SCyfw4pEqtHSPwENaKH4BwGOEkcQoPO0u3LN5Be7emIkwM2BUD4fFVzP+K5A25qZGni6TzFpYZL773e8KkeFrMhkZGVeJDKMZr8mE59bAdxfXlscJj2sIzYXFqLlYjCqbHcNk6UVJKmIJjkJEXCoWLMxDbFgwAk2KlRe1XTY4++pQcrEWFXVD8Fu+FtlJkcgM0W4fcME+2In6C4dRNRyKweBsbJwXh/BAi6iv87rh7m9Cd0sNjhZWob17GA4ne0iU6yWRMYcgLG4B8vISkZMZSsI2OmqurU45xp7NWFxyczLtIsPNyaMKya0AP9f1ve99D6mpqbjvvvvEDQDjb0n23Z5v1W1bMc3aa1kUIRBpSoaazygmmwOncJooo6EtujAZVJbWhZAGMU/TcauGk0WS1pHavlJM+VTeyixaEZ9cRuQIr4vL87i1s/pcm+M8pXJeiosy3JrSnuTmQ/v2pg3fnXCa9UsimXa07ZVvTZ5oe/Xdnjl+q2zTo6PkCI1ZTNgQK5GrTPJonAy7Yu4Vky8MPN/OzCKhVhWIW5ypDCXox60PFg1FGNR3po1+UDlqX3k3mkgUSXyK7Ko0mooW1VltNGO52ieVo4k2XsnNy7SLjC+34lGfZHahCQeLzFS4Vbbp0VGOCgSnjBs75/lC2VopDopx4M9x9TiN1wOvO7WwtlqUWS1RJAl8heNq1LI+MUVmOPCcZqKU+LgRi1TJzc20i8xkR3q+6bfK0aDk9mP8tqeJxlS2yVtru+WxauPVjvY5jC2DErt6mcaMtlZ+jKvzfGv65mj1WCq4BAW1oJiMFdWKXZ0mUBLU2qOMFZtQMiU3KdMuMpMd6fmm3ypHg5Lbj/HbofYqIhaQ64nIrbXd8liVMBbjD/oUEd+cybhWnpKryddEjLYv/icv906Uemrtq5g8R3KzMu0iI5HcSrDIMLeWlyKR3DpIkZHMajTvZKrXZCQSyY0hRUYyqxjvsUhPRiKZWaTISGYV46/J+HoyUmgkkulHioxkViM9GYlkZpEiI5m1sBejiYy8JiORzAxSZCSzGu10GXsy0puRSKYfKTKSWY32nIz0ZCSSmUGKjGTW4nu6THoxEsnMIEVGMqvxPV0mkUimHykyklmPdj1GCo1EMv1IkZHMWlhUXC7XaJBIJNOPFBnJrCUgIAArVqzA4sWLkZSUBJPJpOZIJJLpQv78smRWwZu7dh2GvZf+/n4xb7FYYLVaR28EkEgk04MUGcmsQxManrrdbhHnIAVGIpl+pMhIZiWa0EgkkplFHrpJZiWaJ6Mhj7UkkplBioxkVuErJr6ezHjRkUgk04M8XSaRSCSSGUN6MpJZjTzGkkhmFikyklmBr5j4xuXFf4lkZpGnyyQSiUQyY0hPRiKRSCQzhhQZiUQikcwYUmQkEolEMmNIkZFIJBLJjCFFRiKRSCQzhhQZiUQikcwYUmQkEolEMmNIkZFIJBLJjCFFRiKRSCQzhhQZiUQikcwYUmQkEolEMmNIkZFIJBLJjCFFRiKRSCQzhhQZyW3DVF4oPtkr/yUSycwgX/UvmTWM39Tlb8lIJDOP9GQktzRTPUbiciwqmrCMFxjfduRxl0QyfUhPRnLboAmJRCK5eZCejOS2Qh4zSSQ3F1JkJLcNmhejCY0UHInkg0eKjOS2wfd02bVOnUnxkUjeP+Q1GcktjdPpRFdXFwYHB8V8fHw8rFbrqMBcS2hsNhtqa2sRHByMmJgYGI3GSctLJJJ3h/RkJLc0DocD9fX1KCoqEoHFxuPxqLnXZmBgAAUFBaiqqhLtyOMtiWT6kSIjuaVhT6alpQXV1dUijIyMjJ4qm8gr4TwOLEQsMqdPn0ZlZSXsdvuUxUkikUwdKTKSWxoWDLfbLTwRDjciFFyvr68Pw8PD0ouRSGYIKTKSWxJNFNhbMRgM4noKT693TUXzcLTAoiQFRiKZOaTISG5JfMVEEwyGBWMqosHl9Xpl859qHYlEcuNIkZHc8tyowDCaMElxkUhmFikyklsaTSw03o1XIoVGIpk5pMhIbnnei1ciBUYimVmkyEhued6tJ6OVlUIjkcwcUmQktzx8AV/zZG70WRft7jIpNBLJzCBFRnJLo50qYzSxuBHBkAIjkcwsUmQktzyaJ8PcqGBIkZFIZhYpMpJbHl9vhpmqaGgCI4VGIpk5pMhIbhtYKG70mowUF4lkZpEiI7mlGe/FMDcqHFJoJJKZQ4qM5JbH95qM5EaYqriSh+h1w2Efgc3ugN3Fd+SpWR8AXvJWPS4XHA43XG4ai5r+wUDrxk3jcDjhcHrg9rxfo3m/l9pL652W0zYCO20DNhefYlazroMUGcktjyYw7JHciFfC9bT3l03lRZm++ePLjs6JdAo8HS3DU48y0ZImgqtoBUR8rLgyVVPURC1vDD5VqOz8bHq1/NFyo/XIMIqySphoWUbrUsQLMujOQTQ31KC+uRUt/XY4ybiPFdQiSp8iSTCWNhqnCce03kdRCo2hFB/Fd9bttGG4vwfNzf3o6XfQ6JS2RL5YFu6Tl5HivhUnRM3kiTogn+iE1UfnRcQF2+AAutt60N49jMERHo3vetCWn1AjvnmjicTomK9CWRZRcjRLW3vad6dmjEZ90kaZKM0n5Z1ZlKT2LPpwkZAOoqe2Bg31bajrdcDBizoRaltak1JkJLcsvINx0E6ZafPKjjc1NIGa6rUc3z4nhtJHu6cxqTEBV/EMwTHQiCslF1B07jTOnDmN02fO4mJZA6o72EtQa/g2QzGlJW6AAk9UOFULjJjquLwyx38KaimlAH9QVC8CLYyYfwe8nFTC1X4FbWf24vWX38D2oxdxuZU8GjpqF4iq/KG0weWpe7U7SuOgzVIQJSmiLA+HiRAFlCDQylKgMdna61B77iT++FIhTlxsh51yxr69sT7F52g7E/clUr1cm2JKNR94WZR6E9fmen2oKyvGwe1HsO3QFZTVD4qyWrfK+qegtnM1o4Mj1HKirM/sKDRDRZUkrsOmmzx4kahmiIn2jfOnEnsHPlm+38NoaR4r/Yu2BTx1wznUgZYzB3H0zR144/WjqOwcwIBbKXEVWjWVW0JkbsRoTDcfZN+SqaGJDHOj39eNeDJaH5MLjArni6DMClNNbbvtA+jvrEN95XmcPXUMx44cwdHDR3CYQ8F5FJTUoqltAEMjzlGjOVFPqklU8sSY1aAaV4ZjisHn3vn4mP6E9ad0miglfVpXskQ5RjE+ZEE8dvTVlqLi8F4cOHoBhZWt6Bp2w8WDoOpcShuPwHcdqtGxvijwhMdEeUq6yugMV9KCiu8yUnD0NKHl8nm8sbUY5y53CpHhHK0JpaZmIrV670QrJ0rQgDzq+mFEqjrrkzyKSNK5aDqAhupynNhTgL0nGlDVNMQZnKtC4/BdJ6O8M41rKaPxYaK+xffs04dahide2u7GcpQM5VNdTnVOMBrlbUP7Fn3yCdGW+KD1Qx7kSGc9qk8dx8nt+3CmogPN/Ve7M1pt31ZuCZG57k49g3yQfUuuDX83LBKaULAh14I2fy20+lP9jrk937K+7QtDxIGyNYHgeS7NwWu3w15fijN7duEPf3gF209dwpnSalRV1aC6qhxnjm/Frjd/jbf2XERxbQ/YfI32JI5UOSizWro2HjYfwoSIDP7QgnK0y4FLCfOjZilzqrGnIIwszYteuR/uz0MiY2tEUWkVDl8eQtZdH8PDm+/GQ7lhCPEzUCEFxXwptbm6hpe6VoRtbFlEGT0PQBmBKn8iRwlckj0stayAxq80JuasVitCQoIQFGCB2ch56hjE96GsC2VMvm1QXS3K+MZ13DZtR2qaUp9Gxt3x9638K3Uo+LbPYzMZjDQmE6wWA4wGsZa1ohSnktS+MnQlVQi/VkAE+lA6oz+trIrY3pQeleUUswRXJDjOXzFNtaiIcSOiCNfUUGMsKBwVs/zB24dSU8tgwb3qe/Fa4BeRhvyPPosH71mAjdZG7N/diHNF/eI71IqpPaitKNDy+uwpEsktBv+mf2FhIc6fP4/u7m5s2bIFc+bMQXBwsFpicmpqavDNb34TixcvxtNPP43Y2FiYzWY192rGC8w74d1Iydd2KJ4Tqe5hDHbUoGj/S9hd1IdLfaFYviwbCSEBCGL7Rn8DHUVobaxAeXsCctbfgzs2r8e8IAMCnD0YHOhFcYcBoX4eBOsHUFhcjf4BB3TGQIREZSIjLQYpicGqrVHMnw4OdJaWoqGkHHVOD2x6P1iCo5CUMw/JUYGIDqBCjGbR1IlmlHWU7rX1kjC+jVf2FGN/qQdrnngGa+amIi/aqpR3DcE20I76KuqHPLCOAWFuyGbHIDgsGfNXJiIi2AIrpfJ4ulp70Nk+CKc1AEZ7F9x9zahq68eIR4eA0HDkLFqKmFASD6MYAtXRwT0yjJHaclQ3NqOmq49a0WGkpRJN1S3YWrwAWz66Gp//3HwEUx9GMfTxy6Og89ARt6OH6lWjpvoK2ofJI0IEAkMTaZxpiAq2wl9YcTf6OrrQ1dGHAV0QLO5u6IZbUNXYgyEnCVxwODIWLkN8RBBCzQ5quR2HXj6Mt98qQ2PiBjxyXx4eXRWMnrpC9Bsj4AlJQVKoBRYSQ2U0TvQ3daC3pRfD/mEIjw5BVIQ/6a46YEJ1EilQef4edDYMDXai9MJltHX2Y5C61ZmsiMvIRUpmJuIsgJma9ziGMNhWjm5XIIZ1/ghzVqChqQe1rXTIYghAaHIG4tPSkBFmgB+LM/fCQxpuQ29HHQouN6J30A6dwUyCEoe09BSkp8TDIlaiMj4deW+d5w+giLzv354PwsK71uHRx1Yh2R8ktj7rW50yhn8i1LjkJuX6Bm72wj+53N7eLn7nn39GOScnB2FhYbBYaM+bBO24qre3FwcOHEBcXBzy8/MRFBQkfl1zPFNb/2O71/iSnpFW9DQWYv/Ol3FxIBruzAfxzOMbsG75AszPzUFubi6yor0I8zThxPHzaDJEwBY7FzmhRgTa69HdWIzXT9aivZuWsb8Rhw8exaXCy6isakB9hxumwCBExUbASkPX8xGocwQjZDSqjp3Amd0HcbKiEiVVdagjwzZgDYXV34ow8gJM5FHoKLDOiCNrQthZcaTrJQ3pIoOyHefb3GgKmYs7185HWnQQ/I2KkMHWhaFW8s4Ob8PJs5dw6lItqiurUFHWjsYWG/znRCIwyA/BJvISMIj6kgpcOnUZlxpJkBor0VFbiBNnC1F0+TKuNLXAG56FwMBAhAcYxLG1Z2QIQ831qD1+EAWnz+LohSKUUvulZRWoqutBlzMN85ek0kFCDAkZH4sr4/Jd/2LZPE54SDB7WotxoeAEjh46jgvknZWVdaCl2QFzdDj8A6wIohWoJ4PeUlmOkjPkaVb2o7OlCr1Nl3D85AVcKrpE42yCIziDlisIEUHc5xDqiutRVdaJ/pA0ZGdEITPKgdZzr6O4aQjVI1FIjPKHn5na9pIIe3pQd7EIl09eRq3Nn0SLBD8qQD1AGNuKlBhtd14nfedtqK8txt49B3Du/CWUlFaisvYK+j1m6ANjEErfpYW/k5FudFzehaLqZlyq74On6zQKL17CkZMlKC+vQcugASPmcMRHBsKPvC4DCarOOUSCV4rKywXYefAMLl4qRmVNNRpbu6E3+yE0PAIWswUG3lZ4XdJILXTwYwhwo/rsIbhIdJEyD0kBOljVgwMN7XuYdpGRBnH6ketzcpxOJzo6OtDa2oqRkRFhsK8lMr7bJ4vMwYMHhQczd+7cUZEZvw1Paf0La6aU4zu3OMZyw2bP3lGJttJzOHu0AZHzVmP9Y5uxOMYfIeqpHsboFwyDXxQMPa1o6Q1FfVcEVmcHI9zTgI6qk3j+hVdx9EovKrzRyE2MRUYsHUlbh3Cl5hQ69FYMh2YiJdgIP5MLts56lP3xtyit7kV7WA5SctIwJ9aIYGM7LtcUocdphC4kGVGBBli00zs0djF85YMCHT13t+LSjpNo7g1DQGw+VsxPRmSwGSbK5lru/g70tdSguKwU9qBYRGYvRtacJESiAa6eszg1RJ6Afwgy4kLIoA2TcT2Ggr3b8MqBKvTBhOiMDCTExiFK3wt3ZwOOXw6HJTAYGVmhYH9ysPQsag++jV1Ha9HlH4HYhflIo/bjgsywevVo7k9C7rxELF0SDQuNRz0LpwiNUEtlSTDSTkJdiJ1vv46CZjoSD8lHXmYq0kKdsIw04ciZYThM/ojNiCBvxoa2khM4f2gX/rSzCB1uE0LSMmmcsYi19EPX24hjFwOEsKflhsCPxfPyFVRVdKMvdA5yMuj7iXFipOJtHCwYxMFLfshdFI+wEBIC8vzQfRbHSTR3nS3BSNx8xCfGYE6knzg4YHi8ynbDU3Kd3B24cOQkdr91CqUjoYiIT8H8zHjEBtswXN2I+vP18KZmwC8oEAGOTnRefBP79xzDjkPFsIenISiSljM2nL6TTvTWtqChohOh2VkIDqHtz9sPb/tp7D9ThrcK+xGakIo5c1KQHEmi116Mrmby/DqAyNRYIcJmFj0emV4PN4nfSO9FNPvHosGcgYXRZgRbWOa1ZRhjWkVmaGhI7PB8GqK+vh6NjY1oIuVvbm4WUy3w/PjAR6K+cd/ABmSiNC20tbW9Y3584KPd8fO+gcc9ft43dHZ2vmN+fOjqoiM/n/j4wKdzxs+PDz09Pe+Y1wIbRd95Lc039PX1TZjmG/r7+6+Kjw8DAwPvmB8f+DSVb9w38HYwUZpvYK9j/Pz4wKLhGx8f2Ivhuryd8fbGY0lKSoK/P/nuhM1muyrY+boIBY67XC6x/lhkwsPDkZaWJoTJ7XaLdrXAIuY7r6XxjQJXXc/hiSoYrBwiVVg7LwabS9FcchFnLw0iYu4SLFi/DAlmOiLU9kYKOr0RHpcbQ/UVKG3UoaHPjzydBEQY2tHbWoUd52hvj85G9qKV2JSfjpzUGESQ4eqtb0CnPQoD+mQsTg1CsLMZXfVFeON0A2zRmchZuRpzs1ORmhKO0CA9usuqMDLkD6eBjFtCAPytJuEB+CLm3PTd9zbj8Ol69PglIjJzLhakRyDUj8srpXR8zUZnhIEEID4tn8QhDxnJCUiOcCHQMITSCxZEhEcjbW4M/EhkmkpKUVZYh0pbPBne+diwfhHSkxORGOqFv8eGotNORCRFIm1RLHlwbagqOkfeUQXqA3OQunABVi6bS+VTEGv1wEDfYWFTODLyE7BkiebJ0AoX61wMkCY848Vw+xXq+zIOHWmALpo8x/V3YFlGMtKTghBidaDucCEMJG4BJHoxfg501ZSj4nItLnVGInPBPKzfSOLJyxVtQIDeieLjwwiJj0LSoiSE6mn7K21AVXkX+oNTSGQiMTfVSqLaiyvFbWgubkHcsvnkEQQjyNmP3uLD5IXWo67HD9nr1pIoRyM2wMRrc3TcSoRG7xiAm0Tg2IViHKkdRvKiO7B4QS4W59BY4kPg7utCG9nLprAsErFgJFnIKynbi5KmYbQgEUvW3Yl88uzzkmOQGO5Ff18zGrvaoMtahciwAEQ6u1C3+yhtb170hWRg9ZI85GXMQUpMOGLogKStvxvlPYMImJOP4ADyMMWZZBoXebpO1wgG2slztUWg1ROLO2jbC/O5TufLtF6TYQNfXV2N0tJSsfP7HhGOPzKc7OhwovLMZPNTKX8jZZh3W15juupraPM8vVbZ8XmMb11f3m26xvhy1yp/I/GJtpnxUw2TySSMfkUFGWba5lhQ16xZg+TkZOGV+N4xxnW1+pzO1174YOAnP/kJUlNTceeddyImJmbSazK+GI1GcVonJSXlao9JsWnw6jWRURLaLu7A5f3b8OKufuQ88TjuefZDyCBLbaVCyjUQNjFODHU2oXj7C3j+qA2X7On4zj8/gAUBFWi9fAR/9UoHouetxX2b78LGxACEWobR01yDPb99GYebYzAQtwr/9Lk8pDhOobLwAP5mvweZOYuwZe0iRJnoaFI/gN62Wpz841bUu9NhnbsJzzw9H8kx5G3QCBThEMNnM0IuIh0QNpTjR89fgCciG/lLV+DB/HBEBCjnRLgcKbI4NWcf7sfgsB1DNhdcfEpoqBStZSX4/Y/syHl0AzZ/9Q6km+iI/M192PPmeZw1LsFDDy/Hxx7OEusAXZdQf7YA//nPlUii8nf/+Trk9Bdiz57D2HG6CSHLP4n7lmbhLvLseHT9pcdw8cgpfOuNUNz52BJ88dkFCKEcMTIa2NgdVrx23ei4fAKXjx3HH/c7Me/B9bj/4xuQTN6mVUcHfVWF2PpX30VH1n0If/Jz2JLrROOxA9i//TTe7sjFA1tW4JMfykcQNagfLkND4Rn88BsXEHnfRqz96r1YHNiGs68dxdtbKS/hDnFN5kMbIgBXHQ7/7A84vPUczF/8Hu5YmY2FllZUvPpTHCu244o5F498+QnkpEQjim2zsuIFYkLzrqFmDBf/Fr8/1YbdbfH42FOfxsr0GKQGOEjge3Fx7w4cOngWBUFb8MCG+Xgsx4767f+It2tMKLGswkeffAT5JNoRhkFy2y9i69uvYvvZSpg3/RceWJSA1d5qHP3n36DUEoeRpStx1+JoRASST2jrg7v+IN46X4TD7QasfeIfcHdeKpZHKSf1yDfHUH8Lyo/uwvbKQFTpc/GPT+chPcp/9OYJbVmYaRWZ8vJyXLpEGwwdVfLRHh/p+TY/Pj5R11ra+LzxdTUmK89M1sZE6WyAfNMnizOTzU+1HDNRfLLy49OZicpeq9xE5X2Z6vyNpjPvpg5zvXL8nbHnwR4JCwZ7N4mJiUJgWCzG1/ed8rbJHhLfNMA3CXA99oDGb7ManMbixIHLZ2Vl4TOf+Yy4niPK006l1VJ2NEoQaU60X9iJy/u24eVdA8h64jHc/XlFZPzVPZHv5NHBheHOZlze9jz+eIxFJg3/9i8PYoF/FVqLT+AbW0eQuWg1Hr/vDiwIN8HPPIie1lrs+82bONQYgYHoxfjnL+Qjuu8tXDr8f/jbVzrRN+KPqOAQGPk5EL0bbvLeBluGEZ1/Fxbc/SieeSQPyZF+4tTUVfDyOPgsRBn+++VL8EbkYsGSFXggJwQR/j4i4yLPbqAD7VVHcOTQKRw5WY4Wm56OcgfhGHKhsSYFdz/7FD789QfIGLejcOsh7NlegpKQ1Xh4cz6evjtJfIeermI0nCvAz/6tBLFbNmL9F1Yjt3U33jpyBtsq7Jh311dxZ+4crIilvr30fRcfxbnDBfj2W2G49/Fl+NLnFyKQRsQeGd+wIE6V8elLMUob6i4dw+kzF/Gnhgzct3Y+PnlXunrKz4mR9nIUv/w3OG1Yg+6sT+KzS41oPXEUB3ZewIHhxdjy0AJ86pF08kyorcEKNBWexc/+7gxC796EFV/ejMVBzTgtRKYcTeLCfy6JTCz1bEf52z/B8T1b8VbQ17Dlzkw8ktaLbT/4P1weTocu72584ak8JMUEwCi+f2Vb4HWvxW29DWg++kMcb/CixrQAmx94EBkxEQgzkrhjBI2nC1B06BL2l6Zizf3zcM9GI5q2/z/sawtHZcgmfOahDUiPCYG/l0XmErYdIJEprIJ51X/i/nkRWOa+hNe/+d84WNuBcpMfwgNNMBmob48LeucAOo1h0CXNxxOf+jPcNTcJC8LYW2ScsPe1o+H4Yew75kJ1Xzw++zfLkZoULA5YRhdFjU6ryPBpJvZm+LQF74zakeP4LrT5ybqerLwvvmlTKc9cq47GjZbReDf1rlfnWvnXK+/LtdrReDftX6/d99qmhm/a+Hz2ZPj0KXvQ7MnwnWJRUVGjp8yuVZeFaevWrUIoFi1aJE6bsZfiy/j6vF3zLbTs9axevRohIXwMrZThTw5iRxTXaLiOBz2l+1BxZCdefqMOiQ89gTs++1HkkWUPYMMl4P2EPZkGnH/993j5ghkVuvn47t/egbkWOkKmI/FvbLcha/FqfGjzWswNMQqR6Wq9ggO/2YrDLDIxi/BPz+YhqvtVFB5/AX9zIgqxEalYmxZHO7lyy6owEU4TwhOzkJiVh/lZkQgh0TCMmgNtSWjO3oDGRhKZ14pGRebBLBYZLs3XnDwYIE+ntuQ8tp8qQa/bAnMgGUCzFyb0YKCtAwVvDiHvww/jnq88gGUh7bi09SiJTClKQ9fgkc15+MjdidQOyWtnMerPF+CX3yGReWQj7nh2JXIb38LO0+TNNOix9L6vY3VaIuaFKGPsIU/m/NFT+JfXQ3HvYyQyzy4UnoY4WSMWRVseWm6vDbWFx1BwphAvteXjoTV5+PTGFC4pGOmsQM1bX8Nxz0o0p3wCz640o+34CRzccQmHbEtJZObhk4+kKt8piUwzeTI/+/sChLDI/Nn9JDKtOPPaEXF3WUPSBmwRnkw8Ffai49LruHB0J75/MhVLFsfgzrnACRIkV9I6JK9/FFsWhSBSu5VORRm6spy2nno0HvwBCloMaAhYgs333485keEIpqMYL4ln8/kzKD5yCXvOxmDVA/Nx990WtGz7R+zviEBl2J349IPkQUaTyHhIZLovYevh17D9UjWMK79PXmkYlrou4cW//CXKvYGw5eYgi1xePzMfZPEYaAn8qG5kIvKXLEUatcM3FSoi4xIi03TiEA4ccqKqJw4f//sVmJMSAj9t1RNadNpvYebmNHG5VbhVx8zcauOeDny/L/ZG2IMuKCgQYvPwww8jIyNDNf7Xpra2Ft/+9rfFzQJ86zNfz2EB8WX8tnG9bcVnHxMzPD/ScBpXzu3By88fh2nlw8j70CewLs5KBpnMvvge2fj3orupHAde+iMOtqWiO3oD/vlT2chAIWouH8dfbiNPhkTmyc3rkB9mhL9pCN3kyRz49TYcaYpEf+wifOvZXMT2bsPlczvwN2WLsHH1BnzpnsUIMeroaFmMCDo3CyUbKVoOk0ExAkqOGKs2fp29EY0NZfjhK5fgiczG/CUr8VB2GCIC+MqHiwyHAw1nduPY3j34wQk9Ft79ID769GYsDQeC3JVoKj6PX/3lCQTeuQGLv3S/EJmibcewZyuJTMgqPHJ/Pj56D3ky3BqJTN350/gleTLxJDLrSGSym7Zj3+mLONAILLr361iRloDcEBqdzoDOosM4d+gE/m17NHkyS/Glzy0En0gTIuO78klk+EblxsLjOFdwDn+qSMSmjYvx0QdyyYvkte7AQEsZCn/7VygMXIvBhZ/Cx5fq0XLsJA5tL8KhkSV4hETmE1sUkdEPVqL5UgF++nenEXrPJiz/M/JkyEM79+oR7H6rFHXJ67Dl3rkkMgliHI7WS6g8fxTf+/lReAINiEsLQ0+7C/M23k+ex0PIDfIiQNx4wWtBuVmEK9I3I2LOvka0H/8h9lY7UKKbi0cfeRw5sZEIN/JBwzBqTx7G+cO0jurzsP7e+di8xoiWrd/CvvYwEpmN+MRD65ARHYpA9mS6CrHt0OvYdplF5j/wIHkyy53FeP2vfovulGWI2fIYHlocQaJnEcdH1AN9uKFj711nFHchihsrON3rhI1Epu7kXuwp0KFyMAVf+PpipCUEQ+w96kakbUuKME0jt6LRu1XHfCuOezoYv9xs+Dlop7M4TAVtHXJdPu02EeP7mmyd8w7FH74PToudjIpbw2MQkpqO0IQhlF6pwGs7i1DfN0zHolSG+6fDV1tnGVqL9+DQhToMh/hhwZ2pCKIdnk06mx0+FcQ3AtPeTuXFiSESKGpc1Oe+xAjgF5qEkLBsBFbXoaGqESc6yUNyUjEeG19DGRrCSG8f+nr64XS5FdMmTi2Ng/rgXvyHHDAOOOEedsMtBJHb4t5G0O1woQ1hCM3fhHnZWUJg+JKNo7sd/XXlaBvqxwD1QVaK6ii3F2jLw23QiufWxMhFTERoXm+Czj+SvFQj+loG0NroQH8fZXID5Jn0N7ehpbgeTjsvGCVyuhqU9cCBYfNmRJDFhBidEwEVZ9DRXIsyFwm/6LsdI/3VOHGQbHB9MBLCQ2E0UN80BsUwkkiJQSnNc7u83nXi4U3ujFPVcanrSywN1eFapogExNABz52p1bBVHcRrr59FpWc+LOEZSCNVtPKpKaUGwWvmanNsNJsQkRCPPlrP50uuoLTZgY5h7tZBq64HHS3VqKqtQHdWGFwJNHaq46K+ldOv1KoYGreu9MBzyt3pnOcPsykIqTGNcPQUoehcCdpHRmCjISmjIk/KbkPXQB86h1wYcfB3xi0pf26vG30e+m6iDGjPCIfJbBw77cqVxybjlkoiuQXxNfwsGFPFV2RYmG6k7oRoeychWqI4T/XWcITE5GLR4lVI8Xdh8PJe7N+zG9t37cGePXuwe88ubN17GPvO1cMRuhz5mfnYmBFExpGOzelo0uOyY5jvjHO6xBuIFbtHuzrFXfxWZBsFB4sAdRiSiNCkfKyNo3LV57Hnj69hz463qZ+92PX2Xry2dR8OnC5FedsQhh18pE9/PE5qk40Pe1ZiEQx+sBoDkUbGLIiOqPvbWqi8E06lIAUT/P0CEe5vQXBPJVrI2zp8YB/27D2Boycu4lJZNep7SMzIQHpUY+ym8dtsdjJeNG4ydiywAjJYHhcvB9/95yQ/icxVSBZSYnORHxSKzvPHcGr/TuzccwD79hTgTEEZamtaSXhG4HTy9QmxQlTG4krMAL+waESnJSIzdQD9LefJ69iJ3W/Ten9rPw7sK0WV30JYkrKRHmuCn4mv8zlpHDaM8FhooOooCX7Lsgv2ERsJoJOWS6w9KuPECN/BaOe3QisluY6OjLhfaDxyspMQHRZIq82EhHm5iEuORzBZXvYjRTk18Ii10Sv1A2BKWILk2DSk0CFJ4bFD2Pc2jX33HuzavgNni1rQ543D/OxYpMRx+7QenXzXJa1jJ2/P2jrgTxeN005iQctF69pFom+hdZu2YT6iouzoL9mLHbQ9vrH9bVo3u7B3x+t4e+8hHDxTjbpeGwbdmhjSyKgft2MAw711MPk5EJHCz9IYJxUTKTKSWx5fsdDCVOEL/cxUvZ/JUIwE7X+8D/LuqCUwxiAEhKZj4ZLNWJkRh3RPOYpPHsFBMvz79yph3+kqXOgIRMrCe7Aqfz6Wh5sQyOe4yJjrjH4I8LOKB/r4IrFenMygZdbT0aPVSnlmBFqVUxregBgEJubhzmVJSHa0oo4E7Oi+Pdi7bz927z+EHQdP43RFM5pHvHC6aZxiVYnDW46oUFzvD6slGLkhQwiyN6O9pR69Iw7YRBU2jlZEhMUgPT4SqY4KtJccxa59B7Bn3wmcudyA+n4qFUht0NhMtIp1OgMMZjOsAbQsJEwmfjxcg/NMZvgF+cFMwqrjZQ6cg4y0RVidmQFDSyFKC/ZhNwvx/ksoq+uFzeyPwEALrLROxlBGxuuGl4YD+yTm0FhEZOVg4eoY+LmaUEwCf3gvCeLOczh5pgf6RWuRuCgX6ZEGElad8CDMARYap1E85Dj23bIy0DIEkgBbTerNA9pyUXk/I0ziyX7KEKvTDKMlAjFz5iE2IQcJ0YlYuDgFyYmhMCmllHIiqOJOn1p/OqM/9JELkJuxAOvIkPeQJ3bm8F7s3XsQe/ccR3UneY7JS7A2MwYZkRbemGGwBMJi9Ye/hfpmT4n+3bxv0Do2mv3g7x9I2xFtkjRME4lMwro7kZkfhyhXFQqOHSEB24d9e/dg3+4dOHL8LP5/e+8BGMd13/l/0XvvhQAIEuydYhGrJVEU1YtlWbZkOY4S27Lj+Hy2c5dL/rGT3J0Tx3acOyfutny2LKuSVqFEUiIpUuy9kyABkmgECaJ3YLH7/33fm7c7WAMUKWFJwXkfYHZenzdvd3/feWVmD5y8JO+7CJSqkKqWWlHY33kZDbX1SIwYwKSiNHkfBs8tubF3/FtGJRQSCovH41H3E/FeGd73w1VfGRkZiIuLc1IOD9Nv27ZNTfhzHod7Lot+34ix4PfQXKDT57/+ixBjlJqF3DFZmFCchmjpgfDazxcuRliOmV46H5MW3o07F5eirDABMbTMxgBFJotOFWLKuBKU5kmviHM5Kjpc9vFIKyzC2HH5mFKaoo1LdJL0ZiYiTwx6YXg3PLFigOQY0QkJSC4sxYSZUzBlcgnyEsWI8k5u1lpEhu3JyqsHMIpRCkcvEnwiiB39ONgWi3GTypCRmICkSDHsvggpT3pbWVnITwfiROR6+3hzpwjlRCn/piWYWjQOM+ZORFFJpjP/FInE1AyMKSuWc0lHXoae/1LDN9JzikrIxtiZ41BYnIkkaS/eYBiflY7o6F5EikX3+GLlinksJt40FXNX3YSC4nGYPSMPxQWJYrSd89Aqr85DXKrssPAoRMalIie/EGlcft7bJgY5Rg5ZgsySOVj1wGzMnZSDLDGUkZLP6w1HfEoa8saWYOrELORlxUlZzpsh+aJislE8czwKx2YiVZoiQs4rJT0DRRPHYlKpiEqqWmPFg8MrPYeOi7U4fiYCjV15uPe+BZiQJxcdnOBgElVJ5VIeOtkcKlx87P0kpSYjs1B6CwPdiI1gW4mopeSjbOEizLtjMSbnpSI1hnLnRbgIdGz2BBG1cRgvFwCJMSKGLEfeTUQmIC2tCOOLZ6IsMxGZCdGIiM1Fdl4+SkqzpVfsRbQIaWSUtHNMunxWJ2Hi5CmYOz4LWfJZUdc8UitPWzUunDmJl1+rR2rBFCxbMgP5ceHqYmIo5D3gKVksoxMuWz59+jS2b9+O6upq3HPPPX6heS+41P5b3/qWetbZqlWrUFZWdlXi9N6osSD9jdQWT23s4YR52tDT3ojzZ+vRIsa7h8MQYoyiUwuQIle6pVlyRe/+tvZ3ore7HTUtPsTEJyA1hY914VWvF57+PrQ3tqG9LxLeqDjkizFU4qSOCXTWVqGp6jxq+7zolSBfhMhafDoycnOQk52BVLn4jHTSEv/wlYOvrxWe+q1Y8/pevLW/HZPveRzLZpdhblGic1qsQxc6LlXhQkMrLrbI9a4IQQYnpzNT4GvqQVRyAuIyk6RX5kFXawdaW7rRK0KUmhKL9GS5pGa9BnrQ19WJy3U9iExNRAJXREldwnnTX28HLtaeR0NjO1o75ZDhItR5CUiXdmpsAFJS45HF+zPYtqwS253ITlVRWWwGeNVxmupq5Aq8Dk294ehHivRKMkQ8s5EiBjdKNYUXXbwJuVXOa0DaOzVOemx8noDAenZLPWu6EZGchLicZHVzZldzO9p4XjFJSEuOQ1qiMzvh60Fn41kcf+PXWH8yFecibsKXP3cTxhc4S30FVa5TZYOqhqCClYfDce2orTyPJmnDrj4JlPc7szAfOQV5SGcPRhJ7B3rR13IB7f0R6JHec4Z8VmKlx6h6vp5utLY3S6+kG4gvlPONlYsVto8UL5/J7o7LOHXmItq7+kXMKUki8nJRlJqVgzFZUk40Z5zYg+5C3bsbcGDjdvyuphSL77gZH3tgFlKoYUHnYbAiYxnVUGTOnDmjROb8+fNKZCZOnHjVIvNP//RP6qbKO+64Q4mTWfr8ftBfJDF2/q+U860Tg8kQ/SUljogEJdOJdErj1a+cF2AYy+GeIsY4caurX51S53O7XahgeZFglkYva6FSsb6OKOodY+nxwOu5hL0vvoR3X38XZ8auwqLlC3DHwjKkx0nPjB0aVQI3DV3MbcpXDtZXJdH116l1qoBfXp3DKvxutpmOU2lNvEInMiURNp9O406o40w5g6JU+QbGO60pTvVW0Mf0TvsonOJUUczi+NX9OdqlIn29F9FQdRDrfvULnEm6BTFzH8dnFsQhj09F1bn1Zsp1MDEKlqOLc7WnDiNqebrzeVKtqU5elzCoHMHJ6t8zLnCOsvHc/Q2s3xtGM4RC5e3vQGdDBfY89wq2v30Ctbd+BStvmYL7Zyc5NRiaK8VZLKMC9+NdeM10LddNZk7mg15r6dz8WjpGUX21xMcvrkQyRKdx6kmfsojaPOo4wVgUB5pgNdTh9zELz1fC5JyVGVB5ZOOheTyVirAgx4iqjBIilWEdeeXv/GvD4mQxOVVMWATCIrMwac503HzLeFw89DLeePttvHiwCY3dnOHW9WEZxG9jBb/QMgHr6pyDrq/fJTjpnB3RbWPcgfPRbatOUvl1HN1m9Z2k8xtZHaNRlfA7Vaw/0gmXPcPYjAzijj1M5TcBRBetkTDlNNEqTp8X8/U01qLu5Am8fjgOXTFpWDAnDokJJrF+/3Sj6QKNyymBQa69A/Oq/ETixO2vs5THpRwqQEfpNLKZdlIfOXGZTTt0Sv9e0J871pJty7xd6BKB2fvjH2PtjvPYnXUTVi7Px01l5pbi4TGfXotlVMIvVrDAXItgmPwfVGRoGPTXUi7vWR9loCTMfAOHLJ9h2lQGvqg6jGhjIxgrMiSu8D9IFhwgblUhZ1NRzvFMMFFGygkIi0RiXhnG3Xw77rt7JW69aSJKM/k7Lpxw1xl0Sne9+eKvvSIQK+hsAs2PE6MLUeidDlfGTpyqhdx19xdGn1OGcgdwu015BvWkaeVnKtbDSe28TzpG/w2C3kFBzntnXpw47vhMt4zi6Vhxz31YPm86JqZGIFbNxQTSEVMzHeNcFIhL10Sfv9tQ63DzmdGvgTJcZauEulTjMrjdGjmCLlgjbl4o6PPnFqHntaYuxPyVK3HXfcsxc2w6MhP4ObgydrjMMqrhwy55U+XWrVvV/q677lKP++dd/+8F53C+853voKCgQD27jPkSEswPrVwj6mvkfHVlp68d1dS8Y7f4reW/TsM4J7WDE+7zigGkm5vkUXnFTUujQrTRUW4GqzAGMEabIvqc3Ardq9CJTRgxxlnH6utVYsrXiNGTfFx919vVgQHemBcVp8b61W0eTm61V/n0cYi/PNloOnk8HeUkUHAJMv2qH6KR+vIhjP4fKnMi/E6nYFXzQLRGiSMTBCL0GbrT0aVr5A5VOG2ljuUcR+Ekc0r2w7KVX0XQRQc3qbu3HwMDHnT3hOsVazHyaWD5jgDrcgK1M+8H8xoX0+h6yItLuAfXIUAgXMplFoa4EwtMr4LEoZpL4DFMOfo0nFT+vJzT6oensx994VHwRnPuUKRHJXYlGwK3QFosow5eIwX3ZK4Fk/eDLmFW3zKzqR3NNgVG6sNvsIRz1RZrp7++TmJ+y9UmdWAyNbTEOJ1eoayMdvvNjHhViBqTd8IUNHrGz71sPEdTFDcG+bPomgbwRziJ1QvCwiMQHZ+E+Lh4xEdyWlgTOJpOp3YCw/wliUOflU7jr7F6YUyQGVLHND1CSaazqdwKJ0y/dTx+YNOFOinplIPpxQCuzX9ck04CVJigGseZtXKiVSTjnSA6A7A8vfG8zLmpLTwS4ZHOUugop5V1pTWuMnUoj6rbQodRgORPFa99zOAqQYWZ/DrcHF1a22k/hROsnixgkjg7vcmr88HQn9lAXh0vFwHh0dI747L0GHU/kV4hPbg+QxH07losowt+kcxmuBahGak5GTf+ksyXVX0R2UPRwWSoo5nfFFEop2NgVABxCnCVw0LNn04Z+Nq7Q3UZgZIC7kBhfhcdQR7+hYvQ+Oe//PFDw2hlxs1h/IcOGEX1ogRgMO5aMo3bKJKAU2olHrU5IXp+yZX4D4vXYa4kJlFAa+h3wmTnn7PSQYNQQa445fSfk9RPLhrCImig6Tcy4cakHRxKXMUqtN8dMhz8DEiJQUW6quXfAk6+arR7iFrysyYXGPIxcATGH3NFrMhYRj3BE/9XC/OMrMgMXYb50mrzr7dBMDrYkgqBdO4vMkP1H/Gb7CGMtcaEmxyCSk5fcB5dmrt8BZ2OV+1c2ej0e8Xhz2XyDEqgY/1ehT6mxmTSabQvEPYHuIPl/RtUrnhUNANlGxRHGODk10KiXG7PEDBD0HEMEqjmMFReecclaUDr/jCHem91UvMyGJXXJOAxGaDT+YsVAoKgQ01KDV1O/0plpV/Hm00dgQ7j5qtKOwQqnc7pro8OHx4rMpZRiRGF99uDMZj8H/yxMixHl+WvEa/8tEM2M1Gut0AaZ68crq+jSibiqf4Go8N06KDswWEO9LvzkMFDZAZ3SlcpOtjsrog/PjixcgcHCk77B14DR/b7mMYECjrc5VCbCtHh5lXvhseJ505tfL+GO5ZisC8Yf1735kcHBIIHRQpBoY6DO3cuEnAZAvHGpTbVAHyf9XvNcvRfII3C7/GHCAG3O93gEhxczqGwImMZlRhxIKYnQ5Ew29ViyjFzMh9MaK7Ee3wTLZY/UqzIWEY97iGva+2RBA+XGbGyWCwjgxUZyx8V1yIQFJSh5mTcvSSLxfLBsCJjGdVQEMxmuFah4fbB52QsFstQWJGxjErcgmDmZIK5GtFw92SsyFgsI48VGcuoxC0qxk2RcN9UOZTwkGAxMQIzXHqLxfL+sSJj+aOAIsGfUKbIuIVmKCgmbqFheuYNFh+LxfLBsSJjGfVQNDjs5R42ey/BYDpu/MGwCD6z3mKxhAQrMpZRT2RkJFJTU5Gbm4vExEQlHEZsgnGLD9PxQZqZmZkqnxUbi2XksU9htoxqOMzV2dmJ2tpaNDc3o6ioSP2M8tX8+FhXVxdOnDihRIpCQ8GJjnZ+1dBisYwIVmQsoxp+fM3yYzNs5h4yG65HQ0xepjGbxWIZWazIWEY97o/wtQrFewmRxWL5YFiRsVgsFkvIsBP/FovFYgkZVmQsFovFEjKsyFgsFoslZFiRsVgsFkvIsCJjsVgslpBhRcZisVgsIcOKjMVisVhChhUZi8VisYQMKzIWi8ViCRlWZCwWi8USMqzIWCwWiyVkWJGxWCwWS8iwImOxWCyWkGFFxmKxWCwhw4qMxWKxWEKGFRmLxWKxhAwrMhaLxWIJGVZkLBaLxRIyrMhYLBaLJWRYkbFYLBZLyLAiY7FYLJaQYUXGYrFYLCHDiozFYrFYQoYVGYvFYrGEDCsyFovFYgkZVmQsFovFEjKsyFgsFoslZFiRsVgsFkvIsCJjsVgslpBhRcZisVgsIcOKjMVisVhChhUZi8VisYQMKzIWi8ViCRlWZCwWi8USMqzIWCwWiyVkWJGxWCwWS8iwImOxWCyWkGFFxmKxWCwhw4qMxWKxWEKGFRmLxWKxhAwrMhaLxWIJGVZkLBaLxRIyrMhYLBaLJWRYkbFYLBZLyLAiY7FYLJaQYUXGYrFYLCHDiozFYrFYQoYVGYvFYrGEDCsylhuCz+dzXBaL5Y8ZKzKWkBIsJsYfFham9sEMJz5WlCyW0YkVGUvIoDAEi8lw4kKGSu/GCo3FMvqwImMJCdcqCF6vV+UZLt+VxCeUBNdnqPpd67laLP+ZsCJjuWEY48x9f38/PB6PEhsjOCbOcCOEhsd8rzrcKAG0WEYDYfIFspdhlpDAj5bbANM/MDCAixcvoqamBhcuXEBnZ6cSGDdMl5SUhKysLIwZM0bt6bdYLKMPKzKWkGKEpqenBx0dHWhpacHp06dx/PhxnD17Fm1tbaoHExMTo9LSTdFJTU1FQUEBJk2ahHHjxil3SkqKShcefmM64Kwf68Zz4Z514RYVFeWksFgswViRsYQEIy7GffLkSezZs0dtFBKKSHFxMTIyMlQvhYaa6RhHI97Y2Kh6OhUVFcqQU2juuusulScxMVGVe73p6+tTvbDy8nLU19dj7NixasvLy3NSWCyWYKzIWEIGBaO1tRWHDx/GkSNHUFVVhbS0NOTk5CA/P1/1TpKTkxEXF+fvnXA+hr0E9nAuX76Mc+fOKcPOXhDFaMqUKZg2bZoy7NHR0SpPqDC9lubmZjW8V11djdraWhXOes+ZMwelpaVqOM9isQyNFRlLSODHqqmpSQ2Nvfrqq0ooONz14IMPoqysTIkNey/DTZozP+dvent7Vc9h7969ePfdd5Gbm4sFCxbg5ptvRmZm5ogOVVHgeEyKCI/LoT0KHQWG51FZWanmkNibmjVrlhIZCmZCQoJTwvvA54V3oA+eAa9sTtgQhIWFy8Z9GMIiohAREY6I677egKbiuh/UMsqxImMZcfiRYi9my5Yt2LRpkxr6mjdvHpYvX47s7GzExsYiMjJyWIExsBxu7E3Q2B88eBBbt25Vw2iPPvooZs+erXpDTPNeZRmC0xo/BYbDYRQWCiKH6Y4dO6aEhcJTUlKCyZMnY+rUqUhPT1fCEh8fr84jIiLCKe3a8Xp60NdWhYamLjS2++ANk6+jT4TE+ZMWoLIgIjJaBDUc0THRiEnOQUpCLJJi5DwkLeFOvszKrXWAeTWBs9WoMtWeR2A+5fU7WExwezKPtJK4wv35WIxXHIEZMlMQ0avygt+WQNn6vaV4+rPJ8Vm2cqpXgXHiCSRhAY7HwV8fP/7Usonb7w2kYpC/hVTjmTCHQR5XEbLpWgYyBNoz0Bb+Okmg8xb5/QrxsDUZpuvhJFIEEqkYv9eVWWK0z5y79gW3nzvHjcKKjGXE6erqUlf+GzduxIkTJ7Bo0SIlMhMnTlQG+WoFwY2ZD2Fvhr0azsssXboUS5YsUcNmLPNay6WwdHd3K2GhEHKepa6uDpcuXUJ7e7vqJfE4nDcqLCxEUVGRWu3GOaL3cw5D0d/ViKby17D7SB0OVPQOEhllIsQI+6S3g54mdPZ44EvMQdmtn8TCyWMwMy9akohZk6SDjYkuw4TrMI1O55iiIa2fwYkT8xBIxjQBM6pyyIuqq/zTP8hgqgSE4ukPddCRYSzPpHOJDHGndyVxIvwhyhVIO9inTLk6AUknOx3jThNwX7kcN4wj7jK4c/yyU7mdYK/41OdTex10+7nDAgKhY4LjFU6ZpiH8Xr6ooEAbmrxDlnMdsSJjuSb01af+yLrdBhruhoYGvPLKK2qyn1f6Tz31lDLOnHcZKu9Q5QwH52j27duH1157TfVk7r77biUANPxXUw7TULAoLhz64pAe51nOnz+v9px/YTwXJnA47KabbvKXP9Lwi9fbUY+LB57GWzsq8c6RLgmTUPWN5HmIIywCnt5OtJ3ZgoqLfWhPno47v/ZdfHz5NKwYHyepmM5pR/Xq+OgRhzY5gXhjgpSNMlZXRWujx5dAG4pH2ksCxP2HxtzJIWUFhC4QL+hoxYBEMI4SpURTJWTNJJFLBFQmVZDy6GQSwCDWPFzFOUkY5aD9fNXp/HHqWIwx9dfn786tcwVCXEfTAcGoNjG5XCLpwPNgkKqr4yfcMUjXRDYVz1CGyJ9Kx3OkTzzqXxei8g0qSEKcNlJxfoeSNLWxz6lx8t0g/tOKzLUYtmvhag3dldKEqm4jxZXqR+N95swZ/OAHP1BzFytWrFCT9RxeYp5rObeh0lIAOAH/wgsvqB4IBeCRRx5Rw3BXA+dauACBAsjeFgWRiwwojlyMwLpOmDBBzR+xF8N6m56Suz4j8R7xi+f19WOgoxFtnb1o6/E6hkTFyDFoLL1ovViBHb/+a2w+k4SLaXfgs1/5DBZNyUVJsk5JTC6iTaz2SS39r8qKqStdtVOZuNNOlcJ5JU6MIyAahnGnA7hTIfIyuCnkeNI+/l6Pk84kUVGOJ8zHiSim88fq9Kqu/HcMroP2axfdmkC8CjJeE808EsZyGMVN18EpyUmn4t1FucpyBasId3mGQJtqx6A8fhjnHFAl1mfB4zIf3RQHdc4Sp8pQcYK86OMyDdvNDNOqWCHomCaYDIq4vtiezIcQ91vyQQ3Ze2GONVLH4b0v+/fvV0NlCxcuxD333KNWhb3fYbKh4Io1zs3s3LlTDWuxp8SlxMP1NjinQ2HhcBiH3CgsHB7jsB5FhHMsXCFGoWKPiyvXWJb7fpzgr8lInYs2J0OZS16R9qPh7CEc270Zz7zwOvqyFqBsycfw4K1TUZIVj4RIpmP+XvR0NePcyWOovdSGpo4BZfAiM0qRXjAes0sSkBTDxDxKP1rrqtF4oQHNcWOQkxaB5Ih27Dt0Ci2d/QiLS0Pq+OkozU5BUZLUxteOWnlPK8+cR2OnBx5POCJjU5BQPBXjCtIwNiPGZVw16hzYXv42chI4ThrK9tpzuHTuDE43tKKrX3obEXGIiivEuAkFGD8uC9H+7B7J0ofGqmpcrm+GJ2cCsuJ6Edtdj53HqtDWH4WYlGwUlk3EmPREiTPHNPDYPgz0dqP94nk0d0pr+WKRnSVte6EeVecvor1XkkTGIykjC5NnTUNGgrR920WckTapb+lCq5xzWHg0ckrGoah0PHITIxGtVl2wbA/aLtXiYk0VKuua0NnbLxcO+mzDIqKRkJqBibPmICs5HokRTC8x/W3obmtE+ekmhKdmIikzCVH1h1FzsQXVzex5xSItcyzyCktQWhiL2Bj5fHh64Wmtwtm6btR3xmDc5CKkJcUhVj6ipsfi83rkKqwZ1ecu48KlXqSUliJH2iQtTsQouFmuIxHfFBz3iMEvZKiN45X4oMd/r/yhPr/gsq9XW47EcbhcmffCcInvzJkz1c2UZphsJNuN8yXs0XDjajUOb3EinphJfPZQzHAYFw0cOHBALaWmyLBOXKnGnsv8+fOVIFKoKDgc4htKYEzdR+QclL2R9lDOQHnG5fNKD6fzIo5sW4sNa1/H+gt5KFu8Eg89dCsmZESJwEhKDgUNdKOzuR61lSewa+tm7N1/BAeOlaPiTAUqL/eioU+MY2IC4mKipEfGkntRd3gPjolIbz/vQU9/uxRRi7fXb8bhY6dx9nIH2tPGIiMpBnlRHWi5eAoH9+zCli3bcVDKPVUu5VbV42xnNKIiY5GTEI/YKHl/lR3TtTevnIfRLsITFkkdkPelpQHnDu3Boa3v4N1Dx3H01GmcqTiPirPSo+Q8mBjd+OgoRISHITxMBBPNqNy9HfvefhfHuuLR13kZvZdO4Y2NO3DodC1q272IyilGmhjyTLG6jilXaLcXnu4WXDryLg4fqsCRMxcREXUJZ04cxt7te3D4RAVOlJejpr4WkZmZ8PY3iggew753tmD/oWM4ePwUyk8cwuWeSAzE5yErTYx7VAQiwqT9vZ2oKT+E/Tvewbrt8vk6cQpnK6SNzsg5yVYrFza+9DzESjslxkZL30NaqeciWmqO443XtqGioQvN/QPoqdiMQwcPY9u+Uzhz8izqLg+gw5OEzBx57+IiETHQiYGGQ9i97Ri27qpBZFEREpPikRol5emPJ8LkszDQdAQ7dh7Ept3nEZZThJRkuYiKf/8LU0aCkIjMSBmS98sHPf575R8ufiSNKMsxWyhxl381x3qvc9y2bRt2796tJvq5GotG2+DOd6Vy3HHDpWPPiL0RDplxtRpFhkuaCedaOIHPRQKcu1m7dq2azOf9OLyvhfMsixcvVsug6WcdzZAYCT6e2z9UXd4Xqhi+GNMsqHPVTk9HCzoPrMOra7Zjzf4ulN7/Kdy5fAGWFYuYSqdEzDrC5OrW234c+954A2uf3YgDTSmITc/HxHGFyJXeWHhXBZrObMfxyjTpJSSiuDhOSu7CuV2bsfPV1Xhx427srm9FpS8ZedLbzM8rlKvnYowRsS1KuIzwi7ux9unV2HWiFQ3RRSgtKUBRfjKSIrtQtecd1J4XEevJR/GYBCT4DZk+AXVm8qJ8HBJSjj60t9Rg95u/xts7jmJffTjySkswpigfmcnR8NbtxanqszhY34H8sWOQlBiPmDCPlHEZRzesx1u/fQmv7j6IQ009qIvJQX5SKgrzC5FfWIgSSZ+XEoNkCp5jdBWqQT3o62hA/YG3sG7dZry8YTcu+KQHFpuM/PwCZGTlIqL9JBrKN+CdQ9XYv+8Yzp+rR0RGEVJzCpGVFImE9ndRUdEhohaHoml5SEmNRTzr5mnE4ZMnsPnoOZzx5SFb0s8cW4CcvFykR7ZhoLkSmw/UoS9C2rekRPU+I7qrcKlyN55/9nfYtP0UDpW3IiE7A3HpuchITUJGTAsu1JzF0Ypz8OWPRVIye2jSy/RcxMEN7+Ld13fiZMFkpGWkYXJ6rL+xB7pEHA8/j1d3ncQbVWGYNmcmirNTkR4XuGC6EYyoyNAgcMybX3AOTZhhCW68onS7OcFq9txoLLhxKMTseSVq9hwWMXvemGf23GhUzMYhELNxfsDsOWRiNtbRbLzidW+8R8JsHg+HB/TGZaxm45Wy2fOc3dtwhurDDOt6tfUdLh3Pne3ElV+c6+CqL67GGu7u/Csdj3GmLYdKxzD2Njj0xc3cHEmhYC+KInfo0CEVx3I4DMYeCzcKn7lLn/fqXO1y6uHq8n7hMJmUqj0C5zCUT66OB7rq0XT2ADb/bi32no9A/5hFuP+Bj2DhxHzkJbKuTDiAXrmiP3tgK7ZsO4cD1VGYtHwZ5sydhpkTS1EsbZ8b24boNonb3QikpCFtQjFSorpxSXoy5fsO4Fh3MtImzsAMuSBYNLEEE8YWo2hMPgpyE9Bftx8ndm7E67taEFUwFXOXL8WcyWMxvmQM8rNSkdxbjcaaFpSf60DkhELESS8iPdrVPvpk/GfIOvddrETNwR146dUdqA3LRdbsZVg6dwomjR+L4oJsFKZ50NlUjfOnz6AjfAISE5JRkMFr/1ac2bETR3cdRW3SOBRMm4O5N83BTeOLpD6FKCrMQ0FmKlJjpbcWwaFHpy35qhTHi37pyVw+vl16GhdQ1RYjbXULpk+biukTxmPMGGmr+E7EdF/Akf31CIvPQeGMhZg7awbGl45DSWE2xuR5pffRitpTDcicMQOZaSnIVsbbiy5POCISMlFcNhWzJ4/D9PEUzrGSJxnJcR6UHz2IzjjpIeVNRQkFq/8CWurKseGtQ2jyZSNt3GwsXTYHE8vGoVQEt6goGb2tTbh4/gIuRxciMz0F4/KTpHcdja6ac2itO48DbfI+ZGdiRlmavuDwdqOt8Sy2v/E8dtVHojNrFlbdPBVjsxJ1r/cGMqJzMjS8FAWu/qGY8MtvhkrMF9S43dtw4WYj7nJM2FDu4I2MRB24udO43WZoJdjvxuQxBPvJUGHkatMOl9/gjr+a/MOlcX9k6OdGwaWAr1mzRr3/X/rSl5RR5wS6wQjH1RKcPtjPOZnNmzerixoOmXERAO/L4fwLLxjYS+Ek/vjx49VNkxQiswrNjdv/Xm7uWQcKE3tP7B1d6abS4fCpORfmkfajSxXPC5U+tFZtx6lt6/GT729D99gVmPLA43hi1RgUpkf7VyxxrqS5/jQ2P/tLvHE4EtVRM/HVr92JmSVZSFPzBQPoq9mK0zvW4lvf3Y34Wz6BpZ/9U9w7pg3n1/wMb/3uZWwIW4A5d92N++9bhpkZsUiUXoCaA/E1Yverv8G61a9hXfNsrProvfiTR29BTqQP0VJRT2cDWg6vxm+e3opXdveg9K/+Fh9dMgl3jonlGaiz4nnRFWgVL5r3v4kD636Pb/2+DnkrH8Jdn3kcK/OjkM6ptIEuOaWTWP/sz/H7NVtRmf81fPShpfjUvbmIRg02/fCnePX/rcPpGZ/C8jtvwwO3TEdRYgRi/SNBgSOxbYluWTbYALobq3By9f/F61trcbgjHw9+/SnMnzoWpUnSg5W/3qrNOPXuanz7n95G0rKHsfTPn8JKMeAZ8RLv60RY30Gs+d5vsPaloyj88r9gxZIZWFTCnqEHXX396Ozpw0BvF/q6e9Evfg8HxjwNuHT+IH730x+itvQ+5N/5l/irm9JQPCA9pQMb8c1/fBXN2fMx+c6H8cRdU1CSFYe4sD6pfQO2vvgi1r68FfsS5FzvX4ZP3zMNHAxu3ft77N+wFn+/LheLH1qBJz+7FGOk/aJ7a1Bdvh3//i/fQ1XSAuQufQJfvGMyStLl88nGcLXP9WZERYaiwh7MunXr1F3S7EHwy8dDuL+kNEgGE+eOD/abffDmDne73X5iehzEvXdvwWFu/3Bud7nEhJsws2cbBIvk1Wwmb/B2NaIZis0tnsZv9mwL9ho58U/317/+dSUy7MkwzZVgO7nTBPuHg72VDRs24JlnnlECR0Hjsdk74YQ+RYXHpxCY8hjPiyHzPnFjGDe3272583GjqHAlGpdPz5CrWrqvGfOxkWpJLbRTTdxext43n8b6V3+P1+smYMndD+HRR+7ExLRoxKt5GEnLt6G7Vg25PPP0f+Bg/2yEj/8ovrCqCEVp0jPj2JT0iLwdVagr34mnf/wL1Ix/CAV3fQFfnT2AS6/+FG89txpbku/GigfuwMfvm4uMyHDEsDLeXqlDBdb9dg1eXb0fdaUfwwP3zMejK0oQFS6fA9aW8ziX9uHl3/wOL204ht47v4lHb70Jj85KVecTwPkeqH0fKjc+i92vr8aLp/Ix56H78cBjd2KcWMBYladPjt2MA6/+GutXr8Oaxltx3yMr8NnHpyMlrAbv/MdP8Pqzb6N6+Vdx752L8cjNRYhhfdgkknvQYR0BD4iciEzDWRx/+f9g/e4WnPGOx2N/8ySmleYhS52TiEzdTlTsfAP/9zsbkH3HJ7D8qS/gpvQIpKj1Et2iJeVY+39+jg0v7UbqZ7+HW5fOxNJxYvbl4LyhtuNSDc68uRqb9x7DjspL6FT16kNfbwdq6i4h8SNPYO7Dn8ffzM9Csfc4zh7ciL/75jr0T7gFNz38KD65MAe5KXIRIXWFrxk7fy+CtuZ1rO+Zi/s+ehf+7GNLwT6Lr36v1HM9/uWf30HMkoew8MkncXdJJFIat+DMgdfx988dQcqUu3HLnZ/AyglJSOfYqtMKN4oR78lwGIuPAWGPhqJD3Ieg2/jd+6Hc5GrTvFfcUPFuNwmOG24/nNvsjZu43VfiatMNhclrDOkHKeu9cJdtjsc933sOZ3L5MofNvvrVr6qhqfd6RD/LuxpBGQouMli/Xq74f/ITNVRq7sQ3z0bjHA2FhgsCTB25keGOa8KGOk8TZnoxXNjA3hOH3d4XziF8qhvjQV97Ay7sW4/V69/F2ycaULj4Eaz8yM24bU4pEqUK+qJd0orb134WdSe34Bf//l3sbspFa/pCLCmNQwov7XUS+Dwd6Gi9iCNHj8A3+xGU3fkZfHmWiMwrP8Xbz63BO6kP4I4HV+KT980WQw654pWXgU6g4zB+//RqrF5zHH0LvoSH7p6Nh5dm60JZrvQ6wtpPY+1vf4rVr25DzZS/w8fvvhmfviVX2kqnceMTwxmGLhxa+yts/v1qrG+chlsfvg+PPnobuPBcX2nzfenCybd+h02vvIKfnCjGnR+/D5//02XICavGuz/8sRxvE2pu/Ws8cNciPLIwX2mtPpx858Rl3MbPTV0W+Sgy53B89fexYY+IjK8Mj//tn2FaiXxGJBNz9NbtEeP9Jn74r28he9WjWPbUU5gjnfBkNrqvS66gK/DGD36G9S+LyDz5PdwiIrOsNAq+nkZUHN6FA7v3YvfxVnjiUpGcnSHvg3xOpAfU3lyLA7u2oGXqQxiz6nP4xsIslPhEZA5sEpFZj4FJt+KmRz6JT8zPRK7qVVFk2rD7lV/i9dWr8XrnHNwnbfXZj9+KDImN6LqAS6d348V//1ccT1yK2Js/ja+syEPYqVewf9MreO5cLqYvXYW777oN45PDEaeGyoZ4U64jIV3C7P4iu903klCc7lCGyQ3DeSXMffBmwoPjTb7guOHC6TZxQ6UPLv/9bKaM4DIJjTfn0nbs2KGGrzhcRpGhkTcwrfszEOy/FpiXK8bYk+EQHXsrNPgUOAqbezkylyezR2NWjbl7gsYfvF0p3oRz8YHxv2+k+djxGOhrQtP5o9j6ix/hpdM+lCfPxn/78qewqCwPBfqC2Q+P5m2rQM3xTfjl9/4ZW85H4HzYWIxNC0csL1wlBf/kXZNej1jJ+FQULroXs2+9Aw+U9qB69c9EZF7B5pT7cfsDK/HYfXMgF+1Q9kiECa37sfoXL+DFNcfgXfzf8PC9c/HRpXpRhaqHtxthnWex7pkf4fe/34yK4v+Bj9+/FJ9eVQDpGAxh0iggHdj36q+wYc3LWN86E6vEcD7xKA2nHFfloCR0oXzzc9j06hr8x8FMrPz4Q/j8n92OgrDzSmTeeFZEZvlf4767RWRuLlCiq/vWPFO3yJhXJ0xEpocis+b70pNpEpEZj0/+zZ9jekkhsphAtu5aLTI/EpHJuuNRLBGRmZfmC4iM9O7W/uAX0svag7Qnv6t6MkuKvOit34+1z/0WL72+DacK78dK6d1+8s4FGJ/oQ6yX8yr78fwP/xG7k29F2AIRmcWZGCc9mXMUmW+sR//EWzH3kU/gkwuykZtMkeG9Uq3Y9fuf47XVL2Nt1024/+EH8NlHpK2knlE+DzoaTuPQ6/+AV06moSJyGf7mT+aidd8b2L1hI6ry7sOy25fgzuUTECetwOqblrlRBMY/QoD7y/eBvogjCOsx0pthqDhuxiDRyHGohRPU3Dg/QOPIK21egdMQ0kDSMJs9h4B4pcyrdLPxMSe8Sqch5cYrdxpTbubpxjS4NLJm442RfP4WJ705V8GNj8/nfAXnM7hx/oKPfuGyYwoENw558XldfPLx9OnT1fAQN17F8yGRvOued8bPnTsXy5YtU5P9FBz2Yo3wGdgWRpQI/R8EDs/xWDzu5z73OTVEx58DYHtyqTIXAXBIjUN4HE5je7It2DZsI7YVlzGz/diObFO2L9ubPRW2Pd8Hvjcsk+8V3zO+d3wf+b6+f6QdnLYI83nRfeEkqvdswhvrGuGNm4o7H7wXc8akIUuuiFUaZUa5Of5IOb7UKTwjFVk33YlFn/pH/N3//A7+9V+/j+99//v4jmx0f/+738H3/vc38NdyJfzRsTHIiOExxSjzs0mRp1uFOFt4JHwiStGJGYiPS0a3pxs9nh6JccEbKPu5yMaDlt4YRIxNQXRWnDZo+pQEv4OFyhaL1Oh4FMbGIanbA1+vGH5RVzGpKo++KVN6c51t6G7uFMEbi4TIbCRK1kjWlUNFnOeQxGwvd1uwdXg8ftp0KNPzTwWoSvnCZZPj+Uw5sg/kV2euxF6VwWPIXt8YqzflpEuVJx75H+jqQMvRvTh9oh01nhm4/WMP4PZl07TAsDE4Vxcbi+go+e7LZ4XHVu+5OpwU4BTKMiPErcpWGIcOUxu9DA6LQGxCGsqm3IJxUf2IO74Gu/fuwJ6aLtTHjkXWnFnIKc5VAmPO0P2duxGEVGQsAdyiw40Gyr1RhNwbBSl4o2EL3oxguTcaQvfGOYrgjQbTvdGIBm80ru6NIujeaIC5GTeNM92EvRoOYQXzQYWFULy4MpDDc5z3o3BQMCmUfELzqlWr1HwJBZNpeXc/b9585513sGvXLv/TlE37sM3cbTpU2/M9cr93xv3+z0fyMa+3TzoG53Dq4A5s3noQXcUfwbQFy3H37CLkJEp9aJckdcCkalFAVALiEvJQkluEJBHQTgppVBaS8+TCQdpiAi8gxo3HuLFFKM6KQmJMGPoGwuEVg+82z6Z0okLZ84nORGZeKsYU9qGtajvOVVXgbBvQ61wzeHq6cenkAVRXdKCxq0QuLHKQlRmni/FbSvcxxB0WheTMXOSOKQQ6anHmXBV2VshnhIVKNG82HGgsR3VVJcrr25FbVIKCbOmBSqHGSFEUnbOXLPIXqLo6mvuIREU5gcat8jl+dzzRxlyFOq8OjhibTQXJ3wD60dsjn8H+XvRHRCNT6puRmii9SR4oHF0NtbhUfgTn6jvRIp2hCH5e5E/nFlFUx5YQ2avzUn6910OodItH3MrvpA+PTkBa4XQUFqcgJeYs1m94C3sP1kt5hZhYlIX8jHhXL4/5VcYbhhUZy4hB42sEiAtAKDTvB155Xenqi8LBuT8ugeeew2HsdVAw2DNbuXIlPvGJT6inPlOAuNKMy6rNajQKDR/cyZs0WQZ7OcMdz4S7xWQkrgxZAjdPXxs6Kndj37YtWL+7HJg4A2PGSS8UzWi5dAG1NTWokXrW1NahpqYWtXUXUNfWiY4BuTBIKsSUcTOQ52lF14E3sefACRwur1J56qprUce8VVU4V34cFbUXcb6DQiFm0ivtO+CBxzsgouM+FxpRMQkRacgtycXkaYmIb9+PqtMHsfNEFSqlrNraKpwXkT646wBq6sMRlToHM4uyUcglYtJENJb88+M4KRVJIog5k6YhI6VL6leBLTuO4XTleVTLedVUnUXl4T04dU7O2ZeEKbNKMK4oHfEqpwiR9Fi9zq0EjtYNRo6j7LLj5mZqojb65XPjlfMe8AzoNmBahRh6SRDG9pDyB8fpcliAT+IHJD/LUf2mSLk4ZG83MwapST3obqjHpeo6aaML8l5dQlX5CZzlcvGqVjTyKQxSFocTVYnScxvwSl2kV8YnBARuXNVH9jKc8VKfAR5bhTKnpImMRVTGWBSU5ktv3IdDO/fi3Ll2xCWXYkJ2InISOACpC3SKvaGE5GZMy38OaGyN8TV73rfEYSyuLuSwHo2+O917EZw22LjTz14MH2jJx9dw/ue2225Tw4HsoRnY++CQF3s4HPLjUCJFkEvr+ZBN/vwzH+XPBSrMx2Eylh1cz+C6BPvfL8wZ5utG58UzOPzTH+C1t3Zja10HopLD0Vp/AicO7Mbu3Xuwe9ce7Nm1W7Zdyr/3+Gkc6U1GbHwiSrOTkZabgfiwdoS1lmP/8RM4duQAjh4+hF3Mu3MHdm/fi23batESIUJcWoyCBOmFHNyGk3sO4GTEOJROLsPsyWMQT21RJo69tEjEJyYgPSMZSe21uFB9Hlt3HkD5sX3Yv2c7dkqd3j7cguiieVh21124/aYCFKWy1yXvD/Mb08YnEhC2m+wi4hIRk5qBNBGZrvpalG/bKeJ/DPsOSF2378SmdQdQGyaGc8ldeODOBZhWkoKEKJbRgvJ3t+HonhO4VLwUkyYWY2ZxspQrcepQfF/UTqF3PKYO56Bcf1eTnPdmHK9sQ31fCmbdsgA5cn5cUCEfKwy0VaHx3HG88/ZRxIybhpKFi1AoH6cYdgngkQSXcWLLTpzYfxZRc+5EaXEexmfFIlbaydvfiv6Wszh+5AxOHdiLowfZ/hU4X30aDS3VOHayEq2ZU5A4cT5uGyPt6qtHY2051q49ht7UEuROnSVCnYikWL4DPN9unDuyC0cPHMThzixMmjIZC2aWqSXMFCk11Bkei4juVoRdbsKp3ZeQMWUxpt73ABaMS0NaLN8DOSl/eziOG4QVGcsHJtjYsqfBuRAOsXHeg0acQ4BXQ3BZwUadQsNhMvZKKGQcpuONn5xPcR+DaTkMxmE/M6zH4TwKH+dmKDgcaqPIsBzO2/CmYJbP4UMzJDYUDB8u7poIk95EdweaKi6gMzYTCcVlGDsmE6nxkYgMCxeDwqHUMDkvfczw8AhExCQgJq8UJdlpKE5LQGRcEuKk55iclsIRGsREMXEEwiMkn5xDRGQC4lLKMH7SBEwpy0JGrBjctnZ4I6Rdxs/BjKnjMX5MBvjTNDwjfVqSNyoaMfEpqocYER2rej4xUZFSptQtNhXJY+dizvx5WDR3PIqzYxEXRbMWZM6kMBpEA39sLTImDsmpYtz5XC+uOpP3KELOKzIiFjFJxZg4ez5uXjwP00tykBbPJb28ivegs7kbiEpB9sybMa0sHyWZCbq+/mOqa/xAiPxzykMZW8ZK/fulrQcS8pA2ZjymzZ2CTD77i2mkC8RlyNJRQvdAIkpmzVXimy2Nom4dEsMfhn50NPcgPDYdYxYsRWlhOrKTpO7RcYiOjUaylOXr90nnRo4u5xYWloS84jEYO3EicuUCpmTKTSgrm4y5OXFIDOfN3j60dsejaMp0TJxahrJs/XgefRZedEsP3Rseg+TCGbhpxhRMKs4FbyfyL6yQl466M7hwugIHT0ejZP7NuPnO+ShN44oynpNOp9IqAq7rTUhXl1n++DG9CwMn/NlT+OEPf6gMFJ8JxkfMsFdBw+3GfPSGM9juso3b3Ivz7LPPKlHhogQ+6Zk9ETfB9TKwfuzNcF6Gy63ZI2JviILDxRAsj3M5rC/FiCLF47Cs4cp8P+gz70N/ZwvqD1WgobMLTV4Perrb0c9fyfSKseJFrbpap6GVtvOJ6MQmIrp4MiYVZGJCRhy8VBYxwr1yVVtbfgQ19c241Nqv8nA0PCIyCfEpkzGhNAvjSngt3Ie2i3VorL+MtsgspGWlI4cPaJTT4qlpo8xX7mlc+3Dh/BmclbZqaBlA74CUSfEpnYXxeSkoSVPL2VRqfcQA9LsxBp901leh4XwlTl5sVb+TIyeGmOSxYohzMb4kXfWqFHL+Prmyb66txeX6FrnyL0JWZipyuEZYilOpVEORwNED9eGrF96+HnQ01KKxrR/dvjjkjC1EUlw09A94D8DbKz3wlhbUVjciOiMbqYUSL6emb5bnsuIuNFZLu11qR2RhGdJSE5HCHgM/wwMd6OYDNY+dwoWmLjT3SkZfGsZOGocSaXc0nEJ7eDL6EkUcU2OkR9KFnvZmVFRehi8+DUnZueqRONL5ltpyWUI/WqWulxsa0DSQiqycLOTLRUWkHEqfoUdEsx0nN/4e29e+hd+fHYelD9+Oj39qCXLkXPXtpU77qfMnxn/9sSJjGVH4cWKPgJPsfHYY3VzOTMNNg20wBtt8/NzG28QNBYe4uEya8yp89hhXk7F3wgn7YIYqh2EeuWTlkBsFi/NGnD/igzYpOuYxNZzLoUBy1RzFksNvbtxlX6m+w0NzIn8UlO4e9Ht5vS6I0ATmBOTVHEOFiIlhL4WLOeR8YyONUeVycvaKutHrGVBlKZFR2aX3QwMeE4WYaDG5Upy3vw8Dco4DYVEiQlzYwN6P+ldoMTB1kGt4MdB9Pd1SNTU7IlrHHlW8Ki9assrZq7ymphp9fF2wU7ITperg6YOntw/dUhe2nxqsY28mJhKxMZQYSaSKYOk+qa+k7xcxiJTeg9Q3MkIEl9lU0UqNjcc5DPNxx1eGeDHg6Vc/ce31SX5pDynCMdoUETmSx4vePo9auRcRHSW9BmfRgTqOvE8S5+kX4Y2iILCn6MRRxAakd8L258I7uRjgsGEMf8VUzsUn5zogFwNe6cnFsHcpmbzeAfTIZxDsGco5RfIpDbrCkpM9K56vB30+OZb0IGP4TDYdLRrTDk/zMbzxyxfxymuHUbPii3h41Tw8tiDfEU0m02voPgxYkbGMODTg7B3wRkmKAZdEc9UXlzxzUQB7Bu6P3VAG2m24OfzGngZ7Hdu3b1eT9lwqbUTA9DSCMccYTgBYLhcFcB6JYsjH0XDojA/TZBiH29ib4fJmLv/mvA8Fh+Huobn3h2PE5UUZVPnXBlU5dLwO1n6nZ6KcOkGQS3DSDQpzXnXpxPjZS9EmVjWTBJsYpyB/ORqpmwrW4YG0JrV2KJvOtI5fO/jijzQ7heoJaJd/p2saSKSOqxyyOVEmiAS1gh/dnnRIvHLwZXAajVNoEP78Cle8/3BB+dRx3O3G/CxFt7PyqywmjY7XDSIuFck09ItbpdPlOyGCF/0dF9F4+FU89/xBvHXYi9lf/QLuuKkMS3L4mBuTzp3zxmLnZCwjjpl0J+wt8BH7FB7Oi3B+xsx3uLehMPfbcAUZjb9ZFcYwLlGmeLF3NFx+8l5xrCvL4HAb75+hmHAeicem6Bw9elStQuOSZ7XSh6uPHMPI87jS3M2VUXIiG8uii0aFhl/cLE+VKT5jkdVO59EMNiXEXQ1tmCVA/nVKHanKk3997e/UQQeZhILyBcIFHodzFzoR8+k9d+7jmlhVsnMOOlyVoNwqSu8GpRmEPgE6Aq8mmbM3KWikA3UQh1M1vqh6Ou4AJk3gGAGXwVVfhdst+L1BaaRMhpgq6DKcNKoqTKO9yq0OrFPzcxT4PIgwuRrWuLiqrb+nFQ3lB3CqIQ4dadPwwP2zMTU/CfJNUGmY7Q9z3jhsT8bygXB/fIKNLQ0zDfWbb76phrkoDhze4movGnKKDoe53PlYHv1MS4Hi/AkNPRcSsCzeIMphMu5Nr+hqjLwp90owDUXE4/GoY3NRAIfPTp06pR5hwyE13rjJY/PmVN68ysUEXDp9rRhT4jYy/NetyVdtrNSNjETNOzCEZsgRI9ncA0X+MonLwzs66FE9FyeDozUOEsjjMJxeeVFxyq9CxCkeDuNJMl20YxBVtLhUWt07CtIHhTvI30Ngduc9Mf4AUicVp+M1gVLo4nH0cdWaOB0lqDjtHOT24w+kQ3JTpJxU+kZMcTtl6yPRy3j9Gmh9jU4x+DgqTF6Cw7RQEydGBXLHUjWm50O/Th1oL+L19qOvvRGtnT50e2KRmZuCuOgINQzHXLp96Q68p6bsG4EVGcsHxnyEgo04w2ms+Sw7igTvVeGVP3s5HIKi0HA4iqu5zJwHjTyHsLiC7PLly2qSn/MmzMeJeQoUb7qkQAXPk4w0HkdsOPTHhQIUOfNMPgocn3TAunB59AdBGRi/mGi/cqpmHcZQOAEqCQWU+8DLIPyiRKtJvyuJE+JyiZtG10kTEAR51VFq07VlPm70MaV26/Sy+R1EeRxMGDFmPCi5QkpURt9pG1dKulT7SCZdR1O+y+fE+wlkd9ABKr0/LjiTxh0anMJVinINwvluMFb/61aia3AZKoUQaA+DDpdQFaHL8V8YGMwJyJtDl/urqPzaeUOwImN53/CjY4TF7R4KTq7zzvu3335biQd7IBQas4LL9GgoMpx/MTdb0sAzHedz+FPOnOQPNUOdC8PYM+P9NRRMno95zA7F7/2iv3y6B6CtgTZC3PRj/aUe8q/T/aGxUFmUQ1zKEZzCnUb+xRFs5kyOoc2foIL9pQRwytLpGU+fW2R0eRpXXqcod4lcQ6ZzSqjKJm7590ovjFPlwfjz+stSmZwSnDPQQU687Fx+jQ5Q6ZVTXvxxJpN/pxnk0ehjSymuCwWdji98vp+EO58nLTKOEKgQ+vSr8jOCOx3ppBH85ZkQxy07fSOnLmfwe+cUNijs+mNFxhISgg01r/55Zz17KOa+FG4cjmLvgJg8nLehsHByn/MuHKLisNRQq7yuF6wbFwrwHCiC7G1xAQDvBWJPzBIq3IZ1NDLa6//BsSJjue5w+Iu9GfPoGfOMMyMyNN4UFD4uhkuJaciHWqJ8IzGiw/pyKM9isQyNFRnLhw4jNh92Rks9LZYbib0Es3zo+DAbbvc1mRUYi+W9sSJjsVwjtvNvsVw9VmQs1w23cX4/hvrDYtxtD8ZiuXqsyFhCwlCC4DbOV2uo3eV8GIy7uw4fFtGzWD7M2Il/y4eeD5vQWCyWq8f2ZCwhZ7jrmPe6vjHxVlgsltGLFRlLSKFQDDfENJx4DCUudH+YxOa9BNJisWjscJklZAR/tD5MImGxWK4PtidjCQkUmODeh72esVj+82F7MhaLxWIJGbYnY7FYLJaQYUXGYrFYLCHDiozFYrFYQoYVGYvFYrGEDCsyFovFYgkZVmQsFovFEjKsyFgsFoslZFiRsVgsFkvIsCJjsVgslpBhRcZisVgsIcOKjMVisVhChhUZi8VisYQMKzIWi8ViCRlWZCwWi8USMqzIWCwWiyVkWJGxWCwWS8iwImOxWCyWkGFFxmKxWCwhw4qMxWKxWEKGFRmLxWKxhAwrMhaLxWIJGVZkLBaLxRIyrMhYLBaLJWRYkbFYLBZLyLAiY7FYLJaQYUXGMqrx+XyOa7DbYrF8OLAiYxmVGEEJCwsb5B4KKz4Wy40jTL6A9htosVgslpBgezIWi8ViCRlWZCx/VNiOucXy4cIOl1lGHV6vFz09PWhpaUFvby/y8/MRExPjxFoslg8TtidjGXUMDAygtbUV5eXl2L9/P7q6uobswTDMXkNZLDcWKzKWUYfH40FjYyP27duHTZs2oa2tzYkZjFltZoXGYrlxWJGxjEo4ZMahsu7ubtWzGU5IKDTDLW22WCyhx4qMZVQSERGh5mFiY2OdEIvF8mHEioxl1OIeDrNDYhbLhxMrMpZRhxkCM5sVGYvlw4sVGcuoxAgMMSITaqGxQmaxXDtWZCyjHmP8jeiECnf5VnAslqvDioxl1HM9ejFueKxQC5rF8seCFRnLqIfLma+XyFiBsViuDSsyllEJDb0x9qHsyQSXawXGYrk2rMhYRiVGZLiFuidjyua+r69PPTOtoaFBPXnAYrFcGSsyllGJW2Ro/EMpMhQTPrrmwoULqKiowOnTp1FVVaUEx2KxXBkrMpZRh1tgSCh6MqY8PrKmubkZu3btwq9//Wv827/9G1avXq0ezsknQZNQCpzFMtqxImMZtRiRGWnYQ6mrq8O2bdvw/PPP44UXXlAP46SoFBUVYeLEiSguLkZ0dLRKH6p6WCx/DNjfk7GMOvhgzOrqaqxbt071KD7zmc9g/PjxSExMdFJcPfz4c+OQGB+2yZ8N4M8InDlzBkeOHFHlszdTWFiISZMmYfLkycjJyUFqaioSEhLUM9SuO1Lfgf5u9HV3oqWxHT2eAXj8OudDeEQk4lIykZQQj/iYSIRLnJXBK0ETaFsoVFiR+RDCt8ReHQ+PEZn169fj1KlT+PSnP42ysjIlMtfSbkZcWF5TUxOOHj2KQ4cOKYFhGHsrFJaxY8ciOzvbLyxRUVFKXMLDw6//++TzAt5+dFw4gcqDO/H6bzfjxOVWNESE8css5rIf8elZmHbHk1g+bwbmjc9EXBQQEaYHLcKUQdUuDf3MZ5ByVKrB6fQrQwPnq1xDFWcIJNXhYbrUMJ8T4YpX2eRFBcmLKUYnMT6i68a/cPkLpHPnCNRTvTpRvjBpOxXCM3SXOuDUSdpIZ9ORxi34S2Q6VzgFn37G6njZnHhTvq6bK1Cl584re4YH18dJ7coWHOuPchw6NpDGqY0fEzM4j7/WIcWKjGXUQQGoqalRPRmKzBNPPKFEJikpScVfyfCbnwhob29Xcy2czOfQ2MWLF9HZ2anyxsXFIS0tDWPGjFHDY1lZWYiPj1fiwvjrLixEGTMv+jubcOnoRmzdfxLbTzWh15eJzLR4ZKdJ3Wg2+i6jS9KcaY1DQvZUlE2ejduWjseYtAQksUvjWBj1pXeMjTY32hk4M2O29etQ4cpA+csggzyDcaLUThfg+HWEDhOjK21rTJ8pyW/giRh5lVQyBMpxYv1+J4f4B79VTKADTFIdJC8qQOL0vzupQpcoAf5wlcHx6zq5kiucFBI+OHZwuIkbHG8OEdDjwWn9aZSLrya/cbljjc/BCfSxDV3pBqUZQW6IyPCQN+SLavmjwIiM6ck8/vjjmDBhApKTkwd9toybe86zcOOQGHstFBf2hrhKjCLT0dGhBGX27NmYNWuWGh4b6iedzdflun9+2YMZaEdL7Qls+/X38OzBduzyTcb9n/4zPDBnLBYXxGrb0VWDuop9+PHTz2DbmWj0ps7Bp596CMunFGBiSjRPAL4Bj+rB9fkiERUZhohwL7q6e+Ed8CpDEx4u4XLukdGR4qch4kacKVypi8/bg75eKaPXiwEGh0UiPDISsbHSy2MPT4L0q4NjxdzGjG4jIGFybAx0ort/AN2eMISLdQ2LkDKjIhETGwlxqTCVifm8HvT39gFyzDDZIgb65f3tR49HyomIQnS0bJI3kgKiDmiOKkiQMt6Sxytt0edjz5S9PS96unukbRxJYTkxUYiKjpDjy2dIjsdtgOcv2cNUO8UhOlLi1UnoyvnkQmZAPqN90sb9cl6qLObgZzEiWsqULSoCESpI52GbDvTzfZH00vYRcn5hnj509g2I9PJYEVKPGJUvStpX5ZI0Xp63tBkiJY+cs3Ra9bEE3bJyLtLzHeiWsqU95UoJMXKx4Z+MlySB1E4bMcBxjgS2J2MZdVBkamtr/SLzyU9+UolMSkqKk2IwTO8WFS5DprBw/oXCMnXqVDUslpGRoXpD7LVwUn84IblRQtN/eR8q9q3H9/7hbdRPXIoxDz+MJ+cUYUJ6AhKjxPBIdcLEoHi6W3Dp0hG88esX8OaG42i85b/jsbtuwp8szBLD5kFv4yW0NTajOiwd2ckRSI/swuHjlWhu7xLBEKFIyUFRcSEKC7LAX+sxBslvKAa6MdBWiTPnGlBZ3Q4vmyEmA/FpeZg4OQ8ZidGSj4GB9lFNxvppr4JBOlgMa38H+qTOZ2racPaSGE0xvhGJWUjMKsTk0mykxEWLoWddxGj2d6Gnox0XzjXBl5mOuOwUpDVUoarmIiobu+FJzJX6F6C0MBMJIh7swOnjmDPQtfB0XkBneyOqezKRnhiBlPBOnD5cgcaObvSIGETEZSK/tABjijKRArmwOXsOlRXn0CXC6o2IRXSitN/YCciXXmJWnJhoVayIRU8HWitPo+ay9JQ7+tDvpWgNKBEOk7oVSt2KxmQjUeqhZvTUBUQnmi40oKmlCygci6S+ZoQ3VuNYTYsIjWhDfDIyx01GQWYKcuSkeC4DXc3obG5CVV0PIrKzkFqYg0x5syh4PNNwvni70dvRjItn6tCekIGwnHyUJsUg1kwlss6qWeSFIkinvPoFZwSI+KbguC2WUQEn4jncVVlZicuXL2PatGlKIMwPmHFIjD0WChFFiPMs3DiJX19fLxe/kaqnMmPGDJWXk/mcd0lPT1cCw/grCYg77voIDb/6HjQc24gjm9/Ca8fyUDx/KR64Zz5mZMQhWQRGIVUJC4uQq/9YJCWnwNtwHG1VB7G/NhMF+dmYPjUP0WEDaD26G8ffegPPbzuFykuXxKg24vDBQ6iorEDlubM4eeIELrR70BWZhsykOMRI+eYse1tqcbnyIPZu2YVdB07gUEWVtHONCLjsaySunWIXI2IdL1fcTvuw+k4ByoypboQTJC99bXW4fP4gduzYgL1HynG8ol7KqlYGvbKyDg3dMQiTq/u01FgxymKwey6i6dxBvPXb1dhRUYNjrV3orzqD06fKceRMFc63c+FDCvJyUhErdQj3v0eu48prV/0unDvyOp59+xTO1F5Csxjsyn0HpR3OoPzsWZw4fBpVF1tQ39qJZhGxo8eO4+ChYzh3rgpny0+iovwMTl4QMZS65eYmi3GXHkJYNzov1eDw069j195j2CttUyOfw1rpeddUVUueCtS09KHZmyAXRbGIld5WlK8Xvr46HN+4CZtfWo93m7tRd7EWTXXncODISWmHkzh77jQOVbXLRUAUMuRzGhsh7dxRi4aKg1j78kYcb/SiJUkEMTEKcVFaIrgNtNfi0umDWP3sZpzqjkTfmBIUxUsat8goxOFy+50jgBUZy6iDIsPhrbNiCPhb/9OnT1cCwcl4io8ZDjt+/LgSl8OHDytxofBQRKZMmYIlS5Zg+fLlKC0tVQJl5lsM7K0EC4g7zB0XnG7k4YBJJ85ueQN739yCHVErsGjZPHx8SSES5LKVR+e1siGMk/zhcUBbufRajmPbvh5kFY3BhLkTkRLpRdPOt3Bgze/w040nUNk9gO74WPQ2NaC3uwMd7c2oPXMQVc39aPCmorQkF8nx0YiW8sMGelBfvhdHt23Exi1iaBs70SWiNeDpQ19HPdouV+H06S54IxORwhV4ceFqaEfXSe04dMJX7aFbeiWXzhzA8b2bse7ASdQ09sr7G4n+vj6014sRPXcO5fU+RCYkIjsvXfXYwrpqcOnUDrz4b7/E5jOXcLw3CkkDfehoa0drRy96ojOQl5+FogK5aJDjR8jBeXx9ZGNAw9Bxbj1O7noWP1h9AhVNHvRJm4VfvoiubvkMSTvUnzqOivMXcLL6MhpbpTdwuRFtrdLj6ulB1+VqXK6uwIHTrYhJy0BhWTFSxfBHhneho74GB370Nk5dlM9hvBzN68FAfz96OzvRWleBsxd7cL41BnljpI0SYpAY3gtv31nsfn4NXvvFGrzdFY426f1wqK9ZPt/d7SKATTUiwJXwRCcjTXo6uYkxiOypR0PlIbz+zCs40hiJ5qRSzC5JQko8BxeJF111R3Fmzzv40a/3oyklH4XzZmGCCFECu4UGNojzlricI4YVGcuowRh501M5JwaIk/fz5s1T8zFcerxjxw68++67as9hMd7bwon7hQsXKlFZunSpWiSQmZmphMXNcCJiCA5z+4dKP3Lw8TXNqNy4C4feOYtTkxZjzoIJWFKWoYaPeGy96dTKTIjH01yDyxfOY+2RCsSXjEfJtHkoFO3pqzyKuhPHsb8RiC6bjbLFK/DYbYtxu7TNgllTMSuzFZca6nGwsh6ZU2YiXXoFGRF9QNd5bH51HV5asx+tY+7DsjvuxKc/disWL7oZixcWYkJeH469vB517WFoTR+LcXkJSIhlr1DVSCOG05h5DHRhoPk43nntDaxZewSt0/4ES2+/H0/csxyLFi3G0ik5mJTYIVf4W3Gxy4vOlEIUZSchzteGjgtVOLjuIC6GZSGsdA5uvnUVFi9eghVL5uHmORMxpSgLaXHRcuGhD26Or6dAdEBfw2FcrjoG6dAhJn8uJs2/HQ/dsQjLPiLtMGcqFuY1oaHuFLYfLkd76mzMX7gEjz+0EktuvhnL5pVi2pgo1B/bhs6YdHRnzkBZWjREM+QYvGApxozbl+OOR27HsiXSPosWYfGCGVg2KxHtVRdxeHslfAWTkJmWjMJk+ex5GnF2m/S2959DXeFkTFy4CLfcfgdW3rwAy5ctwrSJY+A98Trq+6JQFT0Os8ckyvuShMjoOEQ2laO12SvfhUhMmV8sPaR4xIjAhIX1oVbqt3/3brzdNxs3L12IxxePRWpMmAiv1FM1hmoQevReoeV4pBjROZlL0vXmFSSvMlksl3gGM9yX8Upf2KHyfJD05FrTjESZHzS94YOUSd4rzbWWcaU4w7WmJ0OF8zPVL1eF/Ky99dZbqqeyYMECNZdCQeEQGQWIvRr2UHJzc5Gfn6/2XILMlWPB8DjczFfBfdzh3CyfvaKhPuMjDx9fcwHbv/djvPrLDVi74kv49APL8JXlJRKuDYVaguvUz3yh20+tw/6NL+Kpn+5F6W2fwWN//iXcUeRFx5tP493fPYN/qc7F5LvuwSOP3olbCpPE+ETC0ylX6ydexNOvbMUrx3ux+M++ibtnTcDNya3oqliDn750HK/si8BDT3waH5kvhrY4Xo4nBm3gMprO7sdr3/o2tmEKuuY+jK8/NAcTspPVkJWxW+xxUWToHeisR8eJZ/CLl4/j9SNxuOOLf4kVc0owJztKpUJbHRqO7sLz//R/sTt6ErxLHsLXPrEQ42KqcWnvW/jBf/0lThYvQcrDT+Cpj0zB9Jx4pHOthv9tMi2hDhwIV24fWo48jYNbn8E3NuVh/IK78bH7RagKE5EUGwFv90X0nfg1frT6XTwjPcHp93wVDy2fgzumZaghu3AR3Aunt+GnP/o3nE1bhaxFX8CXl2ShIFXOq6cXzed6pE0q0e2pxO5TPWjrlN6otxvoqcS7G2twqDwGN3/+L/DAbZNwywRpoK5jWPvtX+GFX2/HyYe+iHvuXo7HF45HXmwYosO9aLkgYvzDv8QrzaWoLXkE//zYQkzNSYCvtRbVm36Ol9eexc6aDNz59b/AolnFmJw2gLBe+cw8/0usX/sODk76Szy4YiE+tThfPia6XZTYO595ruoj+tXdWB+cERWZY8eOYf/+/WpogkMa7hvVzBc0eO9mqC/0UGGG4DTDxZOriRsuzXvFk/dyu/ds8uBwA/1XinMzVLqrSUPeT/i1pDUEpxkubXCeYIPPPTcadY/Hox5QuXXrVuzdu9d/UyQ39mh4T0tBQYGa1Oeey5GZx2wG8z6YzR1G3OHEuNkDoqix/KFWoI08ffK1v4Cd3/8JXvt/G/D6bX+JJ+4VkVlaJMaB5liMvGou+b5JFbWJ8KG9fD32bVqNL/x4P0pueQKfePKLuLNUegRv/Bxbn38B32qbi7s/fje+/NhSZImdi5K83p429FdtwG9eWouX91xA0cN/jwcXTMFt6ZdQ984/4AdbwrChYTb+/rOLMTEvWU3GO+8U+hqrUbv223jxcg6O5azEt/7kdswqyESS0WFVN1070ttcgfpN/wP/sTUaG9uX4tt/+1HMLclAij+NDx3VZ3D4e1/H0+cScCD/NvzT1x7ArJQLaDnwFr7/td+hbuHHUPK5L+G/TIzAmDhdrl4BQQeHGYl4/GGmvhSZX+Dg9hfxjYPzsGLFKjz14CKkSYxaKdZ7Cb6q5/Hzdfux+ngEbn/0r3Hr1BLMyJCW5f02vfW4eH4Pnv3Nt3AYtyB6ymfxP1YWoDg9AgMeEZXLzbh04k2UH9iAVw770NThk97DgBTcgdoKEfruAix58nN4aOUU3DotGmEdR/Dq936Ll144ggt/+c/45C3T8OmyeFZU1buzoRKnnv8qfnYqBXviV+L7X7wTswrTENfbhP7qdXjx6Tfx2sZLKHjsb7Hq1um4pcyLgYs7sOZXL2Hd5kqM/Yvv4dZ5U7EoX3rvXGjAPrBpEmkQ1SbGP8KMuMgcOHBAiQy/zDQI7i8y3WZzf3kNpipmfyWGSuMOG66M4PD3KocMV5Ybd5qrKdMw1LFM2wwV52a4MomJu1Ia4o4fLu3Vhg/nN+89Ga4sw1Dp3G5+pjhcxt7yyZMn/XfkczUYeyrjxo1TIkMR4HGZnnumMc84c9fH4D6uu/2HSseeEVekrVixQgmYO09o6BNzWY8d3/8hXv/ZG3ht3mfx+CO34b+smqgMIofMBkOJ8aHx0MvYvf5Z/NVvz2LaPX+KJz73FBZle9H6+tNaZJqnYcXD9+KLj30ERaKV7HF4e5rRe3YdfvPCG3hp1yWMfeTvcf+iaViaUocTL/wlfrqhCmtOJWK6iEFCjF7lxNsi4ZNa9HWj58JRnM1diOj5H8N/PLkSc8QQJuklVOpfbep+HaD70hmcfPkr+MWxVOyNuQPf+fLdmDUmDQkqVtN96Rwqn/sGfnKgH++Gz8Xf/dfHMD+zET1H3sa/fu0ZVM99EGOe/AK+Oj0BxYlyIB7GXKlzp1+cjdCvw5qP/BwHtj+Hb+ydg+W33YXPPbgcOWKDo3k63Q3wnn0OP39zL14+HoZbPvbfsGLGOMzNlV4Wy+y5gItnd+HZX/0LjkbdirgZf46/WpGHorRONF8oxztPv4ytO+twtjMW0x6ch8KsFKR6pUfaLT2Ojedw6EQYJj32JO6/bTJWTI2Ct+soXv/ub7D6+UOo/vz/xGMrZuEzU1L8te66eBpHnv06fnUiBQfib8e3v6LbKtEnvaPe89jyzK+xYc1W1Jc9jhX3LMcdN8Whdee/4LdburD98mR85Sufwsxx2cjwjxDrktW7R7UxiNO02EgxoiLDG9rMcBm/1O4vs/uLOxTu8OA0V5PH8H7KN1wpzVB5rqYcN1cq3xAc/l7phosn7rj3KscwVLr3ynu1ZZPgsCvlHSqOnyN+tjgXc/DgQfVEZA6FUUC4JJkbDT9Xj/FmSi5r5hCZe1hrqLKHOtZw6bjIgOVzZRp7UaFnQL74bTj+3H/g7d++jF923497H78TX3ziJqRLLG/DVLCqykjQ4UPV1p9h26u/wXfeGYOlH3sET37+PpTFSS/wFUdkmqbiVhGZpz55K8bG+URkpE/U04Qeiszzb+LlnZdQ+vFv4v7FIjJpF3Dq5S/hZ1va8GbdWNx5s4h5Uiwi3e3DpbpyFd+bVYakcbPw0PwyFKbEIUY1vZPOXD6Lt+fyGZx59av4+dEU7Iq4A9/+L6swu0DEyzkPJuqur8Tpp/8OPznmw7a4BfiHr34C89Mb0H14I75LkZlzH8b86VP42swkERnpV0negMg4xxLYJnKpqz1MJO4WIzJ7ZmHpbXfjzx9ahrzoMMi/EpmByt/hF2/slZ5MGJZ97K9w+8wy3MSeAOmuRf3ZnSIy38GxmNsQP+Oz+Pptecjx7sfZg2/hR987jMboUuTdtAArVkk7ZCQgnsNl3Sew9nd78NamRuQ+9Ce4T0RmlfRkBrqOiMg8g5eeO4jqz/0jHrt9Fp6cyiX5rLMPnRfP4OgzX8OvTorIJKwUkblLRCYdSfLZ4KKQc1ufx563XsfLNeMw67bluGVuDpp+8/fY65mCyxMewV/cOw3FWXHS89S9GDeqVZw21y3nbqsPzoiKjLlSdBfJMIPp2QzHtVYl1OmvxPsp62rzjHQ6MpLnbghlG5DgtPRTZMyczDvvvIMTJ05g8eLFKo73wOzZs0d9zjhMxt4GHw1DEeIwGsUmeLL/vTB1MHsen8NyLIdLpt3iFTrk2D4vLu39f9jz5vP49poxmPrgXXjkC7djZkoskjlUaJpKbIPX1w9PTxsOvfbveOeV1Xij9Qnc9fHb8SePTUOa9IpqV/9Sicz/bpqG2x6+D5/3i4zuyXQ7IrNaejKlH/+G6sl8JLMBNW//LX6yzYdNzXPxXz+7EjPGZKoVVXphAo8tB4+IQmR0LKJk46S/WsbsWDCaLpWMLxLU13wO9Vu+iR9vBza1L8TffuVBzB+bjUx2z5jI14uOqlPY993/D7+pS8GRMbfif335XsxOvoi2/SIyX2dP5l4U/enn8dUZFBkOBcm/iIw+hi5HN42ugw5XTj1ctu05/L2IzOIVd+FJJTI+xISJneoRkal4VkRmnyMy0pOZNR435TmS3kWR2YFnf/0vOBa9Qnoyn8df3ZaLlAvP4eDbv8X/95METLzrITzy1EOYnx8D3geLAbn47j6IF366Gb9fU4P0+57AvRSZ6THwici8+p3fiMiwJ/OPeHzFTPzp1GSnscKUyBz7zVfx9KlUHEgUQf6yCHJRBhJVvLRl7Uac3v8m/tfzdUifMg3TygrQ8JPfIGr+PSh89LO4qzQG6fIec6jPuTvHhWkhFkY3XSP3uR7Rbwi/cNzM+Lj5MpqNft6DMNzmTns1G4dIbtTGsfhr3WiUrmajMbyajRPPN3LjVfy1bny+2NVuHPJybxQK7k0824rtypVi8+fPV3f+/83f/A0++tGPqrS8WfO5557D2rVr1VAulztTLFgPU9Zwm4nnnht7RNzoNse+PgJD5MsvBjxt7GyUzbsNUxOO4cyJ7fjZhnKcbe1Fr7YRGjm/gZ5WNFRuwYED57HvfBamrJyPKbOKoa+LObrAAbYIJZgBtFuJKZ08NddQU2RUHNLzZyFtIBYR5ypR3SAX5eHJyMrMQHZmtmxZyp2ZLp/zGDkGLzidvISLA5QBM3WV4IiYOKTlz0SqRw528jCOHm+TcnkjpsQzaV8bOttqcOJCMwbCY1FWmI+MGBF3VS8aSzMXFTgOd1pKlMMEqTDHqwJ4muzdUJDYF2Ag7wbS5UnNJYHOp1ES6YRp+AQC5/0XMQsTN+P7OnrR3tqH9iy5qClMQkF2JKKd5cJejwddly+ivaUFHf0c6ZHypAiv7M1p6F6YtB336nlzskn5fM+84Y44cE5FjqXPQROVUYKk4nkoCE9Ey74D2LRmPV6/PBWtqRMxqVjaTC2IYBs4dR6EPlPzOpICQ0a2NIEf3A/rZkTwP+PmFv4/lo3nxfeVFyg0/Hl5eerOfQrOrbfeinvuuUf1Zvg4GS4Q2LBhg9r42H7eyMklzyT4Yocbyx8qnJs59vUlHFHJxcguW4iVKyaiJPYiqt55Da+u34mNOw/h+PFjOHb8OI4d3IY9767Ds7/fgh0NccDU27FsXjEmF8SrR6PQkHj5VIC+bvT19MHj0SZWWSte+RM+dqa/D718FI/HCz7xJTwmGQklyzBjSjEW5lzEmS1vYduWbdh5qhzHy0+h/PRplEsdTm7biD37DmLX2Ua0dMtxlBWU75/Un8NXzhEU4TGJiCuWMieXSpkNKH9rHba9vRm7jx0VwTmKfe9swbYNO7G3swDxpdOxdN54ZCfEIlIEbICPg+kXgfX0o2/AMdLXgKoHH8vC4T05135pB6+rECVAfHSNpw89fb3weAeUUVe2X+LDOIQpPcb+/h6ph+Qf4JCmD/FpBcgunIyShH70XjovQn8Ux44ekffnCI4eO4g9O3fhWPkZXGhtk3NQs1lSFt8Xr9RFypNj6TY3LSWl6srK2yJxfF9EoESi/G8XCYvORmpWGT4yJxnp3kacO1mNyGmTkTexCMXxXKHmJFS1v75c72+KxTKi8MrbDNPS8LOHx7v3eU8MH5y5atUqlJSUqHlCDq1t375d3UdD0eHNmlzyzPkdzuVwricYM0xmcPvpDo4PKdFpSMybgmX3rMDSyanIbzqCfZvfxaa3xRhv3ybnJpsY/3e3bMKmA41oTpmEibffhZsnZKI4lVfBuq7qWV8x0YiPlR55JCfv/VHi5l8EoiKj5eo3DtERcoEiViIsKh7R+bMxc94M3D5P+kRn9+Dw9k1Yv20btkqbquNLu25bv1lE5iSO17ejs0+MuCpXjuC2iIZIEb6cOZgxbzZWzk+H7+y7OLZjPTZufxdbd2zF5k07sH13JRolTfHs+Vg6uxjpCdHqidK+sEhExcchJjZK6ujuYVwlkoHPA4uIjEFcdJRcPNAUSmXlooWRNP++8ChEREkbRUcjMkJkklE8H6eteLNJVLTUgc9Jk94KL3gSssdjzNRFWFwSh8jGc9gu78/2d7dj5+5d2HPwMI5X1uNye7eIQgRiZYtST8+WvD65qImOQYycU6y8J1Gsh4TrQzGBHF/ek2hJEyu9uXD1pqhITVgiEhJzsXhWArKSwtHWGoGyRWUom5SLLHnr1Yq5G4S9GdMy6qAYmDv+OTfDFWW84ZLDW24oAAyjyMydO1ctBKAQsRfDBQNcmcYbNvmb/QzncBiHYd3QcLgJ9pOhwkYaY9fUQxtTClE8rgTTx6YjSnoRTdWVOFldjfNVsl1oRCeSMf+eT+O+25di1Yw85CTFiFDQcEp+ee1vbZEeQAS6cydi2vQyTC7JRpIYSd05E6Ht70JrtzjjMjFu5nxMKEhDLifVJXdsah6yiydiUoEH3e0XcfTQKdTJcaurqlBV3Yjq5lzkTpiJBQsmYyyHzsR4s3VUE8nmny9RXn0NH5uSi4wxxSjJOIuOtos4fLgWNVLeRaQgYtIC3P2JlVg6txQlyWKEuYBsQHoPPR7IaSB9ynSMnToRM9JFNJVQXC1ycdLTJL0CH5qjJ2DKhDJMLc5GHI0+o6XnEt7XgebeGPgScjFp8iyMzZJeQhwFTuouvRxPfz/aO3sQlzMNeUVTMCMvHvEJKYhNysTEkij0djei/NgxaR85n8YedEVmYNaS21BaUIZxWTkolJ5GaUEqclN4Un1obeiGJzwJmdITn1mcjtIUzv/ohlMPwpS26UkoQnLBRCyeWojMuGj1QEytUtKWve0YqD6EXeWRON03Cfd99COYPS4Lmf4Hld0YRnTi32K5HnD4y9yMyd+AueOOO9SwGJcWB8OPtxEBzsnwwZhcIMCVkHzuGcM4r8MbN/ljZObmTa4eY6/oegjI1eD+ktKmwNuO7paLOLP7OOpaO9FEOyN/vKkuNjEFY2csQGFWmhginYcwG4dlui/UoLHuAk57EpGZl4Ox+RnqWVZ8xpdPjJmvqwE1dRdxobkXCQWTkJsuhi/BGHBJ09+N3oZTOFlZh1PVLXJMiWM70+SF56CorATjJhUgPTYMkc5yZb6ac6C0qBBnRwbEQLbX7UL5+SZUXmCPUsrjAzJzxsh7W4zshDjwrhHO7fBhml0tjTh7vAY9IlBxRXK85EjEXePluqetCq1NtTjRkoyMrFyU5GWoYSWeaZinF77OOpxvaMGFDh8y8suQnZyAVC6VY9UpdF1NqBWBb4vIRHhyMcZnxiCeKx2kDdFdg1Onz6nnsPXxF+VikpGQno3Jk4oR1t6J7sZ2eLMKkJ2RKBcBzNOG+ooaXKhtQ/fYSfLeJWMMlV81UJi0Tzfaa4+guj0SrZHZmFqag+Q46YHxRNiQvk60XziNA7/4d7xYnoDjyQvx3/9iJWaXpiND/YDrtbXNSGJFxjLqMKvL3n77bfXrlbfffrtaTkxxcIuKYagw5mcvhvd1UXja2tpUuRQZ/somn4dG4eECB873cC7mRgtOwEhrtI12heqAP0g3VAiDdLbGleUAAAaOSURBVK/CxDFIrtLFq05TBTPe5DERAZiEmwn1i4efIL94VYhSSQk30dwTxoer2RCpCeOdvEzvH27jpDhr5fhNXhN9tZhjG3gIvqiylcdBEg1Rto427aPrTLRfZ9AhXKBgWnlwQQwLTm3Okzv1JAXl071BhSRT+VQ8YZpwDHScRc2xHfj5N36BU+lzkHz7x/DVu6dIjylO3WSrpfPGYIfLLKMOc0+MGS4zv1zJlV9DCYE7zAiOWZXG55hRVEzPhWLDYTQuheaQGh+4yXRcTcYJ/xuLNivGwPKVZs6YKe6Mb7DBp4+bTs0YY6h1Cp1W+ZwsytbJpoRIWTQngkiYXjsm5k2yqqRMokJ0acrHVVASwHVlSlcYb4px/AGYVvwqSPUl/LGqrsajDuR4uFObOfI1wGJkx83kZBnaLf09FS8v+t+PyUN4TmwbHaZzmxKIbnX6TYykZGLnZHRMAPfx1GnKXrWEyib5ncTcBd4OiZH4tmPbcPztN/HT3b1InrEIq+5ejum5coEUxTk3f+IbghUZy6iDIsPnkxmR4ZyLEZmrhYLBpehmWTXnY9hz4Y2cnMdhz4U9Gw6p8eeYOcTGuRvO2TAueO7meuI3GspgaadBexlBApF0aUPvhDrGUZVFi8VA2at0KoFG+dWrg98pDilAxamCdUQgpcS40hqnNo7MKA7Z6NXLdXV6nU7XjR76/eXIfshwIXCEa0OV46+PDjB1NBcn+tU5tiD9PQnTfwrZ0aX8TiJdhiuNQnxOuEG5mMd1MoEkkl4X5K+LCpfNaTInmQ/97a3o6wV6MydizoI5WDC9GFnx4Yh2hitvJFZkLKMO05PhU5gpMrzhkiJDoXAz1DCZ33A4e6ahYFBoWIaZj2HvhYsBOGfDh3DyB88oMszHPIRCRf91Wc6sDJF20mGcai8v3OswXTeaQeIOUz4aLZ67jlAElabQzcMYJ0x2jr1zQvWfHmJiX0UlcfbGFUirYuVf10T7VSqjfMbvd6n+j1OPQBrTG/O/jzw8Q7T3mlDlaKfCtBnRRjxQJze6yhLDSHX8gNe8mh1RzsApyL8pV4uVQoU7aZ02CRzdiVS4CnLtwqPiEZ9ZhPHTp2H6hAIUpsb4ly0PfRbXDzsnYxl1mB7Gxo0b1ZzMsmXL1BwKV4+9F0MJjxsKGFev8Rj8zX8KC+ds2GviHA5XprG3w4UGvBeHgsTeUMiRbym/qEojlHHSGJd6dX+TXac4yCxp261uADQ5B+V1EunYgDHkZqRE/6kgjXh0CvfIv5YD1UswJka1uy7RwBjHpvqjVJhzNMIbER2XKtFkcHwmw/siOKu/KuJQca46Ee3VPnV85XRiJZJhKp8rjfsShLd+qhD9RqpU3NxpAu2ldxpTrsFJQ1iWd0DdO9Qvbl78RJkl2Sqf0043iEHnZrGMFtRVpmwUDbNdDVcSGMJeCXs2nPDn8BmftEwB488J8N4bCsvEiRNVPOdwOHR2XZBqs+qsvR5CMedhzJrr/FVUwG9SKrPt2DeizY+Tzl2k26OijaHSf65gP3QqY+KqhkZi1H0tjDUZmOgPEgrusEDh5nR1yFD5PiD87Oh/dQxu+pgM0ccz4RrjkjgVYWJ1uN/lRBt0Sa520AHK5zgdpL352WaMP0L5XNDnCuENwrzPJibaERiijzU43/XH1MZiGVW4h6jMzZgjDY/BBQJ8ICZ/opkC89hjj6kbPPnrmhQhxl8feH4uQ6NOlwZEhxMaRiMgBhUjbWPERA1vyaZNj0ms4/Se2x8WonME55I/Z6gskFdjjjA4NBgdo+scSKXz8VXeY38vRjAqq9CpVC5/2LWhj8j6B9eQfl2DK6Fr4OR2EnOn2lr+TXs5XrU5ISqheo4Y0zFCcHYqjmg/EyqH3pvN75R4KcAVrMNMIR8CrMhYRj3X0pP5IFB0uFiAvRuKDHsy1w+X4RhkQ/gV5jZYAIxLvTpX2iaV/lMRro0E3H6X4wg2FDqYfybGScid4zN7swUIhPrj/L0Bjd8lDl1vQyBd4DzeH7okKZ29LPEEyjIlm20odNzQKSTELYiO8w/bUB/XxHMz+NOrCCfW2altkFPXg+ld0R8ags/bYvnQY4a8zD5UPZmhML0bzsO4e1MWi2Vo7LfEMmoJnpexWCwfPqzIWEYlFBf2JK6mN2EFyGK5cViRsYxKzFAZudJwGcPdaS0Wy/XFioxl1GLEY7jhMtuDsVhuPFZkLKOSoXoyblGh2y1CFovlRgD8//PNu/G3XKEzAAAAAElFTkSuQmCC;" parent="1" vertex="1">
          <mxGeometry x="-470" y="70" width="258.07" height="330" as="geometry" />
        </mxCell>
      </root>
    </mxGraphModel>
  </diagram>
</mxfile>
